<?xml version="1.0" encoding="utf-8"?>
<!-- Generator: Adobe Illustrator 26.1.0, SVG Export Plug-In . SVG Version: 6.00 Build 0)  -->
<svg version="1.1"
	 id="svg19364" inkscape:version="1.0 (4035a4fb49, 2020-05-01)" sodipodi:docname="logo.svg" xmlns:cc="http://creativecommons.org/ns#" xmlns:dc="http://purl.org/dc/elements/1.1/" xmlns:inkscape="http://www.inkscape.org/namespaces/inkscape" xmlns:rdf="http://www.w3.org/1999/02/22-rdf-syntax-ns#" xmlns:sodipodi="http://sodipodi.sourceforge.net/DTD/sodipodi-0.dtd" xmlns:svg="http://www.w3.org/2000/svg"
	 xmlns="http://www.w3.org/2000/svg" xmlns:xlink="http://www.w3.org/1999/xlink" x="0px" y="0px" viewBox="0 0 1262.8 402.8"
	 style="enable-background:new 0 0 1262.8 402.8;" xml:space="preserve">
<style type="text/css">
	.st0{fill:#FFFFFF;}
	.st1{fill:#CBCBCB;}
	.st2{fill:#C9C9C9;}
	.st3{fill:#4F5054;}
	.st4{fill:#8F8F8F;}
	.st5{fill:#CFCFCF;}
	.st6{fill:#96959A;}
	.st7{fill:#CCCCCC;}
</style>
<sodipodi:namedview  bordercolor="#66665e" borderopacity="0" fit-margin-bottom="20" fit-margin-left="20" fit-margin-right="20" fit-margin-top="20" id="base" inkscape:current-layer="layer1" inkscape:cx="1077.8732" inkscape:cy="378.55235" inkscape:document-rotation="0" inkscape:document-units="mm" inkscape:pageopacity="0" inkscape:pageshadow="2" inkscape:window-height="1040" inkscape:window-maximized="0" inkscape:window-width="1662" inkscape:window-x="1998" inkscape:window-y="0" inkscape:zoom="0.35" lock-margins="true" pagecolor="#e1e1e1" showgrid="false">
	</sodipodi:namedview>
<g id="layer1" transform="translate(179.35397,-48.008025)" inkscape:groupmode="layer" inkscape:label="レイヤー 1">
	<g id="g48" transform="matrix(2.953631,0,0,-2.953631,-48.080359,137.35598)">
		<path id="path50" class="st0" d="M71.3-54.6c8.6-0.5,16.6-0.7,21.6,7.5c3.3,5.5,2.6,14.3-1.4,19.2c-5.4,6.5-12.6,6.2-20.1,5.5
			V-54.6z M63.9-14.9c8.9-0.4,17.7,1.2,26-2.7c9.4-4.5,14.2-14.9,12.1-26.1c-1.8-9.9-9.7-17.2-20.1-17.8C76-62,70-61.7,63.9-61.7
			V-14.9z"/>
	</g>
	<g id="g52" transform="matrix(2.953631,0,0,-2.953631,115.55198,114.18711)">
		<path id="path54" class="st0" d="M129.6-46.3c0,9.5-7.3,16.9-16.5,16.9c-9.1,0-16.4-7.7-16.3-17c0.1-9.4,7.5-16.8,16.7-16.7
			C122.5-63,129.6-55.6,129.6-46.3 M89.4-46.4c-0.1,13.2,10.4,24,23.4,24.1c13.5,0.1,24.4-10.7,24.4-24.1
			c0-13.1-10.7-23.7-23.8-23.8C99.8-70.3,89.4-60,89.4-46.4"/>
	</g>
	<g id="g56" transform="matrix(2.953631,0,0,-2.953631,27.009211,100.84674)">
		<path id="path58" class="st0" d="M98.1-41.6c-2.2-5.4-4-9.8-5.9-14.5h11.6C101.9-51.3,100.2-46.9,98.1-41.6 M77.5-73.8
			c6.9,16.3,13.6,32.2,20.9,49.3c7.2-17,14-33,20.7-49c-6.2-2.2-7.8-1.5-10,4.1c-2.7,6.8-2.7,6.8-10,6.8h-2c-7.5,0-7.5,0-10.4-6.9
			C84.4-74.9,84.4-74.9,77.5-73.8"/>
	</g>
	<g id="g60" transform="matrix(2.953631,0,0,-2.953631,386.64125,147.66917)">
		<path id="path62" class="st0" d="M226-58.2c0,5.5,0,10.6,0,15.8c0,2.5,0,5.2-3.3,6c-3.1,0.7-5.7-0.6-7-3.2
			c-1.1-2.2-1.6-4.7-1.9-7.2c-0.3-3.7-0.1-7.4-0.1-11.3h-6.7v49.7h6.6v-24.2c4,0.9,7.7,2.2,11.5,2.5c4,0.3,7.4-2.9,7.6-6.7
			c0.3-7,0.1-14,0.1-21.2H226z"/>
	</g>
	<g id="g64" transform="matrix(2.953631,0,0,-2.953631,150.06398,137.75856)">
		<path id="path66" class="st0" d="M141.9-54.7h22.9v-6.8h-30.1v46.4h7.2V-54.7z"/>
	</g>
	<g id="g68" transform="matrix(2.953631,0,0,-2.953631,218.50492,127.80423)">
		<path id="path70" class="st0" d="M166.2-51.2c0,5.2-3.4,8.7-8.2,8.6c-4.5-0.1-8.1-3.9-8-8.6c0-4.7,4-8.7,8.6-8.6
			C163.2-59.7,166.2-56.3,166.2-51.2 M164.6-39.3c3.4,0.8,5.7,1.4,8.4,2v-27c-4.8-1.7-6.2-1.3-7.2,2.1c-8.3-4.8-15.5-4.3-20.1,1.2
			c-4.3,5.3-4.1,14.6,0.5,19.9C151.1-35.7,158.4-35.3,164.6-39.3"/>
	</g>
	<g id="g72" transform="matrix(2.953631,0,0,-2.953631,288.71569,147.66917)">
		<path id="path74" class="st0" d="M191.2-58.2h-6.7v26.6c5.4,1,5.5,1,6.9-2.8c3.1,3.4,7,4.7,11.5,4.2c3.8-0.4,7.1-3.2,7.2-6.8
			c0.3-7,0.1-14,0.1-21.2h-6.8c0,4.2,0,8.4,0,12.5c0,1.5,0.3,3-0.1,4.4c-0.5,1.6-1.2,4-2.4,4.4c-1.7,0.6-4.9,0.3-5.8-0.8
			c-1.9-2.5-3.2-5.7-3.8-8.7C190.7-50.2,191.2-54.1,191.2-58.2"/>
	</g>
	<g id="g76" transform="matrix(2.953631,0,0,-2.953631,261.92832,108.77163)">
		<path id="path78" class="st0" d="M181.7-44.4h6.9v-26.8c-2.7-0.4-5.9-2.1-6.9,2.8c-1.1-0.9-2-1.7-3-2.3c-3.6-2.2-7.4-2.8-11.3-0.9
			c-3.8,1.9-4.3,5.3-4.3,9.1c0.1,5.9,0,11.9,0,18h6.9c0-5,0-10,0-15c0-2.9-0.2-6.1,3.7-6.9c3-0.6,6.4,1.6,7.2,5.5
			c0.7,3.4,0.6,7.1,0.8,10.6C181.7-48.4,181.7-46.6,181.7-44.4"/>
	</g>
	<g id="g80" transform="matrix(2.953631,0,0,-2.953631,351.14452,138.08582)">
		<path id="path82" class="st0" d="M213.4-54.8c0.9-1.1,2-2.3,2.9-3.5c-4.2-5.1-14.3-5.2-19.9-0.5c-5.7,4.9-6.2,14.8-1,20.5
			c5.3,5.8,15.3,6.3,21.3,0.7c-1-1.3-2-2.6-3-3.8c-7.6,2.6-10.5,2.2-13.1-1.4c-2.1-2.9-2.1-7.2,0-10.1
			C203.1-56.4,206.7-57,213.4-54.8"/>
	</g>
	<g id="g67">
		<g id="g84" transform="matrix(2.953631,0,0,-2.953631,-142.78263,56.357672)">
			<path id="path86" class="st0" d="M37.6-25.7l16.6-27.6l16.6-27.6H37.6H4.4L21-53.3L37.6-25.7z"/>
		</g>
		<g id="g88" transform="matrix(2.953631,0,0,-2.953631,-142.78263,189.01587)">
			<path id="path90" class="st1" d="M37.6-72.9L21-55.6L4.4-38.2h33.2h33.2L54.3-55.6L37.6-72.9z"/>
		</g>
		<g id="g92" transform="matrix(2.953631,0,0,-2.953631,-205.59927,70.316827)">
			<path id="path94" class="st2" d="M15.3-30.7l40.3,10.2l-16-26.5l-16-26.5L15.3-30.7z"/>
		</g>
		<g id="g96" transform="matrix(2.953631,0,0,-2.953631,-208.49088,152.82356)">
			<path id="path98" class="st3" d="M14.3-60.1l0.3,54.1l8.1-41.7L14.3-60.1z"/>
		</g>
		<g id="g100" transform="matrix(2.953631,0,0,-2.953631,-144.30257,51.977733)">
			<path id="path102" class="st4" d="M37.1-24.2L-4.5-34.4l41.6,20.9V-24.2z"/>
		</g>
		<g id="g104" transform="matrix(2.953631,0,0,-2.953631,-141.61299,51.977733)">
			<path id="path106" class="st5" d="M38.1-24.2l41.6-10.3L38.1-13.5V-24.2z"/>
		</g>
		<g id="g108" transform="matrix(2.953631,0,0,-2.953631,-194.0934,140.62831)">
			<path id="path110" class="st6" d="M19.4-55.7l32-32.4L10.8-65.8L19.4-55.7z"/>
		</g>
		<g id="g112" transform="matrix(2.953631,0,0,-2.953631,-91.691016,140.62831)">
			<path id="path114" class="st7" d="M55.8-55.7l-32-32.4l40.6,22.3L55.8-55.7z"/>
		</g>
		<g id="g116" transform="matrix(2.953631,0,0,-2.953631,-77.619622,152.82356)">
			<path id="path118" class="st0" d="M60.8-60.1L60.5-5.9l-8.1-41.7L60.8-60.1z"/>
		</g>
		<g id="g120" transform="matrix(2.953631,0,0,-2.953631,-80.681356,70.316827)">
			<path id="path122" class="st0" d="M59.7-30.7L19.4-20.5l16-26.5l16-26.5L59.7-30.7z"/>
		</g>
	</g>
</g>
</svg>
