<svg width="154" height="35" viewBox="0 0 154 35" fill="none" xmlns="http://www.w3.org/2000/svg">
<path fill-rule="evenodd" clip-rule="evenodd" d="M48.8068 23.4701H45.4022V9.30635L45.8116 9.28486C46.5874 9.26337 47.3631 9.24188 48.1388 9.22038C48.5483 9.19889 48.9792 9.1774 49.4102 9.1774C51.2633 9.1774 52.9872 9.67173 54.3447 11.0258C55.6592 12.3368 56.1763 14.0133 56.1763 15.8401C56.1763 20.7405 53.7845 23.4701 48.8068 23.4701ZM28.4653 0.365376L32.4948 2.68659L36.0718 4.74989L28.0343 8.79053L19.7598 4.64243L23.1644 2.68659L27.1724 0.365376L27.8188 0L28.4653 0.365376ZM13.8771 20.2676L16.6568 18.6772L17.3033 18.3118L17.9497 18.6772L20.7294 20.2676L22.9058 21.5357L17.174 24.3943L11.5714 21.6002L13.8771 20.2676ZM24.1556 23.7925V26.1996V29.4021V30.1328L23.5092 30.5197L20.7294 32.1101L17.9497 33.7221L17.3033 34.0875L16.6568 33.7221L13.8771 32.1101L11.0974 30.5197L10.4509 30.1328V29.4021V26.1996V23.9429L16.5706 26.9949C16.5922 27.0164 16.5922 27.0164 16.6137 27.0164C16.6353 27.0379 16.6353 27.0379 16.6353 27.0379H16.6568H16.6784C16.8077 27.1023 16.98 27.1453 17.1309 27.1453H17.1524H17.174C17.1955 27.1453 17.1955 27.1453 17.2171 27.1453C17.3679 27.1453 17.5187 27.1023 17.6696 27.0379H17.6911L17.7127 27.0164C17.7342 27.0164 17.7342 27.0164 17.7558 26.9949L24.1556 23.7925ZM4.00798 4.53497L7.36951 2.60062L8.01596 2.23524L8.6624 2.60062L12.0239 4.53497L14.7821 6.12543L7.84357 9.58576L1.09896 6.2114L4.00798 4.53497ZM16.0319 8.38217V11.4556V15.3243V16.0766L15.3855 16.4419L12.0239 18.3763L8.6624 20.3106L8.01596 20.6975L7.36951 20.3106L4.00798 18.3763L0.667996 16.4419L0 16.0766V15.3243V11.4556V8.55411L7.26177 12.1864C7.28332 12.2079 7.28332 12.2079 7.30486 12.2079L7.32641 12.2294H7.34796C7.4988 12.2938 7.64964 12.3368 7.80047 12.3368C7.82202 12.3368 7.82202 12.3368 7.84357 12.3368H7.86512H7.88667C8.0375 12.3368 8.20989 12.2938 8.33918 12.2294H8.36073H8.38228L8.40383 12.2079C8.42537 12.2079 8.42537 12.2079 8.44692 12.1864L16.0319 8.38217ZM37.1492 7.11409V10.7464V15.3673V16.0981L36.5028 16.4849L32.4948 18.8061L28.4653 21.1059L27.8188 21.4712L27.1724 21.1059L23.1644 18.8061L19.1564 16.4849L18.4884 16.0981V15.3673V10.7464V6.92066L27.4309 11.3911C27.4525 11.3911 27.4525 11.4126 27.474 11.4126C27.4956 11.4126 27.4956 11.4126 27.4956 11.4126L27.5171 11.4341H27.5387C27.668 11.4986 27.8404 11.5201 27.9912 11.5416H28.0128H28.0343C28.0558 11.5416 28.0558 11.5416 28.0774 11.5416C28.2282 11.5201 28.3791 11.4986 28.5299 11.4341L28.5515 11.4126H28.573C28.5946 11.4126 28.5946 11.3911 28.6161 11.3911L37.1492 7.11409ZM67.0798 13.9273L65.6791 16.399L65.2913 16.0551C64.7741 15.5607 64.1061 15.4103 63.4166 15.4103C62.727 15.4103 62.1237 15.6037 61.6711 16.141C61.154 16.7213 61.0247 17.5166 61.0247 18.2473C61.0247 20.0097 61.7358 20.9339 63.5458 20.9339C64.3 20.9339 64.9465 20.676 65.5067 20.1817L65.9162 19.8163L67.1444 22.4384L66.8427 22.6318C66.2825 22.9972 65.6145 23.3411 64.968 23.4916C64.3647 23.6205 63.7398 23.6635 63.1149 23.6635C61.6496 23.6635 60.2921 23.2766 59.2362 22.2235C58.1803 21.1488 57.814 19.7303 57.814 18.2473C57.814 16.7213 58.2665 15.3243 59.3655 14.2282C60.5075 13.0891 61.9944 12.6807 63.5674 12.6807C64.7525 12.6807 65.8515 13.0031 66.7996 13.7124L67.0798 13.9273ZM71.7988 19.279C71.885 19.7088 72.0574 20.0742 72.4022 20.3751C72.8762 20.805 73.5011 20.9339 74.126 20.9339C74.8802 20.9339 75.6775 20.7835 76.2162 20.2462L76.6256 19.8378L77.9185 22.3739L77.66 22.5889C76.6041 23.4486 75.1173 23.6635 73.7813 23.6635C72.3375 23.6635 71.0015 23.2766 69.9457 22.2235C68.8898 21.1703 68.5235 19.7303 68.5235 18.2688C68.5235 16.7428 68.976 15.3458 70.075 14.2282C71.1093 13.1965 72.3591 12.6807 73.8028 12.6807C75.225 12.6807 76.5179 13.0676 77.5307 14.0777C78.5003 15.0234 78.9313 16.227 78.9313 17.6025C78.9313 18.0324 78.8236 18.5482 78.7374 18.9566L78.6512 19.279H71.7988ZM84.1891 16.141V23.4701H81.0646V12.8741H83.3918L83.6719 13.4974C84.4046 12.8956 85.3311 12.6807 86.3008 12.6807C87.4644 12.6807 88.5418 13.0031 89.3607 13.8628C90.2011 14.7225 90.4812 15.8831 90.4812 17.0652V23.4701H87.3567V17.4091C87.3567 16.9148 87.3136 16.227 86.9688 15.8401C86.6887 15.4963 86.1715 15.4103 85.7406 15.4103C85.4173 15.4103 85.1157 15.5178 84.8355 15.6467C84.5985 15.7757 84.3615 15.9261 84.1891 16.141ZM93.6057 15.5178H92.4421V12.8741H93.6057V11.0043L96.7086 9.86516V12.8741H99.4022V15.5178H96.7086V19.4079C96.7086 19.7303 96.7302 20.3536 96.9457 20.633C97.1396 20.8694 97.5059 20.9124 97.786 20.9124C98.2601 20.9124 98.7126 20.7835 99.122 20.5256L99.7469 20.1172V23.2551L99.4668 23.3626C98.7342 23.6205 97.8291 23.6635 97.0534 23.6635C96.1053 23.6635 95.1787 23.4056 94.5107 22.6963C93.8212 21.9871 93.6057 21.0199 93.6057 20.0527V15.5178ZM104.94 13.2825C105.565 12.8741 106.276 12.6807 107.073 12.6807C107.741 12.6807 108.496 12.7667 109.077 13.0891L109.401 13.2825L108.065 16.0121L107.655 15.7542C107.332 15.5178 106.966 15.4103 106.556 15.4103C106.104 15.4103 105.737 15.6467 105.457 15.9906C105.091 16.4204 104.94 16.9363 104.94 17.4951V23.4701H101.816V12.8741H104.94V13.2825ZM116.145 22.8038C115.908 23.0187 115.606 23.1692 115.305 23.2981C114.745 23.5345 114.163 23.6635 113.538 23.6635C112.547 23.6635 111.555 23.4271 110.78 22.7608C110.025 22.0945 109.724 21.1918 109.724 20.2032C109.724 18.9781 110.176 17.9679 111.168 17.2157C112.266 16.399 113.71 16.184 115.046 16.184C115.197 16.184 115.348 16.184 115.499 16.2055C115.477 16.0981 115.413 15.9906 115.348 15.9046C115.003 15.4748 114.314 15.4103 113.818 15.4103C113.15 15.4103 112.439 15.4963 111.836 15.7972L111.383 16.0336L110.672 13.433L110.974 13.2825C111.9 12.8312 112.934 12.6807 113.969 12.6807C115.219 12.6807 116.619 12.9171 117.546 13.8198C118.559 14.8085 118.709 16.6354 118.709 17.9679V20.0527C118.709 20.6115 118.753 21.8151 119.313 22.159L119.636 22.3739L119.442 22.7178C119.248 23.0617 118.968 23.3841 118.58 23.513C118.278 23.6205 117.977 23.6635 117.654 23.6635C117.201 23.6635 116.813 23.4916 116.49 23.1692C116.361 23.0617 116.253 22.9327 116.145 22.8038ZM124.829 20.5256H130.863V23.4701H121.618V9.28486H124.829V20.5256ZM138.749 22.8038C138.491 23.0187 138.211 23.1692 137.909 23.2981C137.349 23.5345 136.745 23.6635 136.142 23.6635C135.129 23.6635 134.138 23.4271 133.384 22.7608C132.63 22.0945 132.328 21.1918 132.328 20.2032C132.328 18.9781 132.78 17.9679 133.772 17.2157C134.849 16.399 136.314 16.184 137.65 16.184C137.801 16.184 137.952 16.184 138.103 16.2055C138.06 16.0981 138.017 15.9906 137.952 15.9046C137.607 15.4748 136.918 15.4103 136.401 15.4103C135.754 15.4103 135.043 15.4963 134.44 15.7972L133.987 16.0336L133.254 13.433L133.578 13.2825C134.504 12.8312 135.539 12.6807 136.573 12.6807C137.823 12.6807 139.202 12.9171 140.15 13.8198C141.163 14.8085 141.314 16.6354 141.314 17.9679V20.0527C141.314 20.6115 141.357 21.8151 141.895 22.159L142.24 22.3739L142.046 22.7178C141.852 23.0617 141.572 23.3841 141.184 23.513C140.883 23.6205 140.559 23.6635 140.258 23.6635C139.805 23.6635 139.417 23.4916 139.073 23.1692C138.965 23.0617 138.835 22.9327 138.749 22.8038ZM146.205 23.0832L145.817 23.6635H143.899V9.30635L147.002 8.5756V12.9816C147.498 12.7882 148.037 12.6807 148.597 12.6807C150.041 12.6807 151.333 13.1106 152.346 14.1637C153.359 15.1954 153.79 16.5064 153.79 17.9249C153.79 19.4509 153.424 20.9554 152.346 22.0945C151.312 23.2122 149.954 23.6635 148.446 23.6635C147.649 23.6635 146.895 23.4916 146.205 23.0832ZM48.6129 12.1649V20.5041C48.893 20.5256 49.1732 20.5256 49.4533 20.5256C50.466 20.5256 51.3064 20.2032 51.9313 19.3864C52.664 18.4408 52.8579 17.1512 52.8579 15.9906C52.8579 13.5189 51.8667 12.1219 49.2809 12.1219C49.0654 12.1219 48.8499 12.1434 48.6129 12.1649ZM71.9712 16.7428H75.7206C75.4836 15.8401 74.9018 15.4103 73.8459 15.4103C72.8332 15.4103 72.2729 15.9046 71.9712 16.7428ZM115.606 18.7846C115.434 18.7632 115.283 18.7417 115.132 18.7417C114.486 18.7417 113.43 18.8061 113.021 19.4294C112.891 19.6229 112.848 19.8593 112.848 20.1172C112.848 20.848 113.279 21.0199 113.947 21.0199C115.111 21.0199 115.606 20.5041 115.606 19.365V18.7846ZM138.189 18.7846C138.038 18.7632 137.866 18.7417 137.737 18.7417C137.09 18.7417 136.034 18.8061 135.625 19.4294C135.496 19.6229 135.452 19.8593 135.452 20.1172C135.452 20.848 135.883 21.0199 136.551 21.0199C137.693 21.0199 138.189 20.5041 138.189 19.365V18.7846ZM147.002 15.7757V20.5471C147.261 20.7835 147.584 20.8909 147.95 20.8909C148.64 20.8909 149.523 20.7835 149.998 20.2462C150.493 19.6873 150.579 18.7202 150.579 18.0109C150.579 16.313 149.868 15.4533 148.144 15.4533C147.735 15.4533 147.326 15.5178 147.002 15.7757Z" fill="white"/>
</svg>
