<?xml version="1.0" encoding="UTF-8"?><svg xmlns="http://www.w3.org/2000/svg" viewBox="0 0 274 64"><defs><style>.e{fill:#fff;}</style></defs><g id="a"/><g id="b"><g id="c"><g id="d"><path class="e" d="M43.09,0h2.11c2.93,1.84,3.63,5.32,3.95,8.51,1.6-.73,3.65-2.86,5.25-.98,1.85,2.93,.24,6.44-.81,9.36,9.03,2.1,17.56,6.95,23.18,14.43,7.17,9.24,9.53,21.22,9.56,32.68h-11.78c-.09-8.73-1.95-17.95-7.85-24.7-6.47-7.68-17.01-10.71-26.77-10.04-7.82,.32-15.65,3.81-20.39,10.17-5.42,6.98-7.08,15.97-7.74,24.57H0v-1.28c1.05-11.95,3.87-24.45,11.9-33.76,5.63-6.73,13.9-10.8,22.48-12.21-1.3-2.9-3.15-6.39-1.17-9.43,2.22-1.55,4.23,.58,5.96,1.8,.32-3.36,.9-7.09,3.92-9.12Z"/><path class="e" d="M97.1,21.33c6.17,.08,12.35-.15,18.52,.1,7.34,.35,14.4,4.69,17.76,11.26,3.97,7.33,3.11,16.98-2.22,23.41-3.77,4.78-9.7,7.46-15.7,7.9h-18.37c0-14.22-.02-28.45,.01-42.67m10.46,9.02c.03,8.22,0,16.45,.02,24.68,4.2-.16,8.97,.83,12.58-1.9,6.67-4.88,6.45-16.31-.26-21.07-3.59-2.57-8.22-1.63-12.34-1.71Z"/><path class="e" d="M187.8,21.27c6.21,.2,12.42-.13,18.63,.18,7.12,.39,13.95,4.54,17.36,10.84,4,7.11,3.49,16.53-1.45,23.07-3.67,5.13-9.76,8.07-15.96,8.64h-18.68c.06-14.24-.12-28.49,.1-42.73m10.34,9.32v24.8c4.15-.13,8.88,.81,12.45-1.89,6.69-5.03,6.39-16.72-.58-21.38-3.51-2.29-7.92-1.38-11.87-1.53Z"/><path class="e" d="M148.66,25.7c8.54-6.55,21.92-5.52,29.13,2.57,6.57,7,7.35,18.52,1.89,26.39-3.73,5.69-10.36,8.99-17.07,9.34h-1.88c-7.76-.47-15.32-5.1-18.47-12.34-4.2-8.75-1.48-20.22,6.4-25.96m8.74,5.73c-9.74,4.03-8.88,20.87,1.61,23.32,7.92,2.22,14.8-6.19,13.3-13.7-.34-7.08-8.21-12.77-14.91-9.62Z"/><path class="e" d="M241.97,24c7.7-4.21,17.93-3.26,24.6,2.5,4.45,3.71,6.94,9.32,7.43,15.03v2.56c-.63,10.64-9.87,19.57-20.51,19.91h-2.58c-4.58-.57-9.18-2.1-12.68-5.21-6.25-5.26-8.81-14.3-6.48-22.09,1.52-5.38,5.25-10.1,10.22-12.7m6.3,7.32c-9.75,3.75-9.35,20.25,.76,23.27,7.65,2.66,14.96-5.11,13.97-12.59,.15-7.31-7.66-13.76-14.73-10.68Z"/><path class="e" d="M31.37,41.35c1.63-1.66,4.82-.55,5.14,1.73,.27,3.46,.46,7.03-.16,10.46-1.25,3.25-6.45,1.89-6.09-1.52,.28-3.47-1.12-7.7,1.11-10.67Z"/><path class="e" d="M51.16,41.1c2.01-1.58,5.15,.41,4.87,2.88,.07,3.24,.42,6.58-.35,9.75-1.44,3.06-6.43,1.57-6-1.78,.32-3.51-1.34-8.17,1.48-10.85Z"/></g></g></g></svg>