<?xml version="1.0" encoding="utf-8"?>
<!-- Generator: Adobe Illustrator 26.1.0, SVG Export Plug-In . SVG Version: 6.00 Build 0)  -->
<svg version="1.1" id="Layer_1" xmlns="http://www.w3.org/2000/svg" xmlns:xlink="http://www.w3.org/1999/xlink" x="0px" y="0px"
	 viewBox="0 0 1426 312.3" style="enable-background:new 0 0 1426 312.3;" xml:space="preserve">
<style type="text/css">
	.st0{fill:#FFFFFF;}
	.st1{fill:url(#SVGID_1_);}
	.st2{fill:url(#SVGID_00000042725167987026283600000013736025451958072229_);}
	.st3{fill:url(#SVGID_00000082338243242702486350000018181921314780861074_);}
	.st4{fill:url(#SVGID_00000064354097818838741020000004025326565973259437_);}
	.st5{fill:url(#SVGID_00000173126723824034318380000009469936849193546396_);}
</style>
<path class="st0" d="M443,91h58.6c14,0,26.4,2.7,37.1,8c10.3,5,19,12.8,25.1,22.6c6,9.7,8.9,21,8.9,33.9c0,12.9-3,24.2-8.9,33.9
	c-6,9.8-14.7,17.6-25.1,22.6c-10.8,5.3-23.1,8-37.1,8H443V91z M500.1,195.5c12.9,0,23.2-3.6,30.9-10.8c7.7-7.2,11.5-16.9,11.5-29.2
	c0-12.2-3.8-22-11.5-29.2c-7.7-7.2-18-10.8-30.9-10.8h-27.3v80L500.1,195.5z"/>
<path class="st0" d="M826.2,102.8c9.3,7.9,14,18.7,14,32.4c0,13.8-4.7,24.5-14,32.3c-9.3,7.8-22.2,11.7-38.7,11.7h-34.7V220h-13.6
	V91h48.3C803.9,91,816.8,94.9,826.2,102.8z M816.4,158.9c6.8-5.6,10.1-13.5,10.1-23.7c0-10.5-3.4-18.5-10.1-24.1s-16.5-8.3-29.3-8.4
	h-34.3v64.5h34.3C799.9,167.3,809.7,164.5,816.4,158.9L816.4,158.9z"/>
<path class="st0" d="M1108.2,185.6h-71.9l-15.5,34.5h-14.2l59-129h13.4l59,129h-14.4L1108.2,185.6z M1103.3,174.5l-31-69.3l-31,69.3
	H1103.3z"/>
<path class="st0" d="M1304.3,91h52.5c13.6,0,25.7,2.7,36.1,8.2c10.1,5.2,18.6,13.1,24.3,22.9c5.7,10.2,8.7,21.7,8.7,33.4
	c0,11.7-3,23.2-8.7,33.4c-5.8,9.8-14.2,17.7-24.3,22.9c-10.4,5.5-22.5,8.2-36.1,8.2h-52.5V91z M1356.2,208.2
	c11.3,0,21.2-2.2,29.7-6.7c8.2-4.2,15-10.7,19.7-18.6c4.6-8.4,7-17.8,7-27.4c0-9.6-2.4-19-7-27.4c-4.7-7.9-11.5-14.4-19.7-18.6
	c-8.5-4.5-18.4-6.7-29.7-6.7H1318v105.4H1356.2z"/>
<linearGradient id="SVGID_1_" gradientUnits="userSpaceOnUse" x1="65.1997" y1="197.0547" x2="173.2487" y2="-15.5193" gradientTransform="matrix(1 0 0 -1 0 311.8898)">
	<stop  offset="0" style="stop-color:#4C6FFF"/>
	<stop  offset="1" style="stop-color:#00C7FB"/>
</linearGradient>
<path class="st1" d="M0,75.9v155.9l103.9,60v-12.3l-93.2-53.8V82.1l120.8-69.8V0L0,75.9z"/>
<linearGradient id="SVGID_00000052098407154794717350000016872336846133778846_" gradientUnits="userSpaceOnUse" x1="56718.1875" y1="-152992.0312" x2="95006.1875" y2="-256632.0312" gradientTransform="matrix(1 0 0 -1 0 311.8898)">
	<stop  offset="0" style="stop-color:#4C6FFF"/>
	<stop  offset="1" style="stop-color:#00C7FB"/>
</linearGradient>
<path style="fill:url(#SVGID_00000052098407154794717350000016872336846133778846_);" d="M235.7,92.2L135,34.1L31.3,94v88.7h10.6
	v-82.5L135,46.4l79.4,45.8H235.7z"/>
<linearGradient id="SVGID_00000181785580698018645610000013600762338342265732_" gradientUnits="userSpaceOnUse" x1="56103.5742" y1="-152223.8906" x2="93961.5781" y2="-255288.8906" gradientTransform="matrix(1 0 0 -1 0 311.8898)">
	<stop  offset="0" style="stop-color:#4C6FFF"/>
	<stop  offset="1" style="stop-color:#00C7FB"/>
</linearGradient>
<path style="fill:url(#SVGID_00000181785580698018645610000013600762338342265732_);" d="M228.1,126.1v81.5L135,261.3l-79.1-45.7
	H34.6l100.4,58l103.7-59.9v-87.6H228.1z"/>
<linearGradient id="SVGID_00000147188352805565847950000009321902777458451612_" gradientUnits="userSpaceOnUse" x1="110250.8438" y1="-89299.0234" x2="184765.3438" y2="-149839.0156" gradientTransform="matrix(1 0 0 -1 0 311.8898)">
	<stop  offset="0" style="stop-color:#4C6FFF"/>
	<stop  offset="1" style="stop-color:#4C6FFF"/>
</linearGradient>
<path style="fill:url(#SVGID_00000147188352805565847950000009321902777458451612_);" d="M122.4,232.2L61,196.5v-85.4l68.7-38.8
	V40.2h10.6v38.3l-68.7,38.8v73.1l40.1,23.3l0-70.8l10.6,0L122.4,232.2z"/>
<linearGradient id="SVGID_00000000184357405838742650000009642970653245903798_" gradientUnits="userSpaceOnUse" x1="174220.7969" y1="-159610.4688" x2="291962.8125" y2="-267682.4688" gradientTransform="matrix(1 0 0 -1 0 311.8898)">
	<stop  offset="0" style="stop-color:#4C6FFF"/>
	<stop  offset="1" style="stop-color:#00C7FB"/>
</linearGradient>
<path style="fill:url(#SVGID_00000000184357405838742650000009642970653245903798_);" d="M163.2,14.2v12.3l96.2,55.5v143.6
	l-117.6,68.1v-61.6l67.2-35.4v-85.5l-61.6-39.1v95.8H158V91.1l40.3,26.1v73.1l-67.2,35.4v72.1l-0.2,14.5L270,231.8V75.9L163.2,14.2z
	"/>
</svg>
