<svg width="159" height="42" viewBox="0 0 159 42" fill="none" xmlns="http://www.w3.org/2000/svg">
<path d="M20.7703 42C32.2414 42 41.5405 32.598 41.5405 21C41.5405 9.40202 32.2414 0 20.7703 0C9.29917 0 0 9.40202 0 21C0 32.598 9.29917 42 20.7703 42Z" fill="#D3AE36"/>
<path d="M17.2667 19.5955L30.4667 11.9713V6.21971L17.2667 13.8439V19.5955Z" fill="black"/>
<path d="M11.4 31.6337L28 21.9363V16.1847L11.4 25.8152V31.6337Z" fill="black"/>
<path d="M17.2667 35.7802L17.5334 22.4713L22.6001 19.5955L22.2667 32.9713" fill="black"/>
<path d="M22.4 27.2197L22.4667 25.2133L17.5333 28.0222L22.4 27.2197Z" fill="black"/>
<path d="M50.6666 23.5414V11.9713H57.2666V13.6433H52.3333V16.9204H56.4666V18.5923H52.3333V23.5414H50.6666Z" fill="#D3AE36"/>
<path d="M65.9333 21.0669H60.7333L59.5999 23.5414H57.7999L63.3333 11.7038L68.7999 23.5414H66.9999L65.9333 21.0669ZM65.1999 19.3949L63.3333 15.3822L61.5333 19.3949H65.1999Z" fill="#D3AE36"/>
<path d="M72.2666 18.1911V23.5414H70.3333L70.3999 11.7038L76.0666 20.465L81.7332 11.8376L81.6666 23.5414H79.7999L79.8666 18.1242L76.1332 23.8089L72.2666 18.1911Z" fill="#D3AE36"/>
<path d="M96.2666 20.7994L97.2666 22.0701L96.9333 22.4045C95.9999 23.2739 94.5999 23.7421 93.3333 23.7421C89.9999 23.7421 87.3333 21.0669 87.3333 17.7898C87.3333 14.5128 89.9999 11.8376 93.3333 11.8376C94.5999 11.8376 95.9999 12.3058 96.9333 13.1752L97.3999 13.5765L96.1999 14.7134C95.3999 13.9109 94.5333 13.4427 93.1999 13.4427C90.8666 13.4427 88.9332 15.3822 88.9332 17.723C88.9332 20.0637 90.8666 22.0032 93.1999 22.0032C94.5333 22.0701 95.4666 21.6019 96.2666 20.7994Z" fill="#D3AE36"/>
<path d="M100.667 13.6433V16.9204H105.533V18.5923H100.667V21.8694H105.4L106.333 23.5414H99V11.9713H106.333V13.6433H100.667Z" fill="#D3AE36"/>
<path d="M110.267 16.6529V23.5414H108.267V11.7038L115.467 19.1943V11.9713H117.333V23.8089L110.267 16.6529Z" fill="#D3AE36"/>
<path d="M128.667 11.9713V13.6433H124.667V23.5414H123V13.6433H118.933V11.9713H128.667Z" fill="#D3AE36"/>
<path d="M136.8 23.5414L133.933 19.5286H132.133V23.5414H130.467V11.9713H134.067C137.067 11.9713 138.467 13.5095 138.467 15.6497C138.467 17.4554 137.467 18.9267 135.8 19.3949L138.8 23.5414H136.8ZM132.133 17.9235H134.6C135.8 17.9235 136.8 17.3216 136.8 15.7834C136.8 14.2452 135.8 13.6433 134.6 13.6433H132.133V17.9235Z" fill="#D3AE36"/>
<path d="M147.467 21.535H142.667L141.8 23.5414H139.6L145.067 11.7038L150.533 23.5414H148.333L147.467 21.535ZM147.067 19.8631L145 15.3153L142.933 19.8631H147.067Z" fill="#D3AE36"/>
<path d="M157.867 21.9363L159 23.6083H152V11.9713H153.667V21.8694H157.867V21.9363Z" fill="#D3AE36"/>
<path d="M54.9344 31.0987H54.401L53.4677 27.621L52.5344 31.0987H52.001L50.801 26.8853H51.2677L52.2677 30.5636L53.2677 26.8853H53.6677L54.6677 30.5636L55.6677 26.8853H56.0677L54.9344 31.0987Z" fill="#D3AE36"/>
<path d="M59.6665 31.0987V29.0923H57.4665V31.0987H57.0665V26.8853H57.4665V28.7579H59.6665V26.8853H60.0665V31.0987H59.6665Z" fill="#D3AE36"/>
<path d="M61.3333 31.0987V26.8853H63.6666V27.2866H61.7999V28.7579H63.5999V29.1592H61.7999V30.7643H63.6666V31.1656H61.3333V31.0987Z" fill="#D3AE36"/>
<path d="M67.3332 29.1592C67.0666 29.4267 66.7999 29.5605 66.4666 29.5605L67.6666 31.1656H67.1332L65.6666 29.2261H66.1332C66.3332 29.2261 66.4666 29.2261 66.5999 29.1592C67.0666 29.0255 67.2666 28.6911 67.2666 28.2898C67.2666 27.8885 67.1332 27.621 66.7999 27.4872C66.6666 27.4204 66.5332 27.3535 66.3999 27.3535C66.2666 27.3535 66.1332 27.3535 65.9999 27.3535H65.2666V31.2325H64.8666V27.0191H65.9332C65.9999 27.0191 66.1332 27.0191 66.1999 27.0191C66.2666 27.0191 66.3999 27.0191 66.4666 27.0191C66.6666 27.0191 66.8666 27.086 66.9999 27.1528C67.5332 27.4204 67.7332 27.8216 67.7332 28.3567C67.6666 28.6242 67.5999 28.8917 67.3332 29.1592Z" fill="#D3AE36"/>
<path d="M68.7333 31.0987V26.8853H71.0666V27.2866H69.1999V28.7579H71V29.1592H69.1999V30.7643H71.0666V31.1656H68.7333V31.0987Z" fill="#D3AE36"/>
<path d="M74.6666 27.2866V28.8248H76.3333V29.2261H74.6666V31.1656H74.2666V26.9522H76.3999V27.3535H74.6666V27.2866Z" fill="#D3AE36"/>
<path d="M80.3999 31.0987L79.7999 29.6942H77.8666L77.2666 31.0987H76.7999L78.5999 26.8853H79.0666L80.8666 31.0987H80.3999ZM78.7999 27.3535L77.9999 29.2929H79.6666L78.7999 27.3535Z" fill="#D3AE36"/>
<path d="M84.7333 31.0987L82.1999 27.3535V31.0987H81.7999V26.8853H82.3999L84.7333 30.4299V26.8853H85.1333V31.0987H84.7333Z" fill="#D3AE36"/>
<path d="M88.3332 30.8312C88.0665 31.0987 87.7998 31.1656 87.4665 31.1656C87.0665 31.1656 86.7998 31.0318 86.5332 30.8312C86.2665 30.6306 86.1332 30.2962 86.1332 29.8949H86.5332C86.5332 30.4968 86.8665 30.7643 87.3999 30.7643C87.6665 30.7643 87.8665 30.6974 87.9998 30.4968C88.1998 30.363 88.2665 30.1624 88.2665 29.8949C88.2665 29.6274 88.1998 29.4267 87.9998 29.293C87.9332 29.2261 87.7998 29.1592 87.6665 29.0923C87.5998 29.0255 87.4665 29.0255 87.3332 28.9586C87.1332 28.8917 86.9998 28.8248 86.9332 28.8248C86.7998 28.7579 86.6665 28.6911 86.5998 28.6242C86.3998 28.4235 86.2665 28.156 86.2665 27.8216C86.2665 27.4872 86.3998 27.2197 86.5998 27.0191C86.7998 26.8185 87.1332 26.6847 87.4665 26.6847C87.7998 26.6847 88.0665 26.8185 88.2665 27.0191C88.4665 27.2197 88.5998 27.4872 88.5998 27.8216H88.1998C88.1998 27.621 88.1332 27.4204 87.9998 27.2866C87.8665 27.1528 87.6665 27.086 87.4665 27.086C87.2665 27.086 87.0665 27.1528 86.9332 27.2866C86.7998 27.4204 86.7332 27.621 86.7332 27.8216C86.7332 28.0892 86.8665 28.2229 87.0665 28.3567C87.1332 28.4235 87.2665 28.4235 87.3999 28.4904L87.7332 28.6242C88.0665 28.6911 88.3332 28.8917 88.4665 29.0255C88.6665 29.2261 88.7332 29.4936 88.7332 29.828C88.7332 30.2962 88.5998 30.6306 88.3332 30.8312Z" fill="#D3AE36"/>
<path d="M93.9333 30.8981C93.7999 30.9649 93.5999 31.0318 93.4666 31.0987C93.3333 31.0987 93.1333 31.1656 92.9333 31.1656H91.7333V26.9522H92.7999C93.1333 26.9522 93.3333 27.0191 93.5999 27.086C93.8666 27.2197 93.9999 27.3535 94.1333 27.621C94.1999 27.7547 94.1999 27.8885 94.1999 28.0891C94.1999 28.2898 94.1333 28.4235 94.0666 28.5573C93.9999 28.691 93.8666 28.8248 93.7333 28.8917C94.1999 29.0923 94.4666 29.4267 94.4666 29.9617C94.3999 30.363 94.2666 30.6974 93.9333 30.8981ZM93.5999 27.5541C93.5333 27.4203 93.3999 27.3535 93.1999 27.3535C93.1333 27.3535 93.0666 27.3535 92.9999 27.2866C92.9333 27.2866 92.8666 27.2866 92.7999 27.2866H92.2666V28.7579H92.9999C93.0666 28.7579 93.1333 28.7579 93.1999 28.7579C93.3333 28.7579 93.4666 28.691 93.5333 28.6242C93.7333 28.4904 93.8666 28.2898 93.8666 28.0223C93.7333 27.8216 93.7333 27.6879 93.5999 27.5541ZM93.5333 29.1592C93.3999 29.0923 93.2666 29.0923 93.1333 29.0923C93.0666 29.0923 92.9999 29.0923 92.9333 29.0923H92.1999V30.7643H92.9999H93.1999C93.3333 30.7643 93.4666 30.6974 93.5999 30.6974C93.8666 30.5637 94.0666 30.363 94.0666 29.9617C93.9999 29.5605 93.8666 29.293 93.5333 29.1592Z" fill="#D3AE36"/>
<path d="M95.3999 31.0987V26.8853H97.7332V27.2866H95.8666V28.7579H97.6666V29.1592H95.8666V30.7643H97.7332V31.1656H95.3999V31.0987Z" fill="#D3AE36"/>
<path d="M102.933 30.0286C102.533 30.8312 101.867 31.2324 101 31.2324C100.4 31.2324 99.8666 31.0318 99.4666 30.5636C98.9999 30.1624 98.7999 29.6273 98.7999 29.0254C98.7999 28.4235 98.9999 27.8885 99.4666 27.4872C99.8666 27.0859 100.4 26.8853 101 26.8853C101.667 26.8853 102.2 27.1528 102.667 27.621C102.8 27.7547 102.867 27.8885 102.933 28.0222H102.467C102.133 27.4872 101.6 27.2197 101 27.2197C100.533 27.2197 100.133 27.4203 99.7333 27.7547C99.3999 28.0891 99.1999 28.5573 99.1999 29.0254C99.1999 29.4936 99.3999 29.8949 99.7333 30.2961C100.067 30.6305 100.533 30.8312 101 30.8312C101.267 30.8312 101.6 30.7643 101.867 30.6305C102.133 30.4968 102.333 30.2961 102.533 30.0286H102.933Z" fill="#D3AE36"/>
<path d="M107.667 30.5637C107.2 30.965 106.733 31.2325 106.067 31.2325C105.467 31.2325 104.933 31.0319 104.533 30.6306C104.067 30.2293 103.867 29.6943 103.867 29.0924C103.867 28.4905 104.067 27.9554 104.533 27.4873C105 27.086 105.467 26.8185 106.133 26.8185C106.733 26.8185 107.267 27.0191 107.733 27.4873C108.2 27.8886 108.4 28.4236 108.4 29.0255C108.333 29.6274 108.067 30.0956 107.667 30.5637ZM107.333 27.7548C107 27.4204 106.533 27.2198 106.067 27.2198C105.533 27.2198 105.133 27.4204 104.8 27.7548C104.467 28.0892 104.267 28.5574 104.267 29.0255C104.267 29.4937 104.467 29.9618 104.8 30.2962C105.133 30.6306 105.6 30.8312 106.067 30.8312C106.533 30.8312 107 30.6306 107.333 30.2962C107.667 29.9618 107.867 29.4937 107.867 29.0255C107.867 28.4905 107.733 28.0892 107.333 27.7548Z" fill="#D3AE36"/>
<path d="M113.4 31.0987V27.2866L111.8 31.0987H111.467L109.867 27.2866V31.0987H109.467V26.8853H110.133L111.667 30.4968L113.2 26.8853H113.867V31.0987H113.4Z" fill="#D3AE36"/>
<path d="M115.067 31.0987V26.8853H117.4V27.2866H115.533V28.7579H117.333V29.1592H115.533V30.7643H117.4V31.1656H115.067V31.0987Z" fill="#D3AE36"/>
<path d="M121 27.2866V28.8248H122.667V29.2261H121V31.1656H120.6V26.9522H122.733V27.3535H121V27.2866Z" fill="#D3AE36"/>
<path d="M126.8 31.0987L126.2 29.6942H124.267L123.667 31.0987H123.2L125 26.8853H125.467L127.267 31.0987H126.8ZM125.2 27.3535L124.4 29.2929H126.067L125.2 27.3535Z" fill="#D3AE36"/>
<path d="M131.133 31.0987L128.6 27.3535V31.0987H128.2V26.8853H128.8L131.133 30.4299V26.8853H131.533V31.0987H131.133Z" fill="#D3AE36"/>
<path d="M134.6 31.0987H134.2L132.467 26.8853H132.933L134.4 30.6305L135.867 26.8853H136.333L134.6 31.0987Z" fill="#D3AE36"/>
<path d="M137.2 31.0987V26.8853H139.533V27.2866H137.667V28.7579H139.467V29.1592H137.667V30.7643H139.533V31.1656H137.2V31.0987Z" fill="#D3AE36"/>
<path d="M142.667 30.8312C142.4 31.0987 142.133 31.1656 141.8 31.1656C141.4 31.1656 141.133 31.0318 140.867 30.8312C140.6 30.6306 140.467 30.2962 140.467 29.8949H140.867C140.867 30.4968 141.2 30.7643 141.733 30.7643C142 30.7643 142.2 30.6974 142.333 30.4968C142.533 30.363 142.6 30.1624 142.6 29.8949C142.6 29.6274 142.533 29.4267 142.333 29.293C142.267 29.2261 142.133 29.1592 142 29.0923C141.933 29.0255 141.8 29.0255 141.667 28.9586C141.467 28.8917 141.333 28.8248 141.267 28.8248C141.133 28.7579 141 28.6911 140.933 28.6242C140.733 28.4235 140.6 28.156 140.6 27.8216C140.6 27.4872 140.733 27.2197 140.933 27.0191C141.133 26.8185 141.467 26.6847 141.8 26.6847C142.133 26.6847 142.4 26.8185 142.6 27.0191C142.8 27.2197 142.933 27.4872 142.933 27.8216H142.533C142.533 27.621 142.467 27.4204 142.333 27.2866C142.2 27.1528 142 27.086 141.8 27.086C141.6 27.086 141.4 27.1528 141.267 27.2866C141.133 27.4204 141.067 27.621 141.067 27.8216C141.067 28.0892 141.2 28.2229 141.4 28.3567C141.467 28.4235 141.6 28.4235 141.733 28.4904L142.067 28.6242C142.4 28.6911 142.667 28.8917 142.8 29.0255C143 29.2261 143.067 29.4936 143.067 29.828C143 30.2962 142.933 30.6306 142.667 30.8312Z" fill="#D3AE36"/>
<path d="M145 27.2866V31.1656H144.6V27.2866H143.6V26.8853H145.933V27.2866H145Z" fill="#D3AE36"/>
<path d="M150.533 30.5637C150.066 30.965 149.6 31.2325 148.933 31.2325C148.333 31.2325 147.8 31.0319 147.4 30.6306C146.933 30.2293 146.733 29.6943 146.733 29.0924C146.733 28.4905 146.933 27.9554 147.4 27.4873C147.866 27.086 148.333 26.8185 149 26.8185C149.6 26.8185 150.133 27.0191 150.6 27.4873C151.066 27.8886 151.266 28.4236 151.266 29.0255C151.2 29.6274 150.933 30.0956 150.533 30.5637ZM150.2 27.7548C149.866 27.4204 149.4 27.2198 148.933 27.2198C148.4 27.2198 148 27.4204 147.666 27.7548C147.333 28.0892 147.133 28.5574 147.133 29.0255C147.133 29.4937 147.333 29.9618 147.666 30.2962C148 30.6306 148.466 30.8312 148.933 30.8312C149.4 30.8312 149.866 30.6306 150.2 30.2962C150.533 29.9618 150.733 29.4937 150.733 29.0255C150.733 28.4905 150.6 28.0892 150.2 27.7548Z" fill="#D3AE36"/>
<path d="M154.733 29.1592C154.467 29.4267 154.2 29.5605 153.867 29.5605L155.067 31.1656H154.533L153.067 29.2261H153.533C153.733 29.2261 153.867 29.2261 154 29.1592C154.467 29.0255 154.667 28.6911 154.667 28.2898C154.667 27.8885 154.533 27.621 154.2 27.4872C154.067 27.4204 153.933 27.3535 153.8 27.3535C153.667 27.3535 153.533 27.3535 153.4 27.3535H152.667V31.2325H152.267V27.0191H153.333C153.4 27.0191 153.533 27.0191 153.6 27.0191C153.667 27.0191 153.8 27.0191 153.867 27.0191C154.067 27.0191 154.267 27.086 154.4 27.1528C154.933 27.4204 155.133 27.8216 155.133 28.3567C155.133 28.6242 155 28.8917 154.733 29.1592Z" fill="#D3AE36"/>
<path d="M158.067 30.8312C157.8 31.0987 157.533 31.1656 157.2 31.1656C156.8 31.1656 156.533 31.0318 156.267 30.8312C156 30.6306 155.867 30.2962 155.867 29.8949H156.267C156.267 30.4968 156.6 30.7643 157.133 30.7643C157.4 30.7643 157.6 30.6974 157.733 30.4968C157.933 30.363 158 30.1624 158 29.8949C158 29.6274 157.933 29.4267 157.733 29.293C157.667 29.2261 157.533 29.1592 157.4 29.0923C157.333 29.0255 157.2 29.0255 157.067 28.9586C156.867 28.8917 156.733 28.8248 156.667 28.8248C156.533 28.7579 156.4 28.6911 156.333 28.6242C156.133 28.4235 156 28.156 156 27.8216C156 27.4872 156.133 27.2197 156.333 27.0191C156.533 26.8185 156.867 26.6847 157.2 26.6847C157.533 26.6847 157.8 26.8185 158 27.0191C158.2 27.2197 158.333 27.4872 158.333 27.8216H157.933C157.933 27.621 157.867 27.4204 157.733 27.2866C157.6 27.1528 157.4 27.086 157.2 27.086C157 27.086 156.8 27.1528 156.667 27.2866C156.533 27.4204 156.467 27.621 156.467 27.8216C156.467 28.0892 156.6 28.2229 156.8 28.3567C156.867 28.4235 157 28.4235 157.133 28.4904L157.467 28.6242C157.8 28.6911 158.067 28.8917 158.2 29.0255C158.4 29.2261 158.467 29.4936 158.467 29.828C158.467 30.2962 158.333 30.6306 158.067 30.8312Z" fill="#D3AE36"/>
</svg>
