<svg width="152" height="33" viewBox="0 0 152 33" fill="none" xmlns="http://www.w3.org/2000/svg">
<path d="M46.3039 12.9842H42.3039V15.2842H45.9039V17.3542H42.2939V21.4042H40.0039V10.8242H46.3039V12.9842Z" fill="#F24139"/>
<path d="M54.4231 13.2234H56.0631V21.3834H54.3331L54.1431 20.6634C53.4229 21.3149 52.4841 21.6718 51.5131 21.6634C50.9557 21.6725 50.4024 21.5682 49.8866 21.3567C49.3709 21.1453 48.9036 20.8311 48.5131 20.4334C48.1121 20.0275 47.798 19.5442 47.5899 19.013C47.3819 18.4817 47.2843 17.9136 47.3031 17.3434C47.2859 16.7763 47.3843 16.2117 47.5923 15.6839C47.8003 15.1561 48.1136 14.6762 48.5131 14.2734C48.9048 13.8779 49.3725 13.5659 49.8882 13.3563C50.4038 13.1466 50.9565 13.0435 51.5131 13.0534C52.4948 13.0353 53.4463 13.393 54.1731 14.0534L54.4231 13.2234ZM50.1031 18.9034C50.3067 19.1151 50.5526 19.2815 50.8248 19.3918C51.0971 19.5021 51.3895 19.5537 51.6831 19.5434C51.9781 19.5539 52.2721 19.5023 52.546 19.3921C52.8199 19.2819 53.0676 19.1154 53.2731 18.9034C53.5932 18.5926 53.8128 18.193 53.9034 17.7561C53.994 17.3193 53.9515 16.8652 53.7813 16.4528C53.6112 16.0404 53.3212 15.6884 52.949 15.4425C52.5767 15.1966 52.1392 15.068 51.6931 15.0734C51.3027 15.0627 50.9168 15.1585 50.5768 15.3505C50.2367 15.5425 49.9554 15.8236 49.7631 16.1634C49.5725 16.5131 49.4728 16.9051 49.4731 17.3034C49.4629 17.599 49.5136 17.8936 49.622 18.1688C49.7303 18.444 49.8941 18.694 50.1031 18.9034Z" fill="#F24139"/>
<path d="M62.8106 13.043C63.2225 13.0275 63.6327 13.1038 64.0115 13.2664C64.3902 13.429 64.7281 13.6737 65.0006 13.983C65.564 14.6866 65.8488 15.5729 65.8006 16.473V21.413H63.6006V16.813C63.6006 15.593 63.1306 14.993 62.1906 14.993C61.8398 14.9746 61.4915 15.0617 61.1906 15.243C60.907 15.4188 60.6837 15.6769 60.5506 15.983C60.4013 16.344 60.3297 16.7324 60.3406 17.123V21.413H58.1406V13.243H59.6406L60.0806 14.243C60.3871 13.8567 60.7861 13.554 61.2406 13.363C61.4746 13.2544 61.7192 13.1706 61.9706 13.113C62.248 13.0648 62.5291 13.0414 62.8106 13.043Z" fill="#F24139"/>
<path d="M71.7425 19.4333H72.7425V21.4333H71.1825C70.6484 21.4426 70.1201 21.3225 69.6425 21.0833C69.2167 20.8575 68.8683 20.5091 68.6425 20.0833C68.4004 19.5999 68.2835 19.0635 68.3025 18.5233V14.9833H66.8125V14.5233L70.0025 11.1133H70.4025V13.2433H72.6525V14.9833H70.4525V18.1733C70.4338 18.5101 70.5488 18.8408 70.7725 19.0933C70.9032 19.2119 71.0564 19.3032 71.223 19.3616C71.3897 19.42 71.5663 19.4444 71.7425 19.4333Z" fill="#F24139"/>
<path d="M78.0014 21.6236C77.2123 21.6357 76.4335 21.4427 75.7414 21.0636C75.0844 20.7071 74.5405 20.1736 74.1714 19.5236C73.7928 18.853 73.5995 18.0937 73.6114 17.3236C73.5936 16.75 73.6956 16.1789 73.9108 15.6469C74.126 15.1149 74.4497 14.6336 74.8614 14.2336C75.7176 13.4466 76.8383 13.0098 78.0014 13.0098C79.1644 13.0098 80.2851 13.4466 81.1414 14.2336C81.5515 14.6347 81.8743 15.1162 82.0894 15.648C82.3045 16.1797 82.4073 16.7502 82.3914 17.3236C82.405 17.8947 82.3001 18.4623 82.0833 18.9907C81.8664 19.5192 81.5423 19.9969 81.1314 20.3936C80.7194 20.7989 80.2298 21.1168 79.6919 21.3281C79.154 21.5395 78.579 21.64 78.0014 21.6236ZM78.0014 19.5536C78.2913 19.5727 78.5821 19.5319 78.8556 19.4338C79.1291 19.3358 79.3795 19.1825 79.5914 18.9836C79.9784 18.5365 80.1914 17.965 80.1914 17.3736C80.1914 16.7823 79.9784 16.2107 79.5914 15.7636C79.3898 15.5439 79.1437 15.3696 78.8696 15.2524C78.5954 15.1351 78.2995 15.0776 78.0014 15.0836C77.7117 15.0736 77.4232 15.1245 77.1545 15.233C76.8857 15.3415 76.6428 15.5053 76.4414 15.7136C76.2394 15.9287 76.0823 16.1818 75.9793 16.4582C75.8763 16.7347 75.8294 17.0289 75.8414 17.3236C75.8407 17.6299 75.8914 17.9341 75.9914 18.2236C76.0894 18.4895 76.2428 18.7315 76.4414 18.9336C76.6309 19.1357 76.8633 19.2929 77.1214 19.3936C77.4021 19.5014 77.7006 19.5557 78.0014 19.5536Z" fill="#F24139"/>
<path d="M93.2539 13.0439C93.6447 13.0335 94.033 13.1097 94.3908 13.267C94.7487 13.4244 95.0674 13.6589 95.3239 13.9539C95.8771 14.5967 96.1633 15.4268 96.1239 16.2739V21.4039H93.9339V16.6439C93.9339 15.5339 93.5139 14.9839 92.6939 14.9839C92.3966 14.9675 92.102 15.0485 91.8548 15.2145C91.6076 15.3805 91.4213 15.6225 91.3239 15.9039C91.1947 16.2489 91.1335 16.6157 91.1439 16.9839V21.4039H89.0039V16.6439C89.0039 15.5339 88.6039 14.9839 87.8139 14.9839C87.5901 14.9713 87.3666 15.0119 87.1615 15.1022C86.9564 15.1926 86.7756 15.3303 86.6339 15.5039C86.3246 15.9331 86.1728 16.4558 86.2039 16.9839V21.4039H84.0039V13.2439H85.5439L85.9439 14.2439C86.2324 13.8829 86.5936 13.5865 87.0039 13.3739C87.4205 13.1561 87.8838 13.0429 88.3539 13.0439C88.8397 13.0385 89.3186 13.159 89.7439 13.3939C90.1697 13.6197 90.5181 13.9681 90.7439 14.3939C90.8394 14.2552 90.9465 14.1247 91.0639 14.0039C91.1743 13.8869 91.2947 13.7798 91.4239 13.6839C91.5546 13.5912 91.6916 13.5076 91.8339 13.4339C91.974 13.3563 92.1214 13.2926 92.2739 13.2439L92.7539 13.1239C92.9177 13.0819 93.0851 13.0551 93.2539 13.0439Z" fill="#F24139"/>
<path d="M101.702 21.6129C100.612 21.6667 99.5414 21.3099 98.7018 20.6129C98.3383 20.2818 98.0528 19.8741 97.866 19.4193C97.6793 18.9645 97.5959 18.4738 97.6218 17.9829H99.9218C99.9229 18.2133 99.9705 18.4412 100.062 18.6529C100.155 18.8426 100.292 19.0072 100.462 19.1329C100.633 19.2525 100.822 19.3437 101.022 19.4029C101.237 19.4629 101.459 19.4932 101.682 19.4929C102.106 19.5048 102.524 19.3899 102.882 19.1629C103.042 19.0728 103.175 18.9402 103.265 18.7796C103.355 18.6191 103.399 18.4368 103.392 18.2529C103.392 18.1012 103.351 17.9523 103.272 17.8229C103.2 17.7046 103.105 17.6024 102.992 17.5229C102.839 17.4231 102.674 17.3425 102.502 17.2829C102.322 17.2124 102.138 17.1523 101.952 17.1029L101.282 16.9329L100.732 16.8029L100.202 16.6529C100.022 16.6029 99.8418 16.5329 99.6618 16.4629L99.1718 16.2229C99.0025 16.1443 98.8444 16.0434 98.7018 15.9229C98.5718 15.8029 98.4518 15.6729 98.3318 15.5429C98.2047 15.4032 98.1001 15.2447 98.0218 15.0729C97.9423 14.8861 97.882 14.6918 97.8418 14.4929C97.7933 14.2695 97.7698 14.0414 97.7718 13.8129C97.7466 13.3706 97.8236 12.9285 97.9971 12.5209C98.1705 12.1134 98.4356 11.7513 98.7718 11.4629C99.5809 10.8703 100.571 10.5769 101.572 10.6329C102.587 10.5692 103.588 10.8946 104.372 11.5429C104.709 11.8604 104.974 12.2476 105.146 12.6776C105.319 13.1076 105.396 13.5701 105.372 14.0329H103.112C103.125 13.841 103.09 13.6489 103.009 13.4742C102.929 13.2995 102.806 13.1478 102.652 13.0329C102.318 12.8011 101.918 12.6819 101.512 12.6929C101.161 12.6904 100.817 12.7801 100.512 12.9529C100.413 13.0032 100.325 13.0732 100.253 13.1587C100.182 13.2441 100.129 13.3432 100.097 13.4498C100.065 13.5565 100.055 13.6685 100.068 13.779C100.081 13.8896 100.116 13.9964 100.172 14.0929C100.246 14.2034 100.337 14.3013 100.442 14.3829C100.585 14.4755 100.74 14.5494 100.902 14.6029C101.077 14.6731 101.258 14.7299 101.442 14.7729L102.102 14.9329L102.822 15.1229C103.061 15.1698 103.293 15.2471 103.512 15.3529C103.757 15.4235 103.992 15.5243 104.212 15.6529C104.382 15.7629 104.572 15.8929 104.792 16.0629C104.996 16.2071 105.169 16.3907 105.302 16.6029C105.422 16.8304 105.523 17.068 105.602 17.3129C105.69 17.6047 105.734 17.9081 105.732 18.2129C105.749 18.8861 105.553 19.5475 105.172 20.1029C104.81 20.6144 104.311 21.0131 103.732 21.2529C103.084 21.5012 102.395 21.6233 101.702 21.6129Z" fill="#F24139"/>
<path d="M111.252 19.4338H112.252V21.4338H110.702C110.168 21.443 109.64 21.323 109.162 21.0838C108.732 20.8637 108.382 20.5138 108.162 20.0838C107.912 19.6028 107.792 19.0653 107.812 18.5238V14.9838H106.332V14.5238L109.562 11.0938H109.962V13.2238H112.212V14.9838H110.002V18.1738C109.983 18.5106 110.098 18.8412 110.322 19.0938C110.576 19.3235 110.91 19.4454 111.252 19.4338Z" fill="#F24139"/>
<path d="M120.321 13.2234H122.001V21.3834H120.271L120.091 20.6634C119.361 21.3065 118.423 21.662 117.451 21.6634C116.893 21.6725 116.34 21.5682 115.824 21.3567C115.308 21.1453 114.841 20.8311 114.451 20.4334C114.05 20.0275 113.735 19.5442 113.527 19.013C113.319 18.4817 113.222 17.9136 113.241 17.3434C113.223 16.7763 113.322 16.2117 113.53 15.6839C113.738 15.1561 114.051 14.6762 114.451 14.2734C114.842 13.8779 115.31 13.5659 115.826 13.3562C116.341 13.1466 116.894 13.0435 117.451 13.0534C118.435 13.0358 119.39 13.3933 120.121 14.0534L120.321 13.2234ZM116.001 18.9034C116.204 19.1151 116.45 19.2815 116.722 19.3918C116.995 19.5021 117.287 19.5537 117.581 19.5434C117.876 19.5539 118.17 19.5023 118.443 19.3921C118.717 19.2819 118.965 19.1154 119.171 18.9034C119.491 18.5926 119.71 18.193 119.801 17.7561C119.892 17.3192 119.849 16.8652 119.679 16.4528C119.509 16.0403 119.219 15.6884 118.846 15.4425C118.474 15.1966 118.037 15.068 117.591 15.0734C117.2 15.0627 116.814 15.1585 116.474 15.3505C116.134 15.5425 115.853 15.8235 115.661 16.1634C115.469 16.5123 115.372 16.9054 115.381 17.3034C115.369 17.5983 115.417 17.8926 115.524 18.1679C115.631 18.4432 115.793 18.6935 116.001 18.9034Z" fill="#F24139"/>
<path d="M128.224 13.1926H129.004V15.2826H128.004C127.764 15.2572 127.521 15.2833 127.292 15.3592C127.062 15.4351 126.852 15.5589 126.674 15.7226C126.362 16.1302 126.219 16.6422 126.274 17.1526V21.4026H124.074V13.2426H125.484L125.874 14.2426C126.157 13.8961 126.516 13.6206 126.924 13.4382C127.333 13.2559 127.778 13.1718 128.224 13.1926Z" fill="#F24139"/>
<path d="M134.232 19.4338H135.232V21.4338H133.682C133.145 21.4443 132.613 21.3242 132.133 21.0838C131.702 20.8637 131.353 20.5138 131.133 20.0838C130.89 19.6004 130.773 19.064 130.792 18.5238V14.9838H129.312V14.5238L132.533 11.0938H132.943V13.2238H135.182V14.9838H133.003V18.1738C132.988 18.3403 133.009 18.5082 133.065 18.6657C133.122 18.8232 133.211 18.9668 133.328 19.0864C133.445 19.2061 133.586 19.2991 133.742 19.3591C133.898 19.419 134.066 19.4445 134.232 19.4338Z" fill="#F24139"/>
<path d="M144.553 17.2939C144.553 17.5139 144.553 17.7239 144.553 17.9439H138.403C138.459 18.4342 138.694 18.8865 139.063 19.2139C139.391 19.4674 139.786 19.621 140.199 19.6565C140.612 19.692 141.027 19.6077 141.393 19.4139C141.687 19.2515 141.932 19.0132 142.103 18.7239H144.423C144.142 19.5733 143.604 20.3142 142.883 20.8439C142.156 21.3676 141.279 21.6413 140.383 21.6239C139.824 21.6384 139.268 21.5355 138.752 21.3219C138.235 21.1083 137.769 20.7888 137.383 20.3839C136.986 19.9812 136.675 19.5027 136.467 18.977C136.259 18.4513 136.159 17.8891 136.173 17.3239C136.173 16.8526 136.244 16.384 136.383 15.9339C136.505 15.5029 136.701 15.0967 136.963 14.7339C137.222 14.3921 137.524 14.0861 137.863 13.8239C138.213 13.5598 138.605 13.3569 139.023 13.2239C139.466 13.0844 139.928 13.0135 140.393 13.0139C141.161 13.0059 141.917 13.2027 142.583 13.5839C143.192 13.9628 143.683 14.5027 144.003 15.1439C144.364 15.8033 144.553 16.5425 144.553 17.2939ZM140.353 14.8839C139.905 14.8706 139.466 15.0158 139.113 15.2939C138.76 15.5839 138.516 15.9862 138.423 16.4339H142.353C142.271 16.1265 142.125 15.8402 141.923 15.5939C141.737 15.3688 141.501 15.1907 141.233 15.0739C140.957 14.9471 140.657 14.8822 140.353 14.8839Z" fill="#F24139"/>
<path d="M150.281 13.1938H151.001V15.2838H150.051C149.811 15.2584 149.568 15.2845 149.339 15.3604C149.109 15.4363 148.899 15.5602 148.721 15.7238C148.409 16.1315 148.266 16.6435 148.321 17.1538V21.4038H146.121V13.2438H147.541L147.931 14.2438C148.211 13.8942 148.57 13.6165 148.979 13.4339C149.388 13.2513 149.834 13.1689 150.281 13.1938Z" fill="#F24139"/>
<path d="M18.0008 9.52375C17.2361 8.3321 16.2102 7.33012 15.0008 6.59375L15.1308 6.68375L15.2708 6.79375L15.3808 6.88375L15.6508 7.12375L15.7408 7.21375L15.8708 7.33375L16.0208 7.49375L16.1508 7.63375L16.2808 7.79375C16.3196 7.83262 16.3532 7.87631 16.3808 7.92375C16.4708 8.03375 16.5608 8.16375 16.6408 8.28375L16.7708 8.48375C17.6922 9.9679 17.9916 11.7554 17.6041 13.4587C17.2166 15.1621 16.1735 16.6442 14.7008 17.5837H14.6308L14.1808 17.8438L13.9008 17.9837H13.7008C12.6989 18.4175 11.6213 18.6496 10.5296 18.6667C9.43797 18.6839 8.35362 18.4857 7.33858 18.0836C6.32353 17.6815 5.39767 17.0833 4.61391 16.3232C3.83015 15.5631 3.20385 14.656 2.77081 13.6537C2.42022 12.8331 2.20087 11.9625 2.12081 11.0738C2.01358 9.55788 2.31761 8.04117 3.00081 6.68375C1.43122 8.90501 0.453778 11.4897 0.160815 14.1937C0.130682 14.9038 0.181002 15.615 0.310815 16.3137C0.449628 17.0533 0.681469 17.7724 1.00081 18.4537C1.18749 18.8821 1.40471 19.2965 1.65081 19.6937C2.27725 20.8143 3.12141 21.7983 4.13367 22.5879C5.14592 23.3775 6.30583 23.9567 7.54519 24.2915C8.78455 24.6263 10.0783 24.7099 11.3505 24.5374C12.6226 24.3649 13.8474 23.9397 14.9529 23.287C16.0583 22.6343 17.0221 21.7671 17.7875 20.7365C18.553 19.7058 19.1046 18.5326 19.41 17.2856C19.7154 16.0387 19.7684 14.7433 19.5659 13.4756C19.3634 12.2079 18.9095 10.9935 18.2308 9.90375C18.1608 9.77375 18.0808 9.64375 18.0008 9.52375Z" fill="url(#paint0_linear_489_756)"/>
<path opacity="0.9" d="M18.4325 10.3736C18.9729 11.7111 19.1221 13.1746 18.8625 14.5936C18.0325 19.1436 13.2925 22.0736 8.26253 21.1536L8.00253 21.1036C5.79835 20.6113 3.87327 19.2783 2.63691 17.3883C1.40055 15.4983 0.950505 13.2004 1.38253 10.9836C1.65285 9.46265 2.20208 8.00481 3.00253 6.68359C1.65037 8.60551 0.735604 10.8003 0.322533 13.1136C0.305602 13.2718 0.278884 13.4287 0.242533 13.5836V13.6436C0.229043 13.8214 0.205674 13.9984 0.172533 14.1736C0.1424 14.8837 0.192721 15.5948 0.322533 16.2936C0.453229 17.0404 0.681868 17.7666 1.00253 18.4536C1.18921 18.882 1.40643 19.2964 1.65253 19.6936C2.9469 21.814 5.01063 23.3522 7.41248 23.9867C9.81434 24.6212 12.3685 24.303 14.5412 23.0985C16.7139 21.894 18.3371 19.8964 19.0716 17.5232C19.8061 15.15 19.595 12.5848 18.4825 10.3636L18.4325 10.3736Z" fill="url(#paint1_linear_489_756)"/>
<path d="M19.413 14.2937H19.663C19.283 19.1137 15.383 23.2937 9.393 23.1937H9.113C6.81683 23.0582 4.66416 22.0321 3.113 20.3337C1.8603 19.0692 0.995889 17.4724 0.621973 15.7322C0.248057 13.992 0.380279 12.1811 1.003 10.5137C0.701011 11.3604 0.466938 12.2298 0.303002 13.1137C0.286071 13.2718 0.259353 13.4288 0.223002 13.5837V13.6437C0.209512 13.8215 0.186143 13.9984 0.153002 14.1737C0.122869 14.8837 0.173189 15.5949 0.303002 16.2937C0.343143 16.5265 0.396564 16.7569 0.463002 16.9837L0.553002 17.3337C0.575078 17.4217 0.601782 17.5085 0.633002 17.5937V17.7237C0.645294 17.8129 0.668814 17.9003 0.703002 17.9837V18.1037L0.833002 18.4037H1.003V18.4737C1.18359 18.8769 1.39071 19.2678 1.623 19.6437L1.833 19.9737V20.0337L2.003 20.2737L2.113 20.4237L2.283 20.6337C2.32071 20.6913 2.36427 20.745 2.413 20.7937C2.413 20.8637 2.523 20.9237 2.583 20.9937L2.723 21.1437L2.903 21.3337L3.043 21.4737L3.233 21.6537L3.383 21.7837L3.583 21.9637L3.733 22.0837L3.943 22.2437L4.093 22.3537L4.313 22.5137L4.463 22.6137L4.693 22.7637L4.843 22.8537L5.083 22.9937L5.233 23.0737L5.493 23.2037L5.633 23.2737L5.893 23.3937L6.033 23.4437L6.313 23.5637H6.433L6.733 23.6737H6.833L7.163 23.7737C8.60639 24.1779 10.1243 24.2389 11.5955 23.9518C13.0667 23.6647 14.4503 23.0375 15.6358 22.1202C16.8213 21.2029 17.7757 20.021 18.4229 18.669C19.0701 17.317 19.392 15.8323 19.363 14.3337L19.413 14.2937Z" fill="url(#paint2_linear_489_756)"/>
<path d="M29.6013 7.54326C27.3626 3.94777 23.7897 1.3866 19.6657 0.42121C15.5417 -0.544176 11.2032 0.164998 7.60129 2.39326C7.18129 2.65326 6.78129 2.93326 6.39129 3.22326C8.15811 2.2398 10.2237 1.93687 12.1986 2.37162C14.1734 2.80638 15.9208 3.94875 17.1113 5.58326C16.0346 5.43415 14.9375 5.57214 13.9313 5.98326C14.3202 6.15171 14.6892 6.36302 15.0313 6.61326C16.2398 7.34225 17.2658 8.33754 18.0313 9.52326C19.3812 11.702 19.8104 14.3278 19.2243 16.823C18.6383 19.3181 17.085 21.4783 14.9063 22.8283C12.7275 24.1782 10.1018 24.6074 7.60658 24.0213C5.11141 23.4353 2.95124 21.882 1.60129 19.7033C1.37136 19.3051 1.17082 18.8907 1.00129 18.4633C0.702281 17.7888 0.487335 17.0802 0.36129 16.3533C0.231477 15.6545 0.181157 14.9433 0.21129 14.2333C0.0397229 15.7762 0.0936211 17.3359 0.37129 18.8633C0.680789 20.6643 1.30354 22.3972 2.21129 23.9833L2.46129 24.4133C4.54289 28.0629 7.97654 30.7473 12.0206 31.8867C16.0648 33.0261 20.3948 32.5291 24.0755 30.5029C27.7562 28.4767 30.4922 25.0841 31.6927 21.0576C32.8931 17.0312 32.4616 12.6942 30.4913 8.98326C30.2199 8.48811 29.9228 8.00746 29.6013 7.54326Z" fill="url(#paint3_linear_489_756)"/>
<path d="M29.6013 7.54326C27.3626 3.94777 23.7897 1.3866 19.6657 0.42121C15.5417 -0.544176 11.2032 0.164998 7.60129 2.39326C7.18129 2.65326 6.78129 2.93326 6.39129 3.22326C8.15811 2.2398 10.2237 1.93687 12.1986 2.37162C14.1734 2.80638 15.9208 3.94875 17.1113 5.58326C16.0346 5.43415 14.9375 5.57214 13.9313 5.98326C14.3202 6.15171 14.6892 6.36302 15.0313 6.61326C16.2398 7.34225 17.2658 8.33754 18.0313 9.52326C19.3812 11.702 19.8104 14.3278 19.2243 16.823C18.6383 19.3181 17.085 21.4783 14.9063 22.8283C12.7275 24.1782 10.1018 24.6074 7.60658 24.0213C5.11141 23.4353 2.95124 21.882 1.60129 19.7033C1.37136 19.3051 1.17082 18.8907 1.00129 18.4633C0.702281 17.7888 0.487335 17.0802 0.36129 16.3533C0.231477 15.6545 0.181157 14.9433 0.21129 14.2333C0.0397229 15.7762 0.0936211 17.3359 0.37129 18.8633C0.680789 20.6643 1.30354 22.3972 2.21129 23.9833L2.46129 24.4133C4.54289 28.0629 7.97654 30.7473 12.0206 31.8867C16.0648 33.0261 20.3948 32.5291 24.0755 30.5029C27.7562 28.4767 30.4922 25.0841 31.6927 21.0576C32.8931 17.0312 32.4616 12.6942 30.4913 8.98326C30.2199 8.48811 29.9228 8.00746 29.6013 7.54326Z" fill="url(#paint4_radial_489_756)"/>
<path opacity="0.8" d="M20.4433 20.8027C20.4433 20.8027 20.7533 25.8027 18.3633 28.8927C18.3633 28.8927 20.8833 26.2927 21.3633 24.5827C21.222 23.2881 20.9127 22.0175 20.4433 20.8027Z" fill="url(#paint5_linear_489_756)"/>
<path d="M29.5914 7.54326C27.3528 3.94777 23.7798 1.3866 19.6558 0.42121C15.5319 -0.544176 11.1933 0.164998 7.59141 2.39326C7.17141 2.65326 6.77141 2.93326 6.39141 3.22326L6.64141 3.08326C8.81532 1.61341 11.3772 0.823253 14.0014 0.813264C21.7314 0.813264 28.0014 7.58327 28.0014 15.9833C28.0014 24.3833 21.7314 31.0533 14.0014 31.0533C11.6657 31.0192 9.37756 30.3885 7.35427 29.2211C5.33099 28.0537 3.63981 26.3883 2.44141 24.3833V24.3133L2.51141 24.4233C4.48064 28.1827 7.86265 31.0059 11.9134 32.2718C15.9642 33.5376 20.352 33.1425 24.1114 31.1733C27.8708 29.204 30.694 25.822 31.9599 21.7712C33.2258 17.7205 32.8306 13.3327 30.8614 9.57327C30.4881 8.86657 30.0636 8.1881 29.5914 7.54326Z" fill="url(#paint6_linear_489_756)"/>
<path d="M19.7523 6.1431C18.9059 5.82332 18.0157 5.63449 17.1123 5.5831C16.7613 5.10708 16.3626 4.66813 15.9223 4.2731C14.6323 3.14519 13.025 2.44369 11.3208 2.26467C9.61655 2.08565 7.89864 2.43788 6.40234 3.2731L6.84234 2.9831C8.3174 2.04987 10.0269 1.55402 11.7723 1.5531C13.3907 1.53854 14.9835 1.95629 16.3864 2.7632C17.7892 3.57011 18.9512 4.73692 19.7523 6.1431Z" fill="url(#paint7_linear_489_756)"/>
<path d="M19.7536 6.14372C18.9072 5.82394 18.0169 5.63511 17.1136 5.58372C16.0369 5.43461 14.9399 5.5726 13.9336 5.98372C13.9336 5.98372 18.1136 5.98372 20.5436 8.46372C20.3709 7.66242 20.1058 6.88388 19.7536 6.14372Z" fill="url(#paint8_linear_489_756)"/>
<path opacity="0.7" d="M19.7523 6.1431C18.9059 5.82332 18.0157 5.63449 17.1123 5.5831C16.7613 5.10708 16.3626 4.66813 15.9223 4.2731C14.6323 3.14519 13.025 2.44369 11.3208 2.26467C9.61655 2.08565 7.89864 2.43788 6.40234 3.2731L6.84234 2.9831C8.3174 2.04987 10.0269 1.55402 11.7723 1.5531C13.3907 1.53854 14.9835 1.95629 16.3864 2.7632C17.7892 3.57011 18.9512 4.73692 19.7523 6.1431Z" fill="url(#paint9_linear_489_756)"/>
<path opacity="0.7" d="M28.0014 16.4238C27.7614 24.5438 21.6014 31.0538 14.0014 31.0538C11.6661 31.0179 9.37868 30.3864 7.35572 29.2192C5.33276 28.0519 3.64125 26.3876 2.44141 24.3838V24.3138L2.50141 24.4238C4.32636 27.3215 7.03287 29.5572 10.223 30.8022C13.4131 32.0472 16.9185 32.2359 20.2238 31.3405C23.5292 30.445 26.46 28.5127 28.5854 25.8276C30.7108 23.1426 31.9187 19.8464 32.0314 16.4238H28.0014Z" fill="url(#paint10_linear_489_756)"/>
<path d="M25.8438 13.8933C26.3958 13.892 26.9355 14.0557 27.3938 14.3633C27.4405 13.8964 27.3071 13.4293 27.0209 13.0576C26.7346 12.6858 26.3171 12.4375 25.8538 12.3633C25.3905 12.4375 24.9731 12.6858 24.6868 13.0576C24.4006 13.4293 24.2671 13.8964 24.3138 14.3633C24.7662 14.0589 25.2986 13.8954 25.8438 13.8933Z" fill="url(#paint11_linear_489_756)"/>
<path opacity="0.3" d="M27.3116 14.3133L27.3916 14.3633C27.4383 13.8964 27.3048 13.4293 27.0186 13.0576C26.7323 12.6858 26.3149 12.4375 25.8516 12.3633C26.2908 12.4545 26.6816 12.703 26.9505 13.0621C27.2193 13.4212 27.3477 13.8661 27.3116 14.3133Z" fill="url(#paint12_linear_489_756)"/>
<path opacity="0.5" d="M24.3118 14.3535C24.2615 13.8921 24.3885 13.4288 24.667 13.0575C24.9455 12.6861 25.3547 12.4345 25.8118 12.3535C25.3474 12.4254 24.9285 12.6732 24.6418 13.0455C24.3551 13.4178 24.2226 13.8862 24.2718 14.3535H24.3118Z" fill="url(#paint13_linear_489_756)"/>
<path d="M22.3818 18.8824C22.3818 12.8124 18.9918 7.68242 14.3818 6.10242L14.0018 5.98242L14.2418 6.09242L14.3518 6.15242L14.5118 6.24242L14.7218 6.37242H14.7818L15.0418 6.55242C16.2589 7.30877 17.2854 8.33531 18.0418 9.55242C18.1418 9.70242 18.2318 9.86242 18.3118 10.0124C18.3382 10.0575 18.3616 10.1042 18.3818 10.1524C18.3818 10.1524 18.5018 10.3724 18.5518 10.4824C18.5748 10.5407 18.6016 10.5975 18.6318 10.6524C18.6318 10.6524 18.7218 10.8624 18.7718 10.9624C18.7907 11.0273 18.8141 11.0908 18.8418 11.1524C18.8418 11.2524 18.9218 11.3524 18.9518 11.4524L19.0118 11.6424C19.0314 11.7497 19.065 11.8539 19.1118 11.9524V12.1324L19.2018 12.4724V12.6324C19.2188 12.7774 19.2455 12.921 19.2818 13.0624C19.2818 13.2024 19.2818 13.0624 19.2818 13.1324L19.3418 13.6324V15.8424C19.3499 15.945 19.3327 16.048 19.2918 16.1424V16.3324C19.3029 16.4566 19.2787 16.5814 19.2218 16.6924V16.8224C19.2008 16.9866 19.1605 17.1477 19.1018 17.3024V17.3724C19.0769 17.5143 19.0332 17.6521 18.9718 17.7824C18.3873 19.5242 17.3169 21.0624 15.8866 22.2156C14.4564 23.3688 12.7262 24.0888 10.9001 24.2907C9.07398 24.4925 7.22825 24.1678 5.5807 23.3548C3.93316 22.5418 2.55255 21.2745 1.6018 19.7024C1.37187 19.3043 1.17133 18.8898 1.0018 18.4624C0.685163 17.786 0.450177 17.0744 0.301797 16.3424C0.180246 15.6393 0.133319 14.9254 0.161797 14.2124C-0.218578 17.6046 0.500008 21.0293 2.2118 23.9824L2.4618 24.4124L2.5718 24.5724C3.38657 25.88 4.52336 26.9565 5.87332 27.6989C7.22328 28.4413 8.74122 28.8247 10.2818 28.8124C12.6092 28.7443 14.853 27.9299 16.6823 26.4895C18.5117 25.0491 19.8296 23.0589 20.4418 20.8124C20.8935 22.0302 21.1891 23.3003 21.3218 24.5924C22.0317 22.7729 22.3914 20.8355 22.3818 18.8824Z" fill="url(#paint14_linear_489_756)"/>
<path d="M15.8438 6.75391C17.0541 7.86376 18.0006 9.23053 18.6138 10.7539C18.6343 10.8132 18.6612 10.8702 18.6938 10.9239C18.7127 10.9888 18.736 11.0523 18.7638 11.1139C18.7638 11.2139 18.8438 11.3139 18.8738 11.4139L18.9338 11.6039C18.9533 11.7112 18.9869 11.8154 19.0338 11.9139V12.0939L19.1238 12.4339V12.5939C19.1407 12.7389 19.1675 12.8825 19.2038 13.0239C19.3517 13.8018 19.4254 14.592 19.4237 15.3839C19.4237 21.5139 15.0837 25.9839 9.69375 25.9839C4.83375 25.9839 0.69375 22.2839 0.09375 16.8439C0.125361 17.515 0.202202 18.1832 0.32375 18.8439C0.649355 20.6543 1.28899 22.3938 2.21375 23.9839L2.46375 24.4139L2.57375 24.5739C3.38852 25.8815 4.52531 26.958 5.87527 27.7003C7.22523 28.4427 8.74317 28.8262 10.2837 28.8139C12.6111 28.7457 14.8549 27.9314 16.6843 26.491C18.5136 25.0506 19.8316 23.0603 20.4438 20.8139C20.8954 22.0317 21.1911 23.3018 21.3237 24.5939C22.0336 22.7778 22.3933 20.8438 22.3837 18.8939C22.3837 13.4739 19.6938 8.82391 15.8438 6.75391Z" fill="url(#paint15_linear_489_756)"/>
<g opacity="0.8">
<path opacity="0.8" d="M14.3731 6.10242L14.0031 5.98242L14.2431 6.09242L14.3531 6.15242L14.5131 6.24242L14.7231 6.37242H14.7831L15.0431 6.55242C16.2602 7.30877 17.2868 8.33531 18.0431 9.55242C18.1431 9.70242 18.2331 9.86242 18.3131 10.0124C18.3396 10.0575 18.3629 10.1042 18.3831 10.1524C18.3831 10.1524 18.5031 10.3724 18.5531 10.4824C18.5762 10.5407 18.6029 10.5975 18.6331 10.6524C18.6331 10.6524 18.7231 10.8624 18.7731 10.9624C18.792 11.0273 18.8154 11.0908 18.8431 11.1524C18.8431 11.2524 18.9231 11.3524 18.9531 11.4524L19.0131 11.6424V11.7424C19.7815 13.4553 20.1246 15.3284 20.0131 17.2024C19.7231 23.2024 15.0131 27.8524 9.55313 27.5824C7.36028 27.4101 5.28399 26.5252 3.64098 25.0627C1.99797 23.6003 0.878429 21.6405 0.453125 19.4824C0.80636 21.0636 1.39992 22.5812 2.21312 23.9824L2.46312 24.4124L2.57312 24.5724C3.3879 25.88 4.52468 26.9565 5.87465 27.6989C7.22461 28.4413 8.74254 28.8247 10.2831 28.8124C12.6105 28.7443 14.8543 27.9299 16.6837 26.4895C18.513 25.0491 19.8309 23.0589 20.4431 20.8124C20.8948 22.0302 21.1905 23.3003 21.3231 24.5924C22.033 22.7763 22.3926 20.8423 22.3831 18.8924C22.3831 12.8124 19.0031 7.68242 14.3731 6.10242Z" fill="url(#paint16_linear_489_756)"/>
</g>
<path opacity="0.5" d="M0.0820312 15.1929C0.0820312 15.5929 0.132031 15.9929 0.232031 16.3929C0.369867 17.1193 0.591341 17.8274 0.892031 18.5029C1.07467 18.9364 1.29204 19.3544 1.54203 19.7529C2.87881 21.9196 5.02152 23.4666 7.49883 24.0536C9.97615 24.6406 12.5852 24.2194 14.752 22.8829L15.132 22.6329L14.832 22.8329C12.6647 24.1664 10.0576 24.5878 7.58047 24.0051C5.10335 23.4223 2.95758 21.8828 1.61203 19.7229C1.37779 19.3186 1.1739 18.8974 1.00203 18.4629C0.685397 17.7865 0.45041 17.0748 0.302031 16.3429C0.18048 15.6398 0.133553 14.9258 0.162031 14.2129C0.122031 14.5429 0.102031 14.8729 0.0820312 15.1929Z" fill="url(#paint17_linear_489_756)"/>
<g opacity="0.5">
<path opacity="0.5" d="M20.4424 20.8027C19.8302 23.0491 18.5122 25.0393 16.6829 26.4797C14.8536 27.9201 12.6097 28.7345 10.2824 28.8027C8.74893 28.8157 7.23758 28.4367 5.89173 27.7017C4.54589 26.9666 3.41018 25.8999 2.59237 24.6027L2.48237 24.4227L2.21237 23.9827C1.29164 22.3943 0.652233 20.6587 0.322369 18.8527C0.150713 17.9292 0.0636856 16.992 0.062369 16.0527L0.00236899 15.7227C-0.0158685 16.7754 0.0712316 17.8273 0.262369 18.8627C0.60196 20.6644 1.24439 22.3956 2.16237 23.9827C2.24237 24.1227 2.32237 24.2727 2.41237 24.4127L2.49237 24.5327V24.5827C3.16689 25.6496 4.05556 26.5649 5.10212 27.2707C6.14869 27.9764 7.33037 28.4572 8.57237 28.6827C9.12098 28.7743 9.67615 28.8212 10.2324 28.8227C12.5469 28.7721 14.785 27.9846 16.6213 26.5746C18.4575 25.1647 19.7961 23.2057 20.4424 20.9827C20.8648 22.1403 21.1403 23.3464 21.2624 24.5727V24.3527C21.1343 23.1404 20.8589 21.9483 20.4424 20.8027Z" fill="url(#paint18_linear_489_756)"/>
<path opacity="0.5" d="M22.4542 18.8823C22.4542 18.6823 22.3542 16.8823 22.3442 16.6523H22.2942C22.2942 16.8523 22.3842 18.6523 22.3842 18.8523C22.3937 20.8022 22.0341 22.7363 21.3242 24.5523H21.4142C22.1117 22.7438 22.4644 20.8207 22.4542 18.8823Z" fill="url(#paint19_linear_489_756)"/>
</g>
<path d="M29.8241 13.8933C30.2585 13.901 30.675 14.0683 30.9941 14.3633C30.9941 13.2433 30.4641 12.3633 29.8241 12.3633C29.1841 12.3633 28.6741 13.2633 28.6641 14.3633C28.9816 14.0721 29.3934 13.9053 29.8241 13.8933Z" fill="url(#paint20_linear_489_756)"/>
<path opacity="0.3" d="M30.9342 14.3133L30.9942 14.3633C30.9942 13.2433 30.4642 12.3633 29.8242 12.3633C30.4042 12.3833 30.9042 13.2333 30.9342 14.3133Z" fill="url(#paint21_linear_489_756)"/>
<path opacity="0.5" d="M28.6628 14.3535C28.6628 13.2635 29.1728 12.3535 29.7928 12.3535C29.1528 12.3535 28.6328 13.2735 28.6328 14.4035L28.6628 14.3535Z" fill="url(#paint22_linear_489_756)"/>
<defs>
<linearGradient id="paint0_linear_489_756" x1="1.77081" y1="7.43375" x2="16.4508" y2="20.6338" gradientUnits="userSpaceOnUse">
<stop stop-color="#6D62AB"/>
<stop offset="1" stop-color="#946DAF"/>
</linearGradient>
<linearGradient id="paint1_linear_489_756" x1="4.31253" y1="15.9536" x2="20.1325" y2="13.0836" gradientUnits="userSpaceOnUse">
<stop stop-color="#6D62AB"/>
<stop offset="1" stop-color="#946DAF" stop-opacity="0"/>
</linearGradient>
<linearGradient id="paint2_linear_489_756" x1="2.473" y1="16.9937" x2="18.283" y2="18.8137" gradientUnits="userSpaceOnUse">
<stop stop-color="#3C439B"/>
<stop offset="1" stop-color="#946DAF" stop-opacity="0"/>
</linearGradient>
<linearGradient id="paint3_linear_489_756" x1="7.33129" y1="24.6333" x2="27.2713" y2="6.21326" gradientUnits="userSpaceOnUse">
<stop stop-color="#EE98A2"/>
<stop offset="1" stop-color="#FBB958"/>
</linearGradient>
<radialGradient id="paint4_radial_489_756" cx="0" cy="0" r="1" gradientUnits="userSpaceOnUse" gradientTransform="translate(29.4413 6.17326) scale(9.72)">
<stop stop-color="#FBB958"/>
<stop offset="1" stop-color="#FBB958" stop-opacity="0"/>
</radialGradient>
<linearGradient id="paint5_linear_489_756" x1="72.8733" y1="-92.3765" x2="93.9462" y2="-61.4712" gradientUnits="userSpaceOnUse">
<stop stop-color="#FBB958"/>
<stop offset="1" stop-color="#FBB958" stop-opacity="0"/>
</linearGradient>
<linearGradient id="paint6_linear_489_756" x1="254.096" y1="-849.799" x2="560.795" y2="-478.893" gradientUnits="userSpaceOnUse">
<stop stop-color="#FBB958"/>
<stop offset="1" stop-color="#FBB958" stop-opacity="0"/>
</linearGradient>
<linearGradient id="paint7_linear_489_756" x1="7.89234" y1="0.203103" x2="19.3923" y2="9.2231" gradientUnits="userSpaceOnUse">
<stop stop-color="#EE98A2" stop-opacity="0"/>
<stop offset="1" stop-color="#BD7CB5"/>
</linearGradient>
<linearGradient id="paint8_linear_489_756" x1="113.48" y1="-51.7921" x2="135.981" y2="-36.865" gradientUnits="userSpaceOnUse">
<stop stop-color="#FBB958"/>
<stop offset="1" stop-color="#FBB958" stop-opacity="0"/>
</linearGradient>
<linearGradient id="paint9_linear_489_756" x1="7.89234" y1="0.203103" x2="19.3923" y2="9.2231" gradientUnits="userSpaceOnUse">
<stop stop-color="#EE98A2" stop-opacity="0"/>
<stop offset="1" stop-color="#BD7CB5"/>
</linearGradient>
<linearGradient id="paint10_linear_489_756" x1="21.5014" y1="14.8338" x2="12.7414" y2="30.0638" gradientUnits="userSpaceOnUse">
<stop stop-color="#EE98A2" stop-opacity="0"/>
<stop offset="1" stop-color="#EE98A2"/>
</linearGradient>
<linearGradient id="paint11_linear_489_756" x1="104.395" y1="52.8033" x2="104.395" y2="49.0833" gradientUnits="userSpaceOnUse">
<stop stop-color="#6D62AB"/>
<stop offset="1" stop-color="#946DAF"/>
</linearGradient>
<linearGradient id="paint12_linear_489_756" x1="67.1362" y1="52.5233" x2="66.9556" y2="49.047" gradientUnits="userSpaceOnUse">
<stop stop-color="#6D62AB"/>
<stop offset="1" stop-color="#946DAF"/>
</linearGradient>
<linearGradient id="paint13_linear_489_756" x1="62.2071" y1="-16.5865" x2="64.3317" y2="-19.9328" gradientUnits="userSpaceOnUse">
<stop stop-color="#FBB958"/>
<stop offset="1" stop-color="#FBB958" stop-opacity="0"/>
</linearGradient>
<linearGradient id="paint14_linear_489_756" x1="5.9118" y1="25.7924" x2="18.3718" y2="9.31242" gradientUnits="userSpaceOnUse">
<stop stop-color="#A874B2"/>
<stop offset="0.58" stop-color="#BD7CB5"/>
<stop offset="1" stop-color="#BD7CB5" stop-opacity="0"/>
</linearGradient>
<linearGradient id="paint15_linear_489_756" x1="386.16" y1="341.408" x2="-84.3345" y2="306.953" gradientUnits="userSpaceOnUse">
<stop stop-color="#EE98A2" stop-opacity="0"/>
<stop offset="1" stop-color="#BD7CB5"/>
</linearGradient>
<linearGradient id="paint16_linear_489_756" x1="353.529" y1="371.724" x2="140.379" y2="159.297" gradientUnits="userSpaceOnUse">
<stop stop-color="#EE98A2" stop-opacity="0"/>
<stop offset="1" stop-color="#BD7CB5"/>
</linearGradient>
<linearGradient id="paint17_linear_489_756" x1="4.68203" y1="22.3529" x2="8.25203" y2="17.6329" gradientUnits="userSpaceOnUse">
<stop stop-color="#A874B2"/>
<stop offset="0.39" stop-color="#BD7CB5"/>
<stop offset="1" stop-color="#BD7CB5" stop-opacity="0"/>
</linearGradient>
<linearGradient id="paint18_linear_489_756" x1="2.90237" y1="22.8227" x2="18.7724" y2="19.5227" gradientUnits="userSpaceOnUse">
<stop offset="0.02" stop-color="#FBB958" stop-opacity="0"/>
<stop offset="0.31" stop-color="#FBB958"/>
<stop offset="0.37" stop-color="#FBB958" stop-opacity="0.97"/>
<stop offset="0.46" stop-color="#FBB958" stop-opacity="0.88"/>
<stop offset="0.58" stop-color="#FBB958" stop-opacity="0.74"/>
<stop offset="0.7" stop-color="#FBB958" stop-opacity="0.55"/>
<stop offset="0.85" stop-color="#FBB958" stop-opacity="0.29"/>
<stop offset="1" stop-color="#FBB958" stop-opacity="0"/>
</linearGradient>
<linearGradient id="paint19_linear_489_756" x1="46.7993" y1="132.861" x2="23.3817" y2="118.035" gradientUnits="userSpaceOnUse">
<stop offset="0.02" stop-color="#FBB958" stop-opacity="0"/>
<stop offset="0.31" stop-color="#FBB958"/>
<stop offset="0.37" stop-color="#FBB958" stop-opacity="0.97"/>
<stop offset="0.46" stop-color="#FBB958" stop-opacity="0.88"/>
<stop offset="0.58" stop-color="#FBB958" stop-opacity="0.74"/>
<stop offset="0.7" stop-color="#FBB958" stop-opacity="0.55"/>
<stop offset="0.85" stop-color="#FBB958" stop-opacity="0.29"/>
<stop offset="1" stop-color="#FBB958" stop-opacity="0"/>
</linearGradient>
<linearGradient id="paint20_linear_489_756" x1="98.1447" y1="52.7433" x2="98.1447" y2="49.1433" gradientUnits="userSpaceOnUse">
<stop stop-color="#6D62AB"/>
<stop offset="1" stop-color="#946DAF"/>
</linearGradient>
<linearGradient id="paint21_linear_489_756" x1="65.439" y1="52.5433" x2="65.2004" y2="49.0339" gradientUnits="userSpaceOnUse">
<stop stop-color="#6D62AB"/>
<stop offset="1" stop-color="#946DAF"/>
</linearGradient>
<linearGradient id="paint22_linear_489_756" x1="61.8669" y1="-17.672" x2="64.0778" y2="-20.2323" gradientUnits="userSpaceOnUse">
<stop stop-color="#FBB958"/>
<stop offset="1" stop-color="#FBB958" stop-opacity="0"/>
</linearGradient>
</defs>
</svg>
