<?xml version="1.0" encoding="utf-8"?>
<!-- Generator: Adobe Illustrator 26.1.0, SVG Export Plug-In . SVG Version: 6.00 Build 0)  -->
<svg version="1.1" id="logo" xmlns="http://www.w3.org/2000/svg" xmlns:xlink="http://www.w3.org/1999/xlink" x="0px" y="0px"
	 viewBox="0 0 2964.5 1084.5" style="enable-background:new 0 0 2964.5 1084.5;" xml:space="preserve">
<style type="text/css">
	.st0{fill:#F4A427;}
	.st1{fill:#FFFFFF;}
	.st2{fill:#929497;}
	.st3{fill:#5A595C;}
	.st4{fill:#F79422;}
	.st5{fill:none;stroke:#000000;stroke-width:15.2506;stroke-linecap:round;stroke-linejoin:round;stroke-miterlimit:10;}
	.st6{fill:#F4A427;stroke:#000000;stroke-width:15.1263;stroke-miterlimit:10;}
</style>
<g>
	<path class="st0" d="M955.5,617.9c-6.4,2.5-14.7,7-21.9,8.5c-100.6-45.6-235.1-61.3-347.1-61.6c0,0,0,0,0,0c-1,0-1.4,0-2,0
		c-0.6,0-2,0-2,0c0,0,0,0,0,0c-110,0.3-246.6,16-347.1,61.6c-7.2-1.5-15.7-6-22.1-8.5c-19.9,22-50.2,111.7-59.7,166.3
		c-0.1,0.4,0.3,1,0.3,1.4c129.6-23.1,149.3,52,204,53.2c36.6,1.2,91.9-99.7,226.9-100.5c133.3,0.8,190,101.7,226.6,100.5
		c54.7-1.2,74.2-76.3,203.8-53.2c0-0.4,0.3-1,0.2-1.4C1005.8,729.6,975.4,639.9,955.5,617.9z"/>
	<path class="st1" d="M1012.9,770.5c-124.6-25.3-163.7,54.4-203.8,53.9c-39.5-0.5-89.7-98.4-222.7-100.4c0,0,0,0,0,0
		c-1,0-1.6,0-2.5,0c-0.9,0-1.5,0-2.5,0c0,0,0,0,0,0c-133,1.9-183.1,99.8-222.6,100.4c-40.1,0.6-79.2-79.2-203.8-53.9
		c-2,14.4-23.1,103.5,65.2,187.6c119.6,113.4,337.5,116.8,363.8,116.8c26.3,0,244.2-3.4,363.8-116.8
		C1036.1,874,1014.9,784.9,1012.9,770.5z"/>
	<path class="st2" d="M973.6,547.5c-112.6-82.1-263.5-94.3-383.7-99.6c0-0.6,0-1.2,0-1.7c-122.9,5.2-279.8,16.1-396.3,99.9
		c-1.4,8.4,0,56.4,0,56.4s30.3,14.3,41.8,19.7c138.1-54.2,313.4-57.6,347.7-57.7c0,0.9,0,1.4,0,1.4s197.3-2.8,349.1,57.7
		c11.3-5.4,41.3-19.7,41.3-19.7S975,556,973.6,547.5z"/>
	<polygon class="st2" points="660.9,446.2 509.9,446.6 528.1,216.5 584.3,202.2 642.4,216.5 	"/>
	<path class="st3" d="M966.5,539.1L803,473.7l-142.1-27.5l-15.3-189.9c0,0,133.3,13.7,170.5,73.6c-9.4,78.8,50.3,163.9,151.2,176.7
		C967.4,522.3,966.5,539.1,966.5,539.1z"/>
	<path class="st3" d="M200.5,539.1L364,473.7l142.1-27.5l15.3-189.9c0,0-133.3,13.7-170.5,73.6c9.4,78.8-50.3,163.9-151.2,176.7
		C199.6,522.3,200.5,539.1,200.5,539.1z"/>
	<path class="st4" d="M1108.5,384.3c-32.9,43.6-50.4,58.1-74.5,78.4c-6.6,5.5-26.8,20.3-45.8,28.5c-3,1.3-5.6,2.3-7.9,3.2
		c-1.8,0.6-3.4,1.2-4.9,1.6c-10.8,3-16.5,0.5-37-3.5c-1.4-0.2-7.7-1.4-9-1.6c-13-2.3-38.4-11-61.6-33.2
		c-35.9-34.4-53-74.6-41.5-135.4c49.9,1.2,133.9-51.8,173.1-106.9c45.9-64.7,37-141,25.6-188.7c-3.5-14.9,14-25.7,26.1-16.2
		C1194.9,122.9,1172.3,299.9,1108.5,384.3"/>
	<path class="st4" d="M73.4,383.7c32.9,43.6,50.4,58.1,74.5,78.4c6.6,5.5,26.8,20.3,45.8,28.5c3,1.3,5.6,2.3,7.9,3.2
		c1.8,0.6,3.4,1.2,4.9,1.6c10.8,3,16.5,0.5,37-3.5c1.4-0.3,7.7-1.4,9-1.6c13-2.3,38.4-11,61.6-33.2c35.9-34.4,53-74.6,41.5-135.4
		c-49.9,1.2-133.9-51.8-173.1-106.9c-45.9-64.7-37-141-25.6-188.7c3.5-14.9-14-25.7-26.1-16.2C-13,122.3,9.6,299.3,73.4,383.7"/>
	<g>
		<g>
			<path d="M205.5,608.2c-40.9,79.7-78.1,177.1-49.7,267c11,34.9,32.2,65.5,58.8,90.4c23.2,21.7,50.2,38.8,78,54
				c65.9,36.1,139.5,54.1,213.9,61.4c25.9,2.5,51.8,3.7,77.8,3.9c10.7,0.1,10.7-16.6,0-16.6c-87.4-0.6-178.1-13-257-49.7
				c-55.4-25.8-111.3-61.4-141.7-116c-41.9-75.1-19.3-166.3,12.8-240.7c6.6-15.3,13.9-30.4,21.5-45.2
				C224.7,607.1,210.4,598.6,205.5,608.2L205.5,608.2z"/>
		</g>
	</g>
	<g>
		<g>
			<path d="M184.7,614.5c15.2,7.5,30.8,14.5,46.5,21.1c7,2.9,15.2-3.1,17.1-9.7c2.2-8-2.7-14.2-9.7-17.1c-1.3-0.6-1.1-0.5,0.7,0.3
				c-0.7-0.3-1.3-0.6-2-0.9c-1.5-0.6-3-1.3-4.5-1.9c-3.9-1.7-7.7-3.4-11.6-5.2c-7.5-3.4-15.1-6.9-22.5-10.6c-6.8-3.3-15-1.9-19,5
				C176.1,601.7,177.9,611.1,184.7,614.5L184.7,614.5z"/>
		</g>
	</g>
	<g>
		<g>
			<path d="M238.5,635.5c43.1-17.4,88.4-29,134-37.5c55.9-10.4,112.1-15.6,169.6-17.9c14-0.5,28.1-0.9,42.1-1
				c7.6-0.1,13.9-6.2,13.9-13.9c0-7.5-6.3-13.9-13.9-13.9c-60.6,0.7-121.1,4.9-181.1,13.6c-48.7,7.1-97,17.4-143.7,33.3
				c-9.6,3.2-19,6.8-28.4,10.6c-7,2.8-11.9,9.1-9.7,17.1C223.3,632.5,231.5,638.4,238.5,635.5L238.5,635.5z"/>
		</g>
	</g>
	<g>
		<g>
			<path d="M205.6,602.5c0-18.2-0.7-36.4-0.2-54.6c0.2-7.6-6.5-13.9-13.9-13.9c-7.7,0-13.6,6.3-13.9,13.9
				c-0.6,18.2,0.2,36.4,0.2,54.6c0,7.6,6.3,13.9,13.9,13.9C199.3,616.4,205.6,610.1,205.6,602.5L205.6,602.5z"/>
		</g>
	</g>
	<g>
		<g>
			<path d="M198.5,559.9c12.4-7.9,25.2-15.2,38.2-22.1c7.5-3.9,15-7.7,22.6-11.3c3.9-1.8,7.8-3.6,11.7-5.4c2-0.9,4-1.8,6.1-2.7
				c1-0.4,2.1-0.9,3.1-1.3c1.4-0.6,1.4-0.6-0.2,0.1c0.7-0.3,1.4-0.6,2.1-0.9c40.4-16.9,82.6-29.5,125.5-38.5
				c27.6-5.8,54-9.8,81.2-12.6c31.7-3.3,63.6-4.7,95.4-4.8c7.6,0,13.9-6.3,13.9-13.9c0-7.6-6.3-13.9-13.9-13.9
				c-102.2,0.1-205.6,15.3-300.9,53.3c-34.3,13.7-67.6,30-98.8,49.8c-6.4,4-8.9,12.3-5,19C183.3,561.2,192.1,563.9,198.5,559.9
				L198.5,559.9z"/>
		</g>
	</g>
	<g>
		<g>
			<path d="M96.8,20.2c-20,21.1-38.1,44-53.3,68.8c-12.8,20.9-23.3,43.3-30.9,66.7c-8.2,25.5-11.6,52.4-11.5,79.1
				C1.8,338.2,62.4,433,145.7,490.9c23.4,16.2,51.8,27.2,80.6,24.5c15.8-1.5,29.6-7,43.8-13.8c10.9-5.3,21.7-10.8,31.9-17.4
				c20.5-13.3,37.2-31.1,48-53.1c10.6-21.5,15.8-45,16-69c0.1-10.9-1.2-21.9-3-32.6c-0.8-4.9-5.4-8.2-9.7-9.7
				c-15.7-5.5-32.2-8.4-47.8-14.2c-2.3-0.9-4.6-1.8-6.9-2.7c-2.4-1,3.3,1.4,0.9,0.4c-0.6-0.3-1.3-0.5-1.9-0.8
				c-1.5-0.7-3.1-1.4-4.6-2.1c-6.1-2.8-12-5.8-17.9-9c-6.7-3.6-13.2-7.5-19.6-11.6c-3.3-2.1-6.5-4.3-9.7-6.6
				c-1.6-1.2-3.3-2.3-4.9-3.5c-0.8-0.6-1.6-1.2-2.5-1.8c-0.5-0.4-1.1-0.8-1.6-1.2c1.4,1.1,1.6,1.2,0.4,0.3
				c-14.4-11.3-27.6-24.1-39.2-38.2c-0.7-0.9-1.4-1.8-2.2-2.7c-2.4-3,1.7,2.2-0.7-0.9c-1.4-1.9-2.8-3.8-4.1-5.7
				c-3-4.2-5.8-8.6-8.4-13c-2.5-4.2-4.8-8.5-7.1-12.8c-1.1-2.2-2.2-4.5-3.2-6.7c-0.5-1.1-1-2.3-1.5-3.4c-0.6-1.5-0.7-1.5-0.1-0.2
				c-0.3-0.8-0.6-1.6-1-2.4c-4.1-10.2-7.2-20.7-9.6-31.4c-0.6-2.7-1.1-5.4-1.6-8.1c-0.2-1.4-0.5-2.7-0.7-4.1c0-0.1-0.7-4.7-0.3-1.9
				c-0.8-6.2-1.3-12.5-1.6-18.8c-1.2-26.4,0.8-51.9,5.8-76.1c2.9-14.4,1.7-29.9-13.1-37.2c-15.1-7.4-30.9-0.5-43.1,9.1
				C102.4,14.8,99.5,17.4,96.8,20.2c-12.4,12.9,7.2,32.5,19.6,19.6c4.4-4.6,7.2-6.9,12.2-9.8c2.7-1.6,2.5-1.4,6.1-2.2
				c-2.6,0.6,1.3,0.1,1.7,0.1c-1.5-0.2-1.4-0.1,0.2,0.3c-1.2-0.5-1.1-0.4,0.4,0.4c-0.7-0.4-2.4-3.1-1-0.8c-1.8-3-0.1,1.8-0.5-1.6
				c0.1,1.2,0,2.5,0,3.7c-0.2,4.2,0.5-2.7-0.3,1.8c-1.2,6.6-2.8,13.1-3.8,19.7c-3.8,26.2-4.9,53.5-2.1,79.8
				c4.8,44.9,23,86.1,52,120.5c22.3,26.5,50.9,48.1,81.4,64.4c11.5,6.2,23.4,11.6,35.5,16.2c15.5,5.9,32.1,8.7,47.8,14.2
				c-3.2-3.2-6.5-6.5-9.7-9.7c4.2,25.4,2.3,48-6.5,71.6c-0.4,1.1-0.8,2.1-1.2,3.2c-1.4,3.5,1.2-2.6-0.3,0.7
				c-0.8,1.9-1.7,3.7-2.6,5.5c-2.6,5.2-5.5,10.2-8.8,15c-2.1,3.1-1.9,2.8-3.9,5.2c-1.8,2.1-3.6,4.2-5.6,6.2c-1.9,2-3.9,3.8-5.9,5.7
				c-1,0.9-2.1,1.8-3.1,2.7c-0.7,0.6-1.4,1.2-2.1,1.7c1-0.8,0.9-0.7-0.4,0.3c-9.4,7.1-19.8,12.9-30.3,18.2
				c-11.8,6-23.4,11.7-36.5,14.3c-4.3,0.8-11.6,1-17.3,0.7c-5.7-0.3-11.6-1.6-18.2-3.6c-12.5-3.8-24.1-10.5-35.3-18.3
				c-9.6-6.7-17.8-13.5-27.4-22c-9.1-8.1-17.8-16.7-26-25.6c-16.4-17.8-29.4-35.7-41.7-57.5c-24.2-42.8-36-90.7-34-140.2
				c1-23.2,5.4-44.7,13.6-67.5c3.8-10.3,7.3-18.1,12.6-28.6c4.7-9.3,9.9-18.2,15.5-27c4.9-7.8,10.2-15.4,15.7-22.9
				c1.1-1.5,2.2-2.9,3.3-4.4c2.2-2.9-1.8,2.3,0.4-0.5c0.6-0.8,1.3-1.6,1.9-2.4c2.3-2.9,4.7-5.8,7.1-8.7c5.5-6.5,11.2-12.7,17-18.9
				C128.7,26.8,109.1,7.2,96.8,20.2z"/>
		</g>
	</g>
	<g>
		<g>
			<path d="M189.2,498.2c-6.1,15.7-3.9,36.2,10.1,47c6,4.6,13.8,5.8,19.6,0c4.8-4.8,6-15,0-19.6c-1.1-0.9-2.2-1.8-3.2-2.8
				c-1.1-1.2-1.2-1.3-0.3-0.3c-0.5-0.7-0.9-1.4-1.2-2.2c1.4,2.6-0.1-0.8-0.2-1.3c-0.3-1.6-0.3-1.6-0.1,0.2c-0.1-0.8-0.1-1.5-0.2-2.3
				c-0.1-1.1,0-2.3,0.1-3.4c0.2-1.6,0.1-1.5-0.1,0.5c0.1-0.7,0.2-1.3,0.4-2c0.4-2.2,1.1-4.3,1.9-6.4c2.7-7.1-3-15.2-9.7-17.1
				C198.4,486.4,191.9,491.2,189.2,498.2L189.2,498.2z"/>
		</g>
	</g>
	<g>
		<g>
			<path d="M359.5,343c42.4-43.9,105.9-74.6,166.4-72.7c7.6,0.2,13.9-6.5,13.9-13.9c0-7.7-6.3-13.6-13.9-13.9
				c-34.5-1-68.3,8-99.7,21.5c-32.1,13.8-62,34.2-86.3,59.3C327.5,336.3,347.1,355.9,359.5,343L359.5,343z"/>
		</g>
	</g>
	<g>
		<g>
			<path d="M520.9,449.6c8.1-77.7,16-155.4,24.1-233c0.8-7.5-6.9-13.9-13.9-13.9c-8.2,0-13.1,6.4-13.9,13.9
				c-8.1,77.7-16,155.4-24.1,233c-0.8,7.5,6.9,13.9,13.9,13.9C515.2,463.4,520.1,457.1,520.9,449.6L520.9,449.6z"/>
		</g>
	</g>
	<g>
		<g>
			<path d="M538.1,228.5c13.5-8.9,30.3-11.9,46.1-12.5c7.5-0.3,13.9-6.1,13.9-13.9c0-7.3-6.3-14.2-13.9-13.9
				c-20.6,0.8-42.6,4.8-60.1,16.3c-6.3,4.1-8.9,12.2-5,19C522.8,229.8,531.8,232.7,538.1,228.5L538.1,228.5z"/>
		</g>
	</g>
	<g>
		<g>
			<path d="M948.4,616.6c39.7,77.5,76.7,173.3,46,260.2c-22,62.3-77.9,102.6-134.2,132.3c-68.5,36.1-147.1,52.4-224.9,57.4
				c-17,1.1-34,1.6-51,1.7c-10.7,0.1-10.7,16.7,0,16.6c89.4-0.6,180.3-13.2,262.2-50.6c56.7-25.9,113.2-62.2,146.4-116.1
				c45.3-73.5,31-163.2,1.7-239.7c-9.2-24-20-47.4-31.7-70.3C957.9,598.6,943.5,607.1,948.4,616.6L948.4,616.6z"/>
		</g>
	</g>
	<g>
		<g>
			<path d="M969.6,590.5c-7,3.4-14.1,6.7-21.1,10c-3.9,1.8-7.8,3.5-11.7,5.3c-1.5,0.7-3.1,1.3-4.6,2c-0.7,0.3-1.4,0.6-2.1,0.9
				c-3.3,1.4,2.7-1.1-0.3,0.1c-7,2.9-11.9,9.1-9.7,17.1c1.8,6.6,10.1,12.6,17.1,9.7c15.7-6.5,31.2-13.6,46.5-21.1
				c6.8-3.3,8.6-12.8,5-19C984.5,588.6,976.3,587.2,969.6,590.5L969.6,590.5z"/>
		</g>
	</g>
	<g>
		<g>
			<path d="M937.1,608.8c-43.1-17.4-88.3-29-133.9-37.5c-57.1-10.7-115.1-16.3-173-18.7c-15.3-0.6-30.6-1-45.8-1.2
				c-7.6-0.1-13.9,6.4-13.9,13.9c0,7.6,6.3,13.8,13.9,13.9c108,1.2,216.8,11.3,319.5,46.7c8.7,3,17.4,6.3,25.9,9.7
				c7,2.8,15.2-3,17.1-9.7C949,617.9,944.1,611.6,937.1,608.8L937.1,608.8z"/>
		</g>
	</g>
	<g>
		<g>
			<path d="M990.4,602.5c0-18.2,0.7-36.4,0.2-54.6c-0.2-7.6-6.1-13.9-13.9-13.9c-7.4,0-14.1,6.3-13.9,13.9
				c0.6,18.2-0.2,36.4-0.2,54.6c0,7.6,6.3,13.9,13.9,13.9C984.1,616.4,990.4,610.1,990.4,602.5L990.4,602.5z"/>
		</g>
	</g>
	<g>
		<g>
			<path d="M983.7,535.9c-64.7-41-137.9-68.2-212.6-84.2c-61.3-13.2-124.2-18.9-186.8-19c-7.6,0-13.9,6.3-13.9,13.9
				c0,7.6,6.3,13.9,13.9,13.9c101.1,0.1,201,15.1,295.5,53.2c2.1,0.9,4.3,1.7,6.4,2.6c3.5,1.5-2.6-1.1,0.9,0.4
				c1.4,0.6,2.7,1.2,4.1,1.8c4.3,1.9,8.7,3.8,13,5.8c8.4,3.9,16.7,7.9,24.8,12.2c13.9,7.2,27.5,15,40.8,23.4c6.4,4,15.3,1.4,19-5
				C992.6,548.2,990.1,540,983.7,535.9L983.7,535.9z"/>
		</g>
	</g>
	<g>
		<g>
			<path d="M1051.8,39.8c6.4,6.8,12.7,13.7,18.7,20.9c2.5,3,4.9,6,7.3,9c2.2,2.8-1.8-2.4,0.4,0.5c0.7,0.9,1.3,1.7,2,2.6
				c1.6,2.1,3.1,4.2,4.7,6.4c6.1,8.4,11.8,17.2,17.2,26.1c12.7,21.1,21.7,40.5,28.5,63.6c7.4,25.1,9.5,48.7,8.5,75.3
				c-1.9,48.1-18.6,94.4-45.5,135.5c-13.1,19.9-27.7,37.1-45.5,54.4c-18.7,18.2-36.7,33.5-60.1,45c-9.3,4.6-21.9,8.2-31.6,8.9
				c-12.8,0.9-23.3-1.3-35.5-6.1c-10.2-4.1-20.3-9.7-29.9-15.1c-4.5-2.5-8.9-5.2-13.1-8.1c-2.3-1.5-4.5-3.1-6.7-4.8
				c2.1,1.6-1.4-1.2-1.5-1.2c-1.1-0.9-2.1-1.8-3.1-2.7c-8.7-7.7-13.8-14.1-19.4-23.3c-2.2-3.7-4.2-7.5-6.1-11.4
				c-0.4-0.9-0.9-1.9-1.3-2.9c-1.5-3.3,1.1,2.8-0.3-0.7c-0.9-2.2-1.7-4.4-2.5-6.6c-7.8-22.3-9.3-44.2-5.2-68.2
				c-3.2,3.2-6.5,6.5-9.7,9.7c15.7-5.5,32.2-8.4,47.8-14.2c12.2-4.5,24.1-10.1,35.5-16.2c30.6-16.3,58.9-38,81.4-64.4
				c29.3-34.4,46.9-75.7,52-120.5c3-26.3,1.5-53.6-2.1-79.8c-0.8-6.2-2.3-12.2-3.5-18.3c0-0.1-0.8-4.8-0.4-1.9
				c-0.2-1.3-0.2-2.5-0.2-3.8c0-3.8-0.7,2.6,0.2-0.9c-0.8,1.6-0.8,1.7,0,0.4c-0.3,0.8-0.9,1.3-1.6,1.7c2.9-2.1-1.5,0.1,1.7-0.8
				c-2.6,0.7,0.9,0.1,1.6,0.1c-2.8-0.1,1.4,0.5,1.7,0.6c4,1.1-1.7-1,2.1,0.8c1.4,0.7,2.6,1.5,3.9,2.3c-0.3-0.2,3.8,2.7,2.1,1.4
				C1047,35,1049.5,37.4,1051.8,39.8c12.4,12.9,32-6.7,19.6-19.6c-10.1-10.5-22.2-18.5-36.9-20c-7.5-0.8-15.6,2.5-21.2,7.4
				c-5.8,5.1-8.1,12.3-8.5,19.8c-0.3,6.4,1.6,13,2.9,19.2c0.7,3.1,1.3,6.2,1.8,9.3c0.5,3,0.6,4.2,1,8.4c1.4,13.4,1.8,27,1.9,40.5
				c0,5.9-0.2,11.9-0.6,17.8c-0.2,2.9-0.5,5.8-0.8,8.7c-0.5,4.4-0.3,3.2-1,7.5c-1.8,11.1-4.5,21.9-8.1,32.6
				c-0.8,2.4-1.7,4.9-2.6,7.3c-0.5,1.2-0.9,2.4-1.4,3.6c-1.6,3.9,1.1-2.5-0.6,1.3c-2.1,4.9-4.5,9.8-7,14.5
				c-4.7,8.8-10.1,17.2-16,25.2c-0.7,0.9-1.4,1.9-2.1,2.8c1.9-2.6-0.4,0.5-0.7,0.9c-1.4,1.8-2.9,3.6-4.4,5.3
				c-3.2,3.7-6.5,7.4-9.8,10.9c-6.3,6.6-13,12.7-19.9,18.5c-1.6,1.4-3.2,2.7-4.9,4c-0.8,0.7-1.6,1.3-2.5,1.9c2.8-2.2,0,0-0.5,0.3
				c-3.5,2.6-7,5.2-10.6,7.6c-6.5,4.4-13.1,8.6-20,12.5c-6.1,3.5-12.3,6.7-18.6,9.8c-2.7,1.3-5.4,2.6-8.1,3.8
				c-1.3,0.6-2.6,1.1-3.8,1.7c-2.4,1,3.3-1.4,0.9-0.4c-0.8,0.3-1.6,0.7-2.4,1c-15.1,6.1-31.3,9.6-46.9,14.3
				c-1.8,0.5-3.6,1.1-5.3,1.7c-4.3,1.5-8.9,4.8-9.7,9.7c-8.3,49.7,2.7,103.9,40.9,139.2c18.7,17.2,42.5,29.4,65.8,39.2
				c28.2,11.9,58,9.1,85.6-2.8c24.3-10.5,45.6-28.6,64.9-46.4c18.4-17,34.9-36.1,49.4-56.6c29.6-41.7,48.2-90.3,53.8-141.1
				c2.9-26.6,1.7-53.9-3.4-80.2c-4.9-25-14.4-49-26-71.6c-16-31-37.1-59.8-61-85.2c-1.2-1.3-2.5-2.6-3.7-3.9
				C1059.1,7.2,1039.5,26.8,1051.8,39.8z"/>
		</g>
	</g>
	<g>
		<g>
			<path d="M952.4,505.6c0.7,1.8,1.2,3.6,1.7,5.4c0.2,1,0.4,2,0.6,3c-0.7-3.8-0.1,1,0,1.8c0,1.2-0.1,2.3-0.2,3.5
				c0.3-3.4-0.6,1.4-0.8,2.1c1.1-3.5-2.1,2.9-0.1,0.4c-1.2,1.5-2.6,2.7-4.1,3.8c-6,4.6-4.8,14.8,0,19.6c5.8,5.8,13.6,4.6,19.6,0
				c14-10.8,16.2-31.3,10.1-47c-2.7-7-9.2-11.8-17.1-9.7C955.3,490.4,949.6,498.6,952.4,505.6L952.4,505.6z"/>
		</g>
	</g>
	<g>
		<g>
			<path d="M828.4,323.4c-24.4-25.2-54.2-45.3-86.3-59.3c-31.3-13.7-65.4-22.6-99.7-21.5c-7.6,0.2-13.9,6.1-13.9,13.9
				c0,7.4,6.3,14.1,13.9,13.9c60.5-1.8,124,28.8,166.4,72.7C821.2,355.9,840.8,336.3,828.4,323.4L828.4,323.4z"/>
		</g>
	</g>
	<g>
		<g>
			<path d="M675.1,449.6c-8.1-77.7-16-155.4-24.1-233c-0.8-7.5-5.7-13.9-13.9-13.9c-7,0-14.7,6.3-13.9,13.9
				c8.1,77.7,16,155.4,24.1,233c0.8,7.5,5.7,13.9,13.9,13.9C668.2,463.4,675.9,457.1,675.1,449.6L675.1,449.6z"/>
		</g>
	</g>
	<g>
		<g>
			<path d="M644.1,204.6c-17.4-11.5-39.3-15.4-59.9-16.3c-7.6-0.3-13.9,6.5-13.9,13.9c0,7.8,6.3,13.6,13.9,13.9
				c15.7,0.6,32.5,3.7,45.9,12.5c6.3,4.2,15.3,1.3,19-5C653.1,216.8,650.4,208.7,644.1,204.6L644.1,204.6z"/>
		</g>
	</g>
	<path class="st5" d="M524,872c11.1,2,23.3,1.3,32.9-3.9c14.1-7.6,26.8-14.1,26.8-40.8c0,26.8,12.7,33.3,26.7,40.8
		c9.7,5.2,21.8,5.9,32.9,3.9"/>
	<path d="M643.3,776.2c0,17.7-27.8,42.5-62.1,42.5c-34.3,0-62.1-23.8-62.1-41.4c0-17.6,27.8-23.8,62.1-23.8
		C615.5,753.5,643.3,758.6,643.3,776.2"/>
	<path class="st1" d="M607.4,769.4c0,4.1-11.7,9.9-26.2,9.9c-14.5,0-26.2-5.6-26.2-9.7c0-4.1,11.7-3.4,26.2-3.4
		C595.7,766.3,607.4,765.3,607.4,769.4"/>
	<path class="st5" d="M486,827.5c0,24.2,12.5,38.5,34,43.6c1.3,0.3,2.6,0.6,4,0.8"/>
	<path class="st5" d="M583.4,806.6c0.3,8.1,0.1,13.3,0.3,20.6"/>
	<path class="st5" d="M643.3,872c1.4-0.2,2.8-0.5,4.1-0.8c21.6-5.2,34-19.4,34-43.6"/>
	<path d="M469.9,677.7c0,32.9-19.6,59.6-43.9,59.6c-24.2,0-43.9-26.7-43.9-59.6c0-28.6,14.8-52.5,34.6-58.3
		c13.2,9.5,29.6,21.3,49.9,35.8C468.7,662.2,469.9,669.8,469.9,677.7"/>
	<path class="st1" d="M453.7,669.8c0,11.8-7,21.3-15.7,21.3c-8.7,0-15.7-9.5-15.7-21.3c0-11.8,7-21.3,15.7-21.3
		C446.6,648.5,453.7,658.1,453.7,669.8"/>
	<path d="M416.3,722.4c-16.7,14.2-32.9,29-46.1,45.7c-6.6,8.3-12.4,17.1-16.8,26.4c-4.5,9.4-7.6,19.3-9.5,29.8
		c-1,5.2-1.7,10.6-2.2,16l-0.8,8.1c-0.2,2.7-0.3,5.4-0.5,8.2c-0.5,10.9-0.3,21.9,0.6,32.8c0.9,11,2.4,21.9,4.7,32.8
		c1.2,5.4,2.4,10.8,3.9,16.2c1.5,5.3,3.1,10.7,5.5,15.7c-3-4.8-5.2-9.9-7.4-15.1c-2.2-5.2-4-10.5-5.8-15.8
		c-3.5-10.7-6.4-21.6-8.6-32.7c-2.2-11.1-3.7-22.4-4.6-33.7c-0.2-2.8-0.4-5.7-0.5-8.5l-0.2-8.6c-0.1-5.7,0.2-11.5,0.7-17.3
		c1-11.6,3.4-23.4,7.6-34.7c4.1-11.3,9.8-21.9,16.2-31.8c12.9-19.8,28.6-37,44.6-53.4c5.3-5.5,14.2-5.6,19.7-0.4
		c5.6,5.2,5.7,13.9,0.4,19.4C417,721.7,416.7,722,416.3,722.4L416.3,722.4z"/>
	<path d="M406.2,718c-2.1-0.2-2.5-0.4-3.3-0.6l-1.9-0.5l-3.5-0.9c-2.3-0.5-4.7-1-7-1.5c-4.7-0.8-9.5-1.4-14.3-1.7
		c-9.6-0.6-19.3,0.2-28.7,2.5c-4.7,1.2-9.4,2.7-13.8,4.8c-4.5,2.1-8.8,4.5-12.9,7.4c-8.2,5.8-15.3,13.4-21.3,21.9
		c3.9-9.6,9.3-18.9,16.6-26.9c3.6-4.1,7.7-7.8,12.1-11.1c4.4-3.4,9.2-6.3,14.3-8.8c10.1-5.1,21.1-8.4,32.4-10.3
		c5.6-0.9,11.3-1.5,17-1.7c2.9-0.1,5.7-0.2,8.6-0.1l4.2,0.1l2,0.1c0.5,0,1.5,0,0.6-0.1c7.7,0.3,13.7,6.7,13.3,14.3
		C420.4,712.4,413.9,718.3,406.2,718"/>
	<path d="M696.7,677.7c0,32.9,19.6,59.6,43.9,59.6c24.2,0,43.9-26.7,43.9-59.6c0-28.7-15-52.7-34.9-58.3
		c-13,9.3-25.1,18.1-49.5,35.6C697.9,662,696.7,669.7,696.7,677.7"/>
	<path class="st1" d="M712.9,669.8c0,11.8,7,21.3,15.7,21.3c8.7,0,15.7-9.5,15.7-21.3c0-11.8-7-21.3-15.7-21.3
		C720,648.5,712.9,658.1,712.9,669.8"/>
	<path d="M750.3,722.4c16.7,14.2,32.9,29,46.1,45.7c6.6,8.3,12.4,17.1,16.8,26.4c4.5,9.4,7.6,19.3,9.5,29.8c1,5.2,1.7,10.6,2.2,16
		l0.8,8.1c0.2,2.7,0.3,5.4,0.5,8.2c0.5,10.9,0.3,21.9-0.6,32.8c-0.9,11-2.4,21.9-4.7,32.8c-1.2,5.4-2.4,10.8-3.9,16.2
		c-1.5,5.3-3.1,10.7-5.5,15.7c3-4.8,5.2-9.9,7.4-15.1c2.2-5.2,4-10.5,5.8-15.8c3.5-10.7,6.4-21.6,8.6-32.7
		c2.2-11.1,3.7-22.4,4.6-33.7c0.2-2.8,0.4-5.7,0.5-8.5l0.2-8.6c0.1-5.7-0.2-11.5-0.7-17.3c-1-11.6-3.4-23.4-7.6-34.7
		c-4.1-11.3-9.8-21.9-16.2-31.8c-12.9-19.8-28.6-37-44.6-53.4c-5.3-5.5-14.2-5.6-19.7-0.4c-5.6,5.3-5.7,13.9-0.4,19.4
		C749.5,721.8,749.9,722,750.3,722.4L750.3,722.4z"/>
	<path d="M760.4,718c2.1-0.2,2.5-0.4,3.3-0.6l1.9-0.5l3.5-0.9c2.3-0.6,4.7-1,7-1.5c4.7-0.8,9.5-1.4,14.3-1.7
		c9.6-0.6,19.3,0.2,28.7,2.5c4.7,1.2,9.4,2.7,13.8,4.8c4.4,2.1,8.8,4.5,12.9,7.4c8.2,5.8,15.3,13.4,21.3,21.9
		c-3.9-9.6-9.3-18.9-16.6-26.9c-3.6-4.1-7.7-7.8-12.1-11.1c-4.4-3.4-9.2-6.3-14.3-8.8c-10.1-5.1-21.1-8.4-32.4-10.2
		c-5.6-0.9-11.3-1.5-17-1.7c-2.9-0.1-5.7-0.2-8.6-0.1l-4.2,0.1l-2,0.1c-0.5,0-1.5,0-0.6-0.1c-7.7,0.3-13.7,6.7-13.3,14.3
		C746.2,712.4,752.7,718.3,760.4,718"/>
</g>
<g>
	<path class="st6" d="M1222.6,818.2V400.3h319.2v90.8h-195.2v72h170.1v92.2h-170.1v162.9H1222.6z"/>
	<path class="st6" d="M1574.8,818.2V400.3h124v324.5H1890v93.4H1574.8z"/>
	<path class="st6" d="M2120.1,824.7c-70.3,0-124.1-16.9-161.2-50.6c-37.2-33.7-55.7-88.3-55.7-163.5c0-51.9,8.3-93.8,25.1-125.6
		c16.7-31.8,41.2-54.9,73.5-69.4c32.3-14.5,71.8-21.7,118.4-21.7c46.6,0,86.1,7.2,118.4,21.7c32.3,14.5,56.8,37.6,73.5,69.4
		c16.7,31.8,25.1,73.7,25.1,125.6c0,75.3-18.7,129.8-56.1,163.5C2243.6,807.9,2190,824.7,2120.1,824.7z M2120.1,720.9
		c31.7,0,54.6-8.8,68.9-26.3c14.3-17.5,21.4-45.5,21.4-84c0-41.1-7.2-70.2-21.4-87.3c-14.3-17.1-37.3-25.6-68.9-25.6
		c-31.7,0-54.6,8.5-68.9,25.6c-14.3,17.1-21.4,46.2-21.4,87.3c0,38.5,7.1,66.5,21.4,84C2065.5,712.1,2088.4,720.9,2120.1,720.9z"/>
	<path class="st6" d="M2383.2,818.2V400.3h124v147.3l128.6-147.3h141.1l-149.7,171.3l160.2,246.6h-131.9l-104.8-168.7l-43.5,48
		v120.7H2383.2z"/>
	<path class="st6" d="M2833.6,818.2V400.3h124v417.9H2833.6z"/>
</g>
</svg>
