<svg width="166" height="56" viewBox="0 0 166 56" fill="none" xmlns="http://www.w3.org/2000/svg">
<path fill-rule="evenodd" clip-rule="evenodd" d="M98.9292 21.5898L108.892 21.5898L108.892 21.5907C108.926 21.5901 108.96 21.5897 108.994 21.5897C111.947 21.5897 114.341 23.9838 114.341 26.937C114.341 29.4896 112.553 31.6244 110.161 32.1567L110.162 32.1673L107.505 32.9398L110.082 38.6973H106.496L104.47 34.1389C103.917 32.893 104.328 31.4885 105.338 30.7099L105.403 30.482L106.265 30.2359C106.274 30.2332 106.283 30.2305 106.292 30.2279L106.292 30.2281L109.524 29.3056L109.523 29.3012C110.599 29.057 111.402 28.0949 111.402 26.9452C111.402 25.6445 110.374 24.5839 109.087 24.5312L109.087 24.5327H102.839C101.262 24.5327 99.8324 23.6066 99.188 22.1676L98.9292 21.5898Z" fill="white"/>
<path fill-rule="evenodd" clip-rule="evenodd" d="M134.469 21.59H134.868H135.485L144.763 34.6458V21.59H147.741V37.651L144.092 38.6973H144.049L134.868 25.7797V38.6973H131.891V22.3293L134.469 21.59Z" fill="white"/>
<path fill-rule="evenodd" clip-rule="evenodd" d="M121.22 23.59C121.22 22.4854 122.115 21.59 123.22 21.59H124.198V38.6973H121.22V23.59Z" fill="white"/>
<path fill-rule="evenodd" clip-rule="evenodd" d="M86.4868 21.59H89.9093L97.0357 37.6583L94.074 38.6973L86.4868 21.59Z" fill="white"/>
<path fill-rule="evenodd" clip-rule="evenodd" d="M43.6382 21.59H47.0606L54.6478 38.6973H51.2254L43.6382 21.59Z" fill="white"/>
<path fill-rule="evenodd" clip-rule="evenodd" d="M89.8745 21.59H86.4521L78.8649 38.6973H82.2873L89.8745 21.59Z" fill="white"/>
<path fill-rule="evenodd" clip-rule="evenodd" d="M46.8564 21.59H43.434L35.8468 38.6973H39.2693L46.8564 21.59Z" fill="white"/>
<path d="M107.483 32.9387L106.054 37.5755L107.007 39.7139L110.151 38.7188L107.483 32.9387Z" fill="white"/>
<path fill-rule="evenodd" clip-rule="evenodd" d="M66.3605 38.749C66.4116 38.749 66.4626 38.7486 66.5134 38.7477C71.7215 38.7262 73.5224 37.7682 73.5224 37.7682L73.5223 37.7679L73.5224 37.7679L73.5224 30.6583L70.5541 31.5095V35.4828C69.6978 35.6155 68.3853 35.7309 66.4058 35.7336L66.4058 35.7332C66.3822 35.7335 66.3586 35.7336 66.3349 35.7336C63.2479 35.7336 60.7454 33.2311 60.7454 30.1441C60.7454 27.1555 63.0909 24.7147 66.0415 24.5622L66.0414 24.5574C68.3784 24.4292 71.7223 24.7779 72.8336 25.04V22.054C71.938 21.8576 69.5072 21.4913 65.9937 21.5904L65.9919 21.5983C61.4247 21.7914 57.7812 25.5551 57.7812 30.1698C57.7812 34.908 61.6223 38.749 66.3605 38.749Z" fill="white"/>
<path fill-rule="evenodd" clip-rule="evenodd" d="M23.6813 38.749C23.7324 38.749 23.7833 38.7486 23.8342 38.7477C29.0424 38.7262 30.8433 37.7682 30.8433 37.7682L30.8431 37.7679L30.8433 37.7679L30.8433 30.6583L27.875 31.5095V35.4828C27.0187 35.6155 25.7061 35.731 23.7266 35.7336L23.7266 35.7332C23.703 35.7335 23.6794 35.7336 23.6557 35.7336C20.5687 35.7336 18.0662 33.2311 18.0662 30.1441C18.0662 27.1555 20.4117 24.7147 23.3623 24.5622L23.3622 24.5574C25.6992 24.4292 29.0432 24.7779 30.1545 25.04V22.054C29.2589 21.8576 26.828 21.4913 23.3145 21.5904L23.3127 21.5983C18.7455 21.7913 15.1021 25.5551 15.1021 30.1698C15.1021 34.908 18.9431 38.749 23.6813 38.749Z" fill="white"/>
<path fill-rule="evenodd" clip-rule="evenodd" d="M154.322 8.4245C123.939 28.0388 90.2889 41.6904 53.8078 49.2597C30.4083 54.1147 17.6471 52.7128 11.7461 50.8582C7.55242 49.5402 4.99656 47.1442 3.97154 44.6386C2.66453 41.4436 3.55925 38.1938 6.72576 34.3736C4.64849 36.2121 2.18022 38.9947 1.28187 41.6798C0.689461 43.4506 0.921253 45.2283 1.53809 46.7361C2.72394 49.6349 5.90405 52.1624 10.624 53.5939C15.3501 55.0272 21.3701 55.3656 29.9389 54.8525C50.8743 53.5988 79.7016 45.3157 99.1418 37.5853C100.287 37.1299 101.436 36.6743 102.59 36.2167C118.808 29.7863 136.024 22.9606 156.966 10.9627C156.37 9.86031 155.442 8.97253 154.322 8.4245Z" fill="url(#paint0_linear_314_1569)"/>
<path d="M162.167 4.02345C162.59 3.92407 162.936 4.3668 162.736 4.75355C162.167 5.85691 162.213 7.17659 162.856 8.23838C163.081 8.61056 162.767 9.07592 162.338 9.0058C161.112 8.80574 159.871 9.25659 159.06 10.1963C158.776 10.5257 158.236 10.3706 158.17 9.94053C157.982 8.71353 157.17 7.6725 156.025 7.1915C155.624 7.02291 155.605 6.46168 155.993 6.26599C157.102 5.70771 157.841 4.61347 157.945 3.37645C157.981 2.94285 158.509 2.75111 158.815 3.06026C159.689 3.94222 160.958 4.30698 162.167 4.02345Z" fill="#01CFFF"/>
<defs>
<linearGradient id="paint0_linear_314_1569" x1="0.938477" y1="31.7513" x2="156.966" y2="31.7513" gradientUnits="userSpaceOnUse">
<stop stop-color="#4A32F0"/>
<stop offset="0.265536" stop-color="#3A5FFF"/>
<stop offset="0.717953" stop-color="#0096FF"/>
<stop offset="1" stop-color="#00C0FF"/>
</linearGradient>
</defs>
</svg>
