<svg xmlns="http://www.w3.org/2000/svg" width="126" height="39" viewBox="0 0 126 39">
    <g fill="none" fill-rule="evenodd">
        <g>
            <g>
                <g>
                    <path fill="#FFF" fill-rule="nonzero" d="M63.214 15.643v2.789h.058c.73-2.036 2.072-2.79 3.967-2.79h6.21c.17 0 .319.112.368.274l2.704 8.912c.175.57.311 1.243.408 2.02h.059c.087-.57.248-1.234.481-1.99l2.816-9.215h4.567l-6.07 16.306c-1.459 3.922-3.657 5.883-6.594 5.883-1.119 0-2.038-.128-2.758-.384v-3.715c.613.364 1.28.545 2 .545 1.186 0 2.012-.565 2.48-1.695l.787-1.872-4.568-11.34h-3.722c-.93 0-1.67.319-2.223.956l-.124.152c-.564.74-.846 1.745-.846 3.017v7.178h-4.607V15.643h4.607zm37.568-4.533v4.533h3.396v3.346h-3.396v6.238c0 1.572.625 2.358 1.875 2.358.492 0 .999-.143 1.52-.427v3.448c-.688.363-1.727.545-3.115.545-3.288 0-4.931-1.704-4.931-5.113v-7.05h-1.704v.003h-3.911c-.308 0-.598.027-.87.082-.273.054-.513.134-.722.238-.208.104-.372.238-.49.402-.12.164-.185.32-.185.53 0 .277.095.396.274.594.178.199.411.37.699.514.287.144.607.273.96.387.351.114.7.23 1.048.35.624.218 1.19.456 1.695.714.506.258.94.56 1.302.908.362.347.64.754.833 1.22.193.467.29 1.022.29 1.667 0 .903-.196 1.675-.588 2.315-.391.64-.912 1.16-1.561 1.563-.65.402-1.399.694-2.246.878-.848.183-1.728.275-2.64.275-1.676 0-3.228-.258-4.656-.774v-3.81c.773.466 1.544.814 2.313 1.042.768.228 1.495.342 2.179.342.833 0 1.49-.114 1.97-.342.482-.228.722-.576.722-1.042 0-.298-.11-.546-.327-.744-.218-.199-.499-.372-.84-.521-.343-.149-.717-.283-1.124-.402-.406-.12-.798-.253-1.175-.402-.604-.228-1.137-.474-1.599-.737-.46-.263-.847-.568-1.16-.915-.312-.347-.55-.75-.714-1.206-.163-.456-.245-.997-.245-1.622 0-.853.186-1.588.558-2.203.372-.615.867-1.119 1.487-1.51.62-.393 1.329-.68 2.127-.864.798-.183 1.629-.275 2.491-.275h5.809v-3.207l4.65-1.326zm22.723-3.102V26.56c0 .334.18.616.464.616.49 0 .722 0 1.314-.077h.129v3.82c-.618.18-1.185.231-1.984.231-3.04 0-4.458-1.41-4.458-4.077V8.008h4.535zm-11.67 7.158c4.187 0 6.325 2.043 6.416 6.131l.003.276v8.973h-4.381V28.39h-.059l-.14.224c-1.003 1.532-2.446 2.297-4.33 2.297-1.455 0-2.6-.412-3.436-1.238-.836-.826-1.253-1.928-1.253-3.307 0-2.83 1.627-4.497 4.881-5.002l.292-.041 4.074-.543-.004-.186c-.066-1.518-.954-2.277-2.663-2.277-1.669 0-3.261.464-4.777 1.392l-.323.206v-3.49l.224-.109c.62-.287 1.427-.544 2.421-.77 1.119-.254 2.137-.381 3.056-.381zM47.49 2.52v20.09h.058l4.168-6.457 1.608-2.194h5.494l-1.67 2.202-5.014 6.565 5.757 7.948H52.34l-4.79-7.435h-.06v7.435H42.86V3.714l4.63-1.194zm66.412 20.915l-2.726.352-.21.031c-1.364.23-2.047.899-2.047 2.007 0 .528.183.96.55 1.297.366.338.862.506 1.487.506.87 0 1.578-.3 2.125-.901.498-.547.769-1.225.814-2.034l.007-.246v-1.012z" transform="translate(-240.000000, -32.000000) translate(240.090462, 33.000000) translate(0.000000, 0.000000)"/>
                    <path fill="#1DE9B6" d="M19.301 21.237c.366-.007.668.284.675.65l.231 12.55c.006.321-.218.6-.532.663l-5.056 1.015c-.118.024-.24.015-.352-.025-.345-.123-.525-.502-.403-.847l4.825-13.565c.093-.26.336-.436.612-.441zm2.48.726c.269-.248.688-.23.936.039l7.876 8.563c.084.092.14.206.164.329.066.36-.173.705-.532.771l-7.691 1.413c-.036.007-.071.01-.107.011-.366.007-.669-.284-.675-.65l-.186-9.976c-.003-.19.075-.372.214-.5zm-4.267-1.445c.033.128.028.264-.017.389l-3.78 10.68c-.123.344-.501.525-.846.403-.09-.032-.173-.083-.241-.15l-7.857-7.642c-.263-.256-.268-.675-.013-.937.084-.087.19-.149.307-.18l11.638-3.037c.355-.092.717.12.809.474zm6.509-1.61l11.93 2.458c.341.07.57.393.522.74l-1.272 9.246c-.05.363-.384.616-.747.566-.153-.021-.295-.095-.4-.21L23.4 20.003c-.246-.27-.227-.69.044-.936.156-.143.372-.202.58-.16zM.89 11.064c.13-.342.514-.513.856-.383l16.3 6.233c.2.077.352.245.405.452.093.355-.12.716-.474.808L.812 22.634c-.072.02-.146.026-.22.02-.365-.03-.637-.35-.607-.714l.863-10.693c.005-.063.02-.125.042-.183zm31.036-5.465c.121.097.205.234.235.387l2.466 12.321c.072.359-.16.708-.52.78-.086.017-.176.017-.263 0l-10.591-2.175c-.359-.074-.59-.424-.516-.782.021-.103.066-.2.132-.281l8.125-10.147c.23-.286.646-.332.932-.103zM20.019 3.521c.059.101.09.216.09.333v11.211c0 .366-.297.663-.663.663-.081 0-.162-.015-.237-.044L7.582 11.228c-.341-.13-.512-.514-.381-.856.054-.14.155-.26.286-.335L19.113 3.28c.316-.184.722-.076.906.24zM21.572.374c.123-.345.502-.525.846-.402l7.78 2.766c.07.025.135.061.193.107.285.23.331.646.103.932l-7.78 9.708c-.126.157-.316.249-.517.249-.366 0-.663-.297-.663-.663V.596c0-.075.013-.15.038-.222z" transform="translate(-240.000000, -32.000000) translate(240.090462, 33.000000) translate(0.000000, 0.000000)"/>
                </g>
            </g>
        </g>
    </g>
</svg>
