<?xml version="1.0" encoding="utf-8"?>
<!-- Generator: Adobe Illustrator 26.1.0, SVG Export Plug-In . SVG Version: 6.00 Build 0)  -->
<svg version="1.1" id="Layer_1" xmlns="http://www.w3.org/2000/svg" xmlns:xlink="http://www.w3.org/1999/xlink" x="0px" y="0px"
	 viewBox="0 0 765 162" style="enable-background:new 0 0 765 162;" xml:space="preserve">
<g id="_x23_ffffffff">
	<path d="M0,0h765v152c-255,0-510,0-765,0V0 M4.2,4.2c0,47.8,0,95.7,0,143.5c252.2,0,504.5,0,756.7,0c0-47.8,0-95.7,0-143.5
		C508.8,4.2,256.5,4.2,4.2,4.2z"/>
	<path d="M271.4,46.2C279,35,292.6,28.7,306,29c11.1-0.3,23.1,3.7,30,12.9c-3.3,2.4-6.3,5-9.7,7.2c-5.1-6.2-13.3-9.4-21.2-8.9
		c-10.2,0-20,6.1-24.9,15c-7,12.4-6.1,29.3,3.5,40.1c7.4,8.4,19.7,11.3,30.4,8.5c5.7-1.5,10.3-5.5,13.9-10c3.3,2.5,6.5,5,9.7,7.4
		c-12.2,16.2-37,19.3-53.8,8.8c-12-7.1-19.7-20.4-20.5-34.2C262.8,65.4,265.4,54.7,271.4,46.2z"/>
	<path d="M54.5,31c3.8-0.1,7.7,0,11.5,0c0,24,0,48,0,72c12.7,0,25.3,0,38,0c0,3.7,0,7.3,0,11c-16.5,0-33,0-49.5,0
		C54.5,86.3,54.5,58.7,54.5,31z"/>
	<path d="M96.1,31c4.5,0,9-0.1,13.5,0.1c7.9,22.4,16.1,44.7,24.1,67.1c8.6-22.3,16.8-44.8,25.3-67.2c4.2,0,8.4,0,12.6,0
		c-10.9,27.7-21.7,55.3-32.7,83c-3.6,0-7.2,0-10.8,0C117.4,86.3,106.8,58.7,96.1,31z"/>
	<path d="M175.2,31c21.6,0,43.2,0,64.8,0c0,3.7,0,7.3,0,11c-8.9,0-17.8,0-26.8,0c0,24,0,48,0,72c-3.8,0-7.7,0-11.5,0c0-24,0-48,0-72
		c-8.8,0-17.7,0-26.5,0C175.2,38.3,175.2,34.7,175.2,31z"/>
	<path d="M379.3,31c3.6-0.1,7.1,0,10.6,0c11.8,27.7,23.6,55.3,35.4,83c-4.5,0-9,0-13.4,0c-2.8-7-5.6-14-8.3-21
		c-13.1,0-26.2-0.2-39.2,0.1c-2.5,7-5.4,13.8-8,20.8c-4.5,0.1-9,0-13.6,0C355,86.3,367.3,58.8,379.3,31 M368.5,83
		c10.3,0,20.7,0,31,0c-5.2-12.4-10.2-24.8-15.4-37.2C378.9,58.1,373.8,70.6,368.5,83z"/>
	<path d="M439.5,114c0.1-27.7-0.1-55.4,0.1-83c11.2,0.1,22.4-0.1,33.7,0.1c8.4,0.5,17.4,5,20.5,13.2c3,8.4,2.4,18.8-3.9,25.5
		c-4.9,5-12,7.3-18.9,7.2c-6.7,0-13.3,0-20,0c0,12.3,0,24.7,0,37C447.2,114,443.3,114,439.5,114 M451,41c0,8.7,0,17.3,0,26
		c6.7-0.1,13.4,0.2,20.1-0.5c3.4-0.5,6.9-1.5,9.3-4.1c3.2-3.4,3.5-8.6,2.2-12.8c-1.4-4.4-5.8-7.1-10.1-7.8
		C465.4,40.7,458.1,41.1,451,41z"/>
	<path d="M512.5,31c3.8,0,7.7,0,11.5,0c0,27.7,0,55.3,0,83c-3.8,0-7.7,0-11.5,0C512.5,86.3,512.5,58.7,512.5,31z"/>
	<path d="M539.2,31c21.6,0,43.2,0,64.8,0c0,3.7,0,7.3,0,11c-8.9,0-17.8,0-26.8,0c0,24,0,48,0,72c-3.8,0-7.7,0-11.5,0c0-24,0-48,0-72
		c-8.8,0-17.7,0-26.5,0C539.2,38.3,539.2,34.7,539.2,31z"/>
	<path d="M633.3,31.1c3.5-0.1,7.1,0,10.6-0.1c11.8,27.7,23.7,55.3,35.4,83c-4.5,0-9,0-13.5,0c-2.8-7-5.6-14-8.3-21
		c-13.1,0-26.1-0.1-39.2,0.1c-2.6,7-5.5,13.9-8,20.9c-4.5,0.1-9.1,0-13.6,0.1C609,86.3,621.3,58.8,633.3,31.1 M622.5,83
		c10.3,0,20.7,0,31,0c-5.2-12.4-10.2-24.8-15.4-37.2C632.9,58.1,627.8,70.6,622.5,83z"/>
	<path d="M693.5,31c3.8,0,7.7,0,11.5,0c0,24,0,48,0,72c12.7,0,25.3,0,38,0c0,3.7,0,7.3,0,11c-16.5,0-33,0-49.5,0
		C693.5,86.3,693.5,58.7,693.5,31z"/>
</g>
</svg>
