<svg width="157" height="44" viewBox="0 0 157 44" xmlns="http://www.w3.org/2000/svg">
	<defs>
		<linearGradient x1="35.379832%" y1="4.4066374%" x2="67.4586777%" y2="72.381844%" id="logo-gradient">
			<stop stop-color="#18D3FD" offset="0%"/>
			<stop stop-color="#DE04FF" offset="100%"/>
		</linearGradient>
	</defs>
	<path fill="url(#logo-gradient)" d="M26,41 L26,44 L0,44 L0,41 L26,41 Z M26,0 L26,38 L0,38 L0,0 L26,0 Z M23,3 L3,3 L3,35 L23,35 L23,3 Z"/>
	<path fill="#FFFFFF" d="M140.766021,0 L140.766021,13.7091907 C140.915093,13.4311843 141.101433,13.1271148 141.325042,12.7969822 C141.54865,12.4668496 141.824434,12.1106539 142.152393,11.7283951 C142.659239,11.1376315 143.285343,10.6771834 144.030705,10.3470508 C144.776067,10.0169182 145.670501,9.85185185 146.714008,9.85185185 C147.548813,9.85185185 148.398525,9.98216735 149.263145,10.2427984 C150.127764,10.5034294 150.992384,10.9291267 151.857004,11.5198903 C152.90051,12.2496571 153.757676,13.0836763 154.428502,14.0219479 C155.099327,14.9602195 155.621081,15.9679927 155.993762,17.0452675 C156.366442,18.1225423 156.627319,19.2432556 156.776391,20.4074074 C156.925464,21.5715592 157,22.7096479 157,23.8216735 C157,24.9684499 156.925464,26.123914 156.776391,27.2880658 C156.627319,28.4522176 156.366442,29.5816187 155.993762,30.6762689 C155.621081,31.7709191 155.099327,32.78738 154.428502,33.7256516 C153.757676,34.6639232 152.90051,35.4979424 151.857004,36.2277092 C150.932755,36.8532236 149.978692,37.304984 148.994815,37.5829904 C148.010937,37.8609968 147.056874,38 146.132625,38 C145.387264,38 144.641902,37.913123 143.89654,37.739369 C143.687839,37.7046182 143.479137,37.6177412 143.270436,37.478738 C143.091549,37.3744856 142.897755,37.2528578 142.689054,37.1138546 C142.480353,36.9748514 142.301466,36.8010974 142.152393,36.5925926 L141.966674,36.3732282 C141.907459,36.3022786 141.850936,36.233501 141.797104,36.1668953 L141.643684,35.973594 C141.498339,35.7868084 141.377217,35.6195702 141.28032,35.4718793 C141.125285,35.2355738 140.984561,34.9937083 140.858147,34.7462826 L140.766021,34.5596708 L140.766021,37.5829904 L129.183099,37.5829904 L129.183099,37.1659808 L132.537227,37.1659808 L132.537227,1.51165981 L129.183099,1.51165981 L129.183099,1.09465021 L132.537227,1.09465021 C133.640362,1.02514861 134.698776,0.938271605 135.712468,0.834019204 C136.577087,0.764517604 137.478975,0.660265203 138.418131,0.521262003 C139.290204,0.392187602 140.027314,0.233149501 140.62946,0.0441477002 L140.766021,0 Z M127.774648,1.05555556 L127.774648,14.6993651 L127.374085,14.6993651 C127.374085,13.1311111 127.136714,11.6499824 126.661972,10.2559788 C126.18723,8.86197531 125.475117,7.32857143 124.525634,5.6557672 C123.991549,4.7496649 123.4723,4.02652557 122.967887,3.48634921 C122.463474,2.94617284 121.973897,2.52797178 121.499155,2.23174603 C121.024413,1.93552028 120.564507,1.7438448 120.119437,1.65671958 C119.737948,1.58204082 119.367358,1.53936724 119.007669,1.52869884 L118.828732,1.52603175 L118.828732,37.2299471 L123.279437,37.2299471 L123.279437,37.6481481 L104.586479,37.6481481 L104.586479,37.2299471 L109.037183,37.2299471 L109.037183,1.52603175 C108.621784,1.52603175 108.161878,1.56959436 107.657465,1.65671958 C107.153052,1.7438448 106.633803,1.92680776 106.099718,2.20560847 C105.565634,2.48440917 105.016714,2.88518519 104.452958,3.40793651 C103.926786,3.89583774 103.426461,4.55070962 102.951982,5.37255215 L102.850704,5.55121693 C101.901221,7.22402116 101.255869,8.75742504 100.914648,10.1514286 C100.596175,11.4524985 100.426323,12.8294642 100.405092,14.2823257 L100.402817,14.5948148 L99.9577465,14.5948148 L99.9577465,1.05555556 L127.774648,1.05555556 Z M98.5492958,1.05555556 L98.5492958,13.2356614 L98.1455997,13.2356614 L98.1433846,12.7348527 C98.1411696,12.4896113 98.1372932,12.2521144 98.1317555,12.022362 L98.1184651,11.5731831 L98.1184651,11.5731831 L98.1007446,11.1446561 L98.1007446,11.1446561 C98.0708412,10.5173545 97.9886068,9.90747795 97.8540414,9.31502646 C97.7194761,8.72257496 97.5176281,8.10398589 97.2484974,7.45925926 C96.9793666,6.81453263 96.605574,6.0913933 96.1271194,5.28984127 C95.588858,4.38373898 95.0356449,3.66931217 94.46748,3.14656085 C93.8993152,2.62380952 93.2937711,2.24045855 92.6508478,1.99650794 C92.0079244,1.75255732 91.3201459,1.60444444 90.5875123,1.55216931 C89.9595407,1.50736206 89.3041067,1.48175791 88.6212104,1.47535687 L88.2774738,1.47375661 L84.6890643,1.47375661 L84.6890643,18.62 L86.6178344,18.62 C87.1560958,18.62 87.6644538,18.602575 88.1429084,18.5677249 C88.621363,18.5328748 89.0699142,18.437037 89.4885619,18.2802116 C89.9072097,18.1233862 90.2959541,17.8881481 90.654795,17.5744974 C91.013636,17.2608466 91.3575252,16.8252205 91.6864627,16.267619 C92.1948207,15.3963668 92.5985168,14.5251146 92.8975509,13.6538624 C93.1766494,12.8406937 93.325502,11.9516292 93.3441085,10.986669 L93.3461021,10.7787302 L93.704943,10.7787302 L93.704943,26.8794709 L93.3461021,26.8794709 C93.3461021,25.8688183 93.2040609,24.927866 92.9199785,24.0566138 C92.6358961,23.1853616 92.2247241,22.2966843 91.6864627,21.390582 C91.0883945,20.3799295 90.3632367,19.7352028 89.5109895,19.4564021 C88.7155587,19.1961881 87.8224435,19.0574073 86.8316438,19.0400597 L86.6178344,19.0382011 L84.6890643,19.0382011 L84.6890643,37.177672 L89.4437068,37.2299471 L89.4437068,37.6481481 L70.3802817,37.6481481 L70.3802817,37.2299471 L74.3723872,37.2299471 L74.3723872,1.47375661 L70.3802817,1.47375661 L70.3802817,1.05555556 L98.5492958,1.05555556 Z M41.6448255,1.05555556 C42.299721,1.09040564 43.0141525,1.24723104 43.78812,1.52603175 C44.4430156,1.76998236 45.1872151,2.12719577 46.0207185,2.59767196 C46.854222,3.06814815 47.7174934,3.75643739 48.6105328,4.66253968 C48.7296047,4.78335332 48.8501319,4.90680008 48.9721145,5.03287995 L49.3424282,5.41901893 C49.4048748,5.48469199 49.4676852,5.55102332 49.5308595,5.61801293 L49.9142711,6.02784997 L49.9142711,6.02784997 L50.3064146,6.45348571 C50.3724995,6.52574156 50.4389482,6.59865569 50.5057608,6.6722281 L50.9110022,7.1215619 L50.9110022,7.1215619 L51.3249756,7.58669442 C51.3946988,7.66553306 51.4647859,7.74502998 51.5352368,7.82518519 C52.5920001,9.02751323 53.6562053,10.2995414 54.7278526,11.6412698 C55.7994999,12.9829982 56.8488212,14.3421517 57.8758165,15.7187302 C58.3159573,16.3086924 58.7191076,16.882652 59.1029139,17.440609 L60.0323422,18.8021628 C60.153616,18.9792582 60.2743744,19.1545755 60.3952709,19.3281147 L60.9094087,20.0615158 L60.9094087,20.0615158 L61.2285215,20.522931 L61.2285215,20.522931 L61.5341394,20.9713354 L61.5341394,20.9713354 L61.8262625,21.4067292 C61.8738251,21.4782106 61.9208255,21.5491499 61.9672635,21.6195471 L62.2391444,22.0354248 L62.2391444,22.0354248 L62.4975305,22.4382918 C62.5394702,22.5043521 62.5808477,22.5698703 62.6216629,22.6348463 L62.8349416,22.9776608 L62.8349416,22.9776608 L63.0110757,23.2658257 L63.0110757,23.2658257 L63.1753356,23.5395099 L63.1753356,23.5395099 L63.3277212,23.7987135 L63.3277212,23.7987135 L63.4682327,24.0434364 L63.4682327,24.0434364 L63.5968699,24.2736786 L63.5968699,24.2736786 L63.713633,24.4894403 L63.713633,24.4894403 L63.8185218,24.6907212 L63.8185218,24.6907212 L63.9115365,24.8775216 C63.9260494,24.9074483 63.9400675,24.9367716 63.9535909,24.9654915 L63.9926769,25.0498413 L63.9926769,3.98296296 C63.9926769,3.2859612 63.791743,2.6935097 63.3898753,2.20560847 C63.0103335,1.74481286 62.5444968,1.50161517 61.9923651,1.47601542 L61.8940343,1.47375661 L59.5274799,1.47375661 L59.5274799,1.05555556 L69.1840207,1.05555556 L69.1840207,1.47375661 L66.4931872,1.47375661 C65.8978276,1.47375661 65.3992139,1.71770723 64.9973462,2.20560847 C64.6191177,2.66480963 64.4188792,3.21662279 64.3966304,3.86104795 L64.3945446,3.98296296 L64.3945446,37.6481481 L63.9926769,37.6481481 C63.3080133,37.6481481 62.4298579,37.212522 61.3582107,36.3412698 C60.7152223,35.8185185 60.0723993,35.2048085 59.3813192,34.5001397 L59.0315335,34.1402254 L59.0315335,34.1402254 L58.6723598,33.7651513 L58.6723598,33.7651513 L58.3024532,33.3749175 L58.3024532,33.3749175 L57.9204685,32.9695238 L57.9204685,32.9695238 C56.6255613,31.5929453 55.2636763,30.0159788 53.8348132,28.2386243 C52.4059502,26.4612698 51.0068551,24.6490653 49.6375281,22.8020106 C49.4347337,22.5319224 49.2311254,22.25952 49.0267031,21.9848032 L48.4109943,21.1537103 C48.204944,20.8743651 47.9980798,20.5927056 47.7904017,20.3087318 L47.1649252,19.4498677 L47.1649252,19.4498677 L46.534565,18.5771181 C46.429098,18.4305026 46.3234275,18.2833087 46.2175535,18.1355361 L45.5798675,17.2419581 L45.5798675,17.2419581 L44.9372978,16.3344945 C44.8297958,16.1820934 44.7220904,16.0291138 44.6141815,15.8755556 L43.964286,14.9472636 L43.964286,14.9472636 L43.3095067,14.005086 L43.3095067,14.005086 L42.6498436,13.0490228 C42.429142,12.7280208 42.2076263,12.4047046 41.9852967,12.0790741 L41.315866,11.0952397 L41.315866,11.0952397 L40.6415515,10.0975198 L40.6415515,10.0975198 L39.9623532,9.08591435 L39.9623532,9.08591435 L39.2782711,8.06042328 L39.2782711,34.7207407 C39.2782711,35.4177425 39.4792049,36.010194 39.8810727,36.4980952 C40.2606144,36.9588908 40.7264511,37.2020885 41.2785829,37.2276883 L41.3769137,37.2299471 L43.7434681,37.2299471 L43.7434681,37.6481481 L34.4558583,37.6481481 L34.4558583,37.2299471 L36.7777608,37.2299471 C37.3731204,37.2299471 37.879176,36.9859965 38.2959277,36.4980952 C38.6881647,36.0388941 38.8958195,35.4870809 38.9188922,34.8426558 L38.9210553,34.7207407 L38.9210553,7.69449735 L37.0903246,5.4989418 C36.405661,4.73223986 35.7582075,4.08751323 35.1479639,3.5647619 C34.5377203,3.04201058 33.9944547,2.62380952 33.518167,2.31015873 C33.0310546,1.96165785 32.5685438,1.69956214 32.1306347,1.52387162 L32,1.47375661 L32,1.05555556 L41.6448255,1.05555556 Z M143.743186,11.2592593 C143.468813,11.2592593 143.224925,11.3288668 143.011524,11.4680819 C142.887039,11.5492907 142.736621,11.6660284 142.560268,11.8182949 L142.402757,11.95751 C142.375447,11.9821626 142.347608,12.0075404 142.319239,12.0336432 L142.142674,12.1989612 L142.142674,12.1989612 C141.807329,12.5121951 141.548198,12.8863357 141.365283,13.3213829 C141.182367,13.75643 141.014694,14.21758 140.862264,14.7048329 C140.679349,15.296497 140.565027,15.922965 140.519298,16.5842367 C140.482714,17.113254 140.460765,17.6534086 140.453448,18.2047004 L140.450704,18.6202575 L140.450704,30.2621198 C140.450704,31.4802519 140.587891,32.6287765 140.862264,33.7076935 C140.953722,34.1253388 141.083288,34.542984 141.25096,34.9606293 C141.418633,35.3782746 141.624413,35.7263124 141.868301,36.0047425 L142.577099,36.7356218 L142.577099,36.7356218 C142.714286,36.8748369 142.920066,36.9444444 143.194439,36.9444444 C143.560271,36.9444444 143.910859,36.8487341 144.246204,36.6573133 C144.58155,36.4658926 144.886409,36.2222661 145.160783,35.9264341 C145.435156,35.630602 145.671422,35.3347699 145.869581,35.0389378 L146.011055,34.8252209 C146.033443,34.7909609 146.055236,34.7573807 146.076433,34.7244803 L146.196471,34.5352348 C146.252918,34.4446906 146.304006,34.3602642 146.349735,34.2819557 C146.898482,33.3074501 147.226206,31.9065982 147.332907,30.0794 C147.34546,29.8644355 147.357274,29.6464604 147.36835,29.4254745 L147.399364,28.7534846 C147.423362,28.1859663 147.442746,27.5996311 147.457514,26.994479 L147.473021,26.2592593 C147.486312,25.5150175 147.492958,24.7436744 147.492958,23.9452349 C147.492958,21.6829896 147.447229,19.5947631 147.355771,17.6805556 C147.264313,15.766348 146.944211,14.3219914 146.395464,13.3474857 C146.090604,12.8254291 145.701908,12.3468772 145.229376,11.91183 C144.756844,11.4767828 144.261447,11.2592593 143.743186,11.2592593 Z"/>
</svg>