<?xml version="1.0" encoding="UTF-8"?><svg id="a" xmlns="http://www.w3.org/2000/svg" xmlns:xlink="http://www.w3.org/1999/xlink" viewBox="0 0 126.77 49"><defs><style>.c{fill:#fff;}.d{fill:url(#b);fill-rule:evenodd;}</style><linearGradient id="b" x1="-.28" y1="20.16" x2="49.87" y2="33.76" gradientTransform="translate(0 50) scale(1 -1)" gradientUnits="userSpaceOnUse"><stop offset="0" stop-color="#3970ff"/><stop offset="1" stop-color="#17b9fe"/></linearGradient></defs><path class="d" d="M7.43,8.08C3.92,12.52,.81,16.45,.52,16.82l-.52,.66,2.48,10.91,2.48,10.91,10.02,4.85,10.02,4.85,10.02-4.85,10.02-4.85,2.48-10.91,2.48-10.91-.52-.66c-.29-.37-3.4-4.3-6.91-8.74L36.18,0H13.82L7.43,8.08Zm21.16-.5c-1.91,2.41-3.53,4.39-3.6,4.39s-1.68-1.97-3.6-4.39l-3.48-4.39h14.15l-3.48,4.39Zm-9.79,1.78c2.11,2.66,3.9,4.95,3.99,5.09,.14,.22-.26,.79-2.88,4.11-2.4,3.04-3.1,3.84-3.32,3.81-.33-.06-12.03-4.95-12.2-5.11-.06-.06,1.84-2.57,4.23-5.59,6.27-7.92,5.97-7.56,6.17-7.34,.1,.1,1.9,2.36,4.01,5.03Zm22.08,1.7c2.48,3.14,4.48,5.74,4.44,5.78-.08,.08-12.31,2.67-12.36,2.61-.02-.02,.69-3.25,1.58-7.17,.89-3.92,1.66-7.09,1.72-7.03,.06,.06,2.14,2.67,4.62,5.81Zm-9.77,2.17c-.62,2.71-1.14,4.94-1.17,4.97-.03,.03-.69-.74-1.48-1.72-1.21-1.51-1.4-1.81-1.27-2.02,.34-.54,4.92-6.26,4.98-6.21,.03,.03-.45,2.27-1.06,4.98Zm-4.72,5.7c1.1,1.38,1.24,1.61,1.02,1.7-.14,.06-1.5,.36-3.03,.67-1.53,.31-2.86,.6-2.96,.63-.12,.04-.14,0-.07-.13,.28-.48,3.59-4.54,3.67-4.51,.05,.02,.66,.75,1.37,1.63Zm19.8,1.22c-.04,.13-.76,3.28-1.6,7-.84,3.71-1.56,6.91-1.61,7.09l-.08,.34-.32-.34c-.47-.49-8.97-11.26-9.05-11.46-.04-.12,1.81-.57,6.22-1.5,3.46-.74,6.34-1.34,6.4-1.35,.06,0,.08,.09,.04,.23Zm-36.83,2.66c2.88,1.21,5.25,2.25,5.25,2.31,0,.06-1.67,2.21-3.71,4.79-3.1,3.9-3.74,4.64-3.83,4.41-.06-.15-.74-3.09-1.51-6.54-.77-3.45-1.46-6.47-1.52-6.72-.07-.25-.07-.45-.02-.45s2.46,.99,5.35,2.2Zm19.34,1.1c-.04,.13-1.11,4.82-2.37,10.41-1.26,5.59-2.35,10.27-2.4,10.39-.09,.19-1.27-.34-7.53-3.37-4.09-1.98-7.45-3.65-7.47-3.72-.02-.07,2.04-2.74,4.58-5.95l4.62-5.83,5.07-1.08c2.79-.59,5.18-1.08,5.32-1.09,.18,0,.23,.06,.18,.23Zm7.69,7.62c2.54,3.21,4.63,5.92,4.64,6.02,.02,.2-13.49,6.81-13.63,6.67-.05-.05,.81-4.02,1.9-8.82,2.41-10.64,2.25-9.97,2.37-9.83,.06,.06,2.18,2.74,4.72,5.96Z"/><g><path class="c" d="M58.5,34.2V16.7h7.2c1.55,0,2.88,.25,3.99,.74,1.11,.49,1.96,1.2,2.56,2.14,.6,.93,.9,2.05,.9,3.35s-.3,2.39-.9,3.31c-.6,.92-1.45,1.64-2.56,2.15-1.11,.51-2.44,.76-3.99,.76h-5.38l1.42-1.5v6.55h-3.25Zm3.25-6.2l-1.42-1.6h5.23c1.43,0,2.51-.3,3.24-.91,.72-.61,1.09-1.46,1.09-2.56s-.36-1.95-1.09-2.56c-.73-.61-1.8-.91-3.24-.91h-5.23l1.42-1.6v10.15Z"/><path class="c" d="M82.05,34.38c-1.35,0-2.56-.29-3.64-.89-1.07-.59-1.92-1.4-2.54-2.44-.62-1.03-.92-2.21-.92-3.53s.31-2.53,.92-3.55c.62-1.02,1.46-1.82,2.53-2.41,1.07-.59,2.28-.89,3.65-.89s2.61,.3,3.69,.89c1.08,.59,1.92,1.4,2.53,2.41,.61,1.02,.91,2.2,.91,3.55s-.3,2.51-.91,3.54c-.61,1.03-1.45,1.83-2.54,2.43-1.08,.59-2.31,.89-3.67,.89Zm0-2.65c.77,0,1.45-.17,2.05-.51,.6-.34,1.07-.83,1.41-1.47,.34-.64,.51-1.38,.51-2.21s-.17-1.59-.51-2.21c-.34-.62-.81-1.11-1.41-1.45-.6-.34-1.27-.51-2.02-.51s-1.42,.17-2.03,.51c-.6,.34-1.08,.82-1.42,1.45-.35,.62-.53,1.36-.53,2.21s.18,1.57,.53,2.21,.83,1.13,1.42,1.47c.6,.34,1.27,.51,2,.51Z"/><path class="c" d="M98.17,34.38c-1.35,0-2.56-.29-3.64-.89-1.07-.59-1.92-1.4-2.54-2.44-.62-1.03-.92-2.21-.92-3.53s.31-2.53,.92-3.55c.62-1.02,1.46-1.82,2.53-2.41,1.07-.59,2.28-.89,3.65-.89s2.61,.3,3.69,.89c1.08,.59,1.92,1.4,2.53,2.41,.61,1.02,.91,2.2,.91,3.55s-.3,2.51-.91,3.54c-.61,1.03-1.45,1.83-2.54,2.43-1.08,.59-2.31,.89-3.67,.89Zm0-2.65c.77,0,1.45-.17,2.05-.51,.6-.34,1.07-.83,1.41-1.47,.34-.64,.51-1.38,.51-2.21s-.17-1.59-.51-2.21c-.34-.62-.81-1.11-1.41-1.45-.6-.34-1.27-.51-2.02-.51s-1.42,.17-2.03,.51c-.6,.34-1.08,.82-1.42,1.45-.35,.62-.53,1.36-.53,2.21s.18,1.57,.53,2.21,.83,1.13,1.42,1.47c.6,.34,1.27,.51,2,.51Z"/><path class="c" d="M108.33,34.2V15.65h3.1v18.55h-3.1Z"/><path class="c" d="M114.42,34.2v-1.97l8.22-9.95,.6,1.07h-8.68v-2.5h11.15v1.98l-8.22,9.95-.62-1.08h9.07v2.5h-11.52Z"/></g></svg>