<?xml version="1.0" encoding="UTF-8" ?>
<!DOCTYPE svg PUBLIC "-//W3C//DTD SVG 1.1//EN" "http://www.w3.org/Graphics/SVG/1.1/DTD/svg11.dtd">
<svg width="1492pt" height="534pt" viewBox="0 0 1492 534" version="1.1" xmlns="http://www.w3.org/2000/svg">
<g id="#ffffffff">
<path fill="#ffffff" opacity="1.00" d=" M 278.67 10.58 C 281.21 6.17 285.66 2.58 290.85 2.10 C 354.55 1.06 418.55 25.21 464.97 69.01 C 482.60 85.67 497.98 104.77 510.03 125.85 C 517.29 138.65 523.73 152.06 527.40 166.37 C 533.62 190.06 534.04 214.75 533.98 239.10 C 534.00 246.18 528.28 251.70 522.13 254.27 C 511.95 258.59 500.85 260.04 489.99 261.61 C 464.11 264.86 438.02 266.03 411.98 266.99 C 372.10 268.28 332.19 268.35 292.29 267.82 C 293.26 281.91 294.34 295.98 295.47 310.06 C 340.11 304.09 384.92 298.24 430.01 297.56 C 440.76 297.64 451.70 297.70 462.13 300.60 C 468.24 302.31 474.27 306.51 475.85 312.97 C 476.83 318.26 476.08 323.69 476.00 329.03 C 473.38 384.38 449.26 438.07 410.53 477.55 C 386.84 501.67 358.47 521.61 326.95 534.00 L 312.45 534.00 C 306.85 530.46 303.94 524.18 301.72 518.18 C 296.77 504.25 294.10 489.65 291.40 475.15 C 283.47 429.30 278.70 382.97 274.37 336.67 C 255.84 339.52 237.33 342.48 218.85 345.68 C 211.89 380.36 204.35 414.96 194.92 449.06 C 190.25 465.41 185.50 481.83 178.53 497.38 C 175.43 503.88 172.08 510.73 166.12 515.10 C 162.36 517.85 157.32 518.96 152.82 517.60 C 95.69 495.50 47.74 450.80 21.54 395.45 C 19.68 391.62 17.65 387.45 18.54 383.06 C 19.46 376.92 24.31 372.37 29.41 369.35 C 38.28 364.13 48.11 360.84 57.85 357.64 C 104.04 343.49 151.58 334.37 199.02 325.53 C 202.76 305.62 206.34 285.68 209.56 265.68 C 161.78 263.72 113.97 261.24 66.44 255.85 C 51.61 254.02 36.72 252.18 22.21 248.49 C 16.42 246.88 10.40 245.19 5.64 241.34 C 2.44 238.78 0.32 234.95 0.00 230.86 L 0.00 228.60 C 0.72 224.28 3.03 220.47 4.69 216.48 C 15.19 193.10 27.38 169.90 45.57 151.52 C 72.76 124.28 106.70 103.94 143.30 92.16 C 169.34 83.94 196.71 80.27 223.98 80.35 C 228.55 80.30 233.23 82.36 235.78 86.25 C 240.03 92.63 241.09 100.46 241.83 107.92 C 243.15 124.79 242.02 141.71 240.83 158.54 C 238.60 186.91 234.86 215.13 230.80 243.29 C 243.00 243.62 255.21 243.85 267.41 244.09 C 264.80 201.41 266.76 158.65 268.07 115.97 C 268.95 87.90 268.29 59.67 272.39 31.81 C 273.65 24.55 274.92 17.05 278.67 10.58 Z" />
<path fill="#ffffff" opacity="1.00" d=" M 30.04 14.10 C 42.10 11.18 55.33 19.64 57.67 31.82 C 60.59 43.71 52.41 56.74 40.50 59.39 C 32.34 61.48 23.20 58.71 17.61 52.42 C 11.93 46.26 10.10 36.92 12.98 29.06 C 15.56 21.57 22.27 15.70 30.04 14.10 Z" />
<path fill="#ffffff" opacity="1.00" d=" M 638.63 147.60 C 644.93 140.15 654.43 136.19 663.85 134.50 C 673.64 132.95 683.85 132.99 693.43 135.74 C 702.01 138.28 710.22 143.26 715.15 150.90 C 718.33 155.76 719.80 161.55 720.13 167.31 C 709.38 167.32 698.63 167.32 687.89 167.31 C 687.37 164.54 686.61 161.36 683.88 159.96 C 679.67 157.74 674.61 157.82 670.01 158.50 C 666.58 159.06 662.52 161.13 662.46 165.12 C 662.07 168.50 664.82 171.24 667.87 172.13 C 680.34 176.45 693.82 177.44 705.88 183.01 C 711.95 186.17 717.59 191.25 719.42 198.06 C 721.51 205.99 720.53 214.95 715.77 221.76 C 710.26 230.02 701.02 235.09 691.52 237.31 C 682.00 239.48 672.01 239.32 662.46 237.38 C 653.58 235.41 644.67 231.40 638.88 224.13 C 634.48 218.71 632.46 211.76 631.95 204.88 C 642.70 204.87 653.45 204.87 664.21 204.88 C 664.80 208.57 667.00 212.17 670.76 213.26 C 676.52 215.00 683.79 214.84 688.22 210.22 C 690.54 207.95 690.93 203.86 688.72 201.39 C 686.84 199.30 684.01 198.57 681.47 197.64 C 670.29 194.14 658.43 193.02 647.58 188.47 C 641.76 185.70 636.11 181.42 633.79 175.19 C 630.48 166.00 632.27 155.07 638.63 147.60 Z" />
<path fill="#ffffff" opacity="1.00" d=" M 890.92 149.29 C 895.79 141.92 903.47 136.53 912.09 134.57 C 922.88 132.16 934.85 133.58 944.13 139.87 C 956.95 148.18 962.08 164.32 961.62 178.98 C 961.63 198.51 961.63 218.03 961.62 237.56 C 951.16 237.57 940.71 237.56 930.26 237.57 C 930.23 219.05 930.27 200.54 930.24 182.02 C 930.26 176.60 929.08 170.81 925.24 166.76 C 919.42 160.20 909.21 159.47 901.45 162.60 C 894.58 165.42 890.95 172.93 890.93 180.07 C 890.80 199.24 890.92 218.40 890.87 237.57 C 880.35 237.56 869.83 237.56 859.32 237.57 C 859.30 203.23 859.30 168.89 859.32 134.56 C 869.84 134.57 880.36 134.55 890.88 134.57 C 890.89 139.48 890.83 144.38 890.92 149.29 Z" />
<path fill="#ffffff" opacity="1.00" d=" M 991.72 151.47 C 1000.91 139.16 1016.62 132.00 1031.96 133.67 C 1042.11 134.33 1051.81 139.57 1057.70 147.89 C 1057.66 143.45 1057.69 139.01 1057.69 134.56 C 1068.21 134.56 1078.73 134.56 1089.25 134.56 C 1089.25 168.89 1089.25 203.22 1089.25 237.56 C 1078.73 237.57 1068.21 237.57 1057.69 237.55 C 1057.69 232.64 1057.66 227.72 1057.71 222.80 C 1052.77 229.73 1045.80 235.47 1037.45 237.62 C 1022.64 241.42 1006.12 236.45 995.54 225.49 C 985.85 215.61 980.92 201.72 980.76 188.00 C 980.33 175.08 983.77 161.81 991.72 151.47 M 1029.42 161.70 C 1022.63 163.58 1016.86 168.81 1014.54 175.48 C 1012.50 181.39 1012.39 187.86 1013.64 193.95 C 1015.22 201.73 1021.31 208.51 1029.02 210.60 C 1037.13 213.04 1046.64 210.33 1051.97 203.68 C 1059.39 194.32 1059.72 179.88 1053.01 170.05 C 1047.98 162.66 1037.99 159.12 1029.42 161.70 Z" />
<path fill="#ffffff" opacity="1.00" d=" M 1165.61 135.35 C 1177.86 131.61 1191.76 133.44 1202.45 140.57 C 1214.54 148.07 1222.30 161.36 1224.53 175.24 C 1226.68 189.03 1225.04 203.82 1217.83 215.96 C 1211.23 227.47 1199.47 235.99 1186.34 238.23 C 1178.12 239.59 1169.33 238.94 1161.86 235.03 C 1156.37 232.24 1151.95 227.76 1148.42 222.79 C 1148.48 244.08 1148.40 265.37 1148.46 286.66 C 1137.93 286.73 1127.40 286.67 1116.88 286.69 C 1116.87 235.98 1116.87 185.27 1116.88 134.56 C 1127.39 134.56 1137.91 134.56 1148.43 134.56 C 1148.43 139.01 1148.46 143.46 1148.41 147.91 C 1152.69 142.10 1158.66 137.48 1165.61 135.35 M 1164.49 161.82 C 1157.56 163.95 1151.85 169.58 1149.75 176.53 C 1148.08 182.23 1148.03 188.38 1149.33 194.17 C 1151.02 201.59 1156.64 208.22 1164.04 210.40 C 1172.33 213.16 1182.32 210.57 1187.73 203.57 C 1192.69 197.62 1193.94 189.44 1193.05 181.93 C 1192.25 174.44 1188.05 167.01 1181.16 163.58 C 1176.15 160.74 1169.98 160.08 1164.49 161.82 Z" />
<path fill="#ffffff" opacity="1.00" d=" M 1262.50 136.40 C 1271.32 133.55 1280.75 133.00 1289.94 133.84 C 1300.64 134.90 1311.44 139.15 1318.72 147.30 C 1323.64 152.75 1326.07 160.05 1326.43 167.31 C 1315.68 167.32 1304.93 167.31 1294.19 167.32 C 1293.70 164.51 1292.85 161.32 1290.10 159.91 C 1285.79 157.73 1280.67 157.79 1276.02 158.56 C 1272.70 159.15 1268.89 161.19 1268.76 164.99 C 1268.30 168.39 1271.03 171.21 1274.11 172.11 C 1284.85 175.85 1296.29 177.06 1306.99 180.91 C 1313.30 182.88 1319.10 186.72 1322.97 192.12 C 1326.65 197.57 1327.27 204.55 1326.38 210.91 C 1324.98 220.16 1318.38 227.90 1310.41 232.41 C 1299.35 238.76 1286.05 239.80 1273.62 238.23 C 1263.84 236.88 1253.88 233.33 1246.89 226.10 C 1241.40 220.46 1238.76 212.62 1238.25 204.88 C 1249.01 204.89 1259.76 204.83 1270.52 204.91 C 1271.07 208.49 1273.17 212.01 1276.79 213.16 C 1282.54 215.00 1289.85 214.91 1294.37 210.36 C 1296.88 208.07 1297.28 203.71 1294.86 201.21 C 1292.92 199.25 1290.16 198.50 1287.65 197.60 C 1276.57 194.15 1264.82 193.01 1254.05 188.55 C 1247.75 185.61 1241.63 180.82 1239.64 173.87 C 1237.23 165.72 1238.52 156.43 1243.49 149.47 C 1248.00 142.99 1255.14 138.86 1262.50 136.40 Z" />
<path fill="#ffffff" opacity="1.00" d=" M 1356.07 146.06 C 1372.15 131.73 1396.90 130.01 1416.07 138.77 C 1428.21 144.13 1437.32 155.19 1441.18 167.79 C 1444.01 177.03 1444.42 186.90 1443.12 196.44 C 1419.51 196.46 1395.90 196.40 1372.30 196.47 C 1373.10 201.18 1375.54 205.71 1379.54 208.45 C 1384.54 212.00 1391.10 212.47 1396.98 211.34 C 1401.02 210.58 1403.80 207.25 1406.40 204.32 C 1417.78 204.30 1429.17 204.29 1440.56 204.33 C 1436.38 219.67 1423.75 232.05 1408.54 236.44 C 1390.58 241.66 1369.29 238.80 1355.42 225.56 C 1344.90 215.75 1340.15 201.13 1340.09 187.01 C 1339.64 171.99 1344.62 156.24 1356.07 146.06 M 1372.50 176.59 C 1385.35 176.65 1398.19 176.64 1411.04 176.60 C 1410.16 167.22 1401.06 160.39 1391.95 160.49 C 1382.51 159.81 1374.03 167.49 1372.50 176.59 Z" />
<path fill="#ffffff" opacity="1.00" d=" M 728.24 134.56 C 740.17 134.57 752.11 134.55 764.05 134.57 C 771.65 156.99 779.27 179.40 786.85 201.83 C 795.20 179.41 803.53 156.98 811.88 134.56 C 822.89 134.56 833.90 134.56 844.92 134.56 C 823.09 185.28 801.19 235.97 779.34 286.68 C 768.31 286.69 757.29 286.70 746.27 286.67 C 753.59 269.66 760.85 252.61 768.20 235.60 C 754.95 201.89 741.52 168.25 728.24 134.56 Z" />
<path fill="#ffffff" opacity="1.00" d=" M 1281.05 285.51 C 1288.07 285.49 1295.10 285.50 1302.12 285.50 C 1302.13 311.93 1302.12 338.36 1302.13 364.79 C 1314.32 349.98 1326.65 335.29 1338.79 320.44 C 1348.56 320.29 1358.34 320.40 1368.12 320.38 C 1352.53 337.36 1336.94 354.34 1321.33 371.30 C 1336.91 388.24 1352.52 405.13 1368.10 422.06 C 1358.56 421.87 1348.89 422.45 1339.43 421.78 C 1326.94 407.39 1314.61 392.85 1302.13 378.46 C 1302.11 392.99 1302.13 407.53 1302.12 422.06 C 1295.10 422.06 1288.08 422.06 1281.06 422.06 C 1281.05 376.54 1281.06 331.02 1281.05 285.51 Z" />
<path fill="#ffffff" opacity="1.00" d=" M 875.75 295.06 C 882.83 295.05 889.91 295.06 896.99 295.06 C 897.01 303.49 896.99 311.93 897.00 320.37 C 905.23 320.37 913.45 320.37 921.68 320.37 C 921.69 326.10 921.69 331.83 921.68 337.57 C 913.45 337.56 905.23 337.56 897.00 337.57 C 897.02 356.37 896.96 375.17 897.03 393.97 C 896.93 397.80 898.20 402.63 902.47 403.66 C 908.73 405.21 915.29 404.21 921.68 404.50 C 921.70 410.35 921.68 416.20 921.69 422.05 C 909.72 421.54 896.48 424.14 885.79 417.30 C 878.25 412.69 875.85 403.26 875.80 394.96 C 875.68 375.83 875.79 356.69 875.74 337.56 C 871.76 337.56 867.78 337.57 863.81 337.56 C 863.81 331.83 863.81 326.11 863.81 320.38 C 867.79 320.36 871.77 320.38 875.75 320.36 C 875.74 311.93 875.75 303.49 875.75 295.06 Z" />
<path fill="#ffffff" opacity="1.00" d=" M 1243.76 323.75 C 1249.08 320.19 1255.53 318.72 1261.87 318.68 C 1261.88 325.97 1261.88 333.27 1261.87 340.57 C 1254.20 340.38 1245.76 340.46 1239.40 345.39 C 1233.04 350.22 1231.82 358.88 1231.52 366.33 C 1231.33 384.91 1231.49 403.48 1231.44 422.06 C 1224.41 422.06 1217.39 422.07 1210.37 422.05 C 1210.38 388.16 1210.36 354.26 1210.38 320.37 C 1217.40 320.38 1224.42 320.36 1231.44 320.38 C 1231.42 326.25 1231.46 332.11 1231.42 337.98 C 1234.32 332.35 1238.37 327.18 1243.76 323.75 Z" />
<path fill="#ffffff" opacity="1.00" d=" M 678.09 321.21 C 691.16 316.49 706.89 318.31 717.77 327.25 C 727.30 335.18 731.85 347.78 732.02 359.95 C 732.12 380.65 732.04 401.36 732.06 422.06 C 725.10 422.06 718.14 422.06 711.19 422.06 C 711.14 402.39 711.26 382.73 711.13 363.06 C 711.04 353.87 706.92 344.03 698.31 339.81 C 688.22 334.98 674.56 336.20 666.78 344.73 C 661.84 350.18 660.27 357.78 660.26 364.94 C 660.24 383.98 660.26 403.02 660.25 422.06 C 653.23 422.06 646.20 422.06 639.19 422.06 C 639.18 388.17 639.19 354.27 639.18 320.38 C 646.20 320.36 653.22 320.37 660.25 320.38 C 660.23 325.66 660.29 330.95 660.21 336.23 C 664.25 329.38 670.56 323.88 678.09 321.21 Z" />
<path fill="#ffffff" opacity="1.00" d=" M 789.12 320.15 C 803.02 317.15 818.40 318.61 830.53 326.45 C 840.36 332.63 847.38 342.85 850.14 354.08 C 852.14 362.00 852.26 370.31 851.14 378.37 C 825.21 378.39 799.29 378.35 773.37 378.40 C 773.87 386.15 776.67 394.12 782.69 399.30 C 790.45 406.13 801.92 407.48 811.57 404.47 C 817.87 402.51 822.80 397.57 825.70 391.76 C 833.26 391.74 840.83 391.74 848.40 391.76 C 843.77 406.13 831.74 417.99 817.05 421.79 C 804.00 425.11 789.53 424.45 777.43 418.21 C 764.75 411.61 755.80 398.86 753.14 384.90 C 750.32 370.09 751.62 353.82 759.70 340.79 C 766.11 330.21 777.08 322.75 789.12 320.15 M 783.32 343.25 C 777.30 348.38 774.24 356.19 773.57 363.93 C 792.35 363.93 811.13 363.95 829.91 363.93 C 829.77 356.68 827.31 349.20 821.81 344.26 C 811.69 334.43 793.86 333.68 783.32 343.25 Z" />
<path fill="#ffffff" opacity="1.00" d=" M 1126.62 319.77 C 1140.12 317.25 1154.74 319.13 1166.51 326.47 C 1178.00 333.48 1185.92 345.65 1188.51 358.78 C 1190.25 367.70 1190.13 377.04 1187.93 385.87 C 1184.80 398.22 1176.79 409.31 1165.88 415.93 C 1152.07 424.37 1134.47 425.93 1119.19 420.91 C 1104.52 416.11 1092.86 403.63 1088.61 388.85 C 1085.09 376.52 1085.21 363.00 1089.59 350.90 C 1095.25 334.86 1109.91 322.71 1126.62 319.77 M 1129.43 337.61 C 1119.35 340.35 1111.57 349.03 1109.05 359.05 C 1106.94 367.49 1107.06 376.53 1109.43 384.91 C 1112.11 394.21 1119.32 402.59 1128.97 404.91 C 1142.01 408.72 1156.93 402.36 1163.44 390.49 C 1168.17 382.24 1168.85 372.26 1167.45 363.03 C 1165.96 353.92 1160.79 345.07 1152.58 340.52 C 1145.68 336.47 1137.12 335.41 1129.43 337.61 Z" />
<path fill="#ffffff" opacity="1.00" d=" M 929.00 320.37 C 936.15 320.38 943.29 320.36 950.45 320.39 C 957.47 347.58 964.56 374.77 971.57 401.97 C 978.78 374.78 985.91 347.56 993.11 320.37 C 1000.43 320.37 1007.75 320.38 1015.07 320.37 C 1021.94 347.39 1028.80 374.42 1035.63 401.46 C 1042.80 374.48 1049.60 347.40 1056.63 320.38 C 1063.54 320.37 1070.44 320.36 1077.35 320.38 C 1066.85 354.28 1056.34 388.16 1045.85 422.06 C 1038.46 422.07 1031.06 422.06 1023.67 422.06 C 1016.85 397.09 1010.08 372.11 1003.27 347.14 C 996.45 372.11 989.67 397.09 982.86 422.06 C 975.49 422.09 968.12 422.01 960.76 422.10 C 950.05 388.23 939.59 354.28 929.00 320.37 Z" />
</g>
</svg>
