<svg fill="none" xmlns="http://www.w3.org/2000/svg" viewBox="0 0 159 34"><path d="M51.85 12.14v12.45h-2.56V12.14H44.5v-2.4h12.28v2.4h-4.94zM55.09 19.13c0-1.53.51-2.9 1.36-3.92a4.6 4.6 0 013.76-1.7c1.7 0 3.07.5 3.92 1.53a6.23 6.23 0 011.37 4.1c0 1.87-.51 3.24-1.37 4.26a5.14 5.14 0 01-3.92 1.54c-1.54 0-2.9-.52-3.76-1.54-1.02-1.02-1.36-2.56-1.36-4.27zm2.56 0c0 2.4.85 3.76 2.56 3.76.85 0 1.53-.34 1.87-1.03.52-.68.86-1.53.86-2.73 0-2.22-.86-3.41-2.73-3.41-.69 0-1.37.17-1.88.85a5.65 5.65 0 00-.68 2.56zM74.54 24.6l-3.24-4.78L70.1 21v3.58h-2.55V9.75l2.56-.69v8.88l3.58-4.1h3.07l-3.58 4.1 4.43 6.65h-3.07zM88.7 19.99h-7.84c.17.85.34 1.53 1.02 2.04.51.52 1.2.69 2.22.69 1.02 0 2.05-.17 2.56-.86l1.02 1.88c-.85.85-2.22 1.2-4.1 1.2a5.4 5.4 0 01-3.92-1.54 6.23 6.23 0 01-1.36-4.1c0-1.7.5-3.07 1.53-4.1a5.48 5.48 0 013.76-1.7c1.7 0 2.9.51 3.92 1.54a4.89 4.89 0 011.37 3.58c0 .34 0 .68-.17 1.37zm-7.67-1.88h5.29c-.17-1.54-1.03-2.39-2.56-2.39-1.54 0-2.4.85-2.73 2.39zM97.92 24.6v-6.15c0-1.02-.17-1.7-.51-2.05-.34-.5-1.03-.68-1.7-.68-.35 0-.86 0-1.2.34-.51.17-.86.34-1.03.68v7.85h-2.56V13.84h1.88l.51 1.03a3.64 3.64 0 012.9-1.37c1.37 0 2.4.51 3.08 1.2.85.85 1.19 1.87 1.19 3.24v6.65h-2.56zM102.53 23.91l1.02-2.05a3.47 3.47 0 002.56 1.03c.85 0 1.37-.34 1.37-1.03 0-.5-.17-.85-.34-1.02a4.92 4.92 0 00-1.71-1.02c-2.05-.69-2.9-1.88-2.9-3.25 0-1.02.34-1.7 1.02-2.22.85-.5 1.7-.85 2.73-.85 1.2 0 2.22.34 3.24.85l-.68 1.88a4.42 4.42 0 00-2.39-.68c-.85 0-1.2.34-1.2 1.02 0 .34 0 .69.35.86.34.17.85.5 1.88.85a3.9 3.9 0 012.04 1.36c.52.52.69 1.2.69 2.05 0 1.03-.34 1.7-1.2 2.4-.68.5-1.7.85-3.07.85-.68 0-1.2-.18-1.7-.18-.35-.17-1.03-.34-1.71-.85zM114.98 12.14v3.4h5.3v2.4h-5.3v6.65h-2.56V9.75h9.73v2.39h-7.17zM129.49 23.57c-.34.34-.68.68-1.2 1.02-.68.17-1.19.35-1.87.35-1.2 0-2.05-.35-2.73-.86a3.47 3.47 0 01-1.03-2.56c0-1.36.52-2.22 1.37-2.9 1.02-.85 2.39-1.2 4.1-1.2.34 0 .68.18 1.02.18 0-1.2-.86-1.88-2.39-1.88-1.02 0-1.7.17-2.39.51l-.51-2.05a8.15 8.15 0 013.07-.68c1.7 0 2.9.51 3.58 1.2.86.85 1.2 2.21 1.2 4.26v2.4c0 1.36.34 2.38.85 2.72-.17.34-.34.51-.68.68-.17 0-.51.18-.85.18-.35 0-.69-.18-1.03-.52-.17-.17-.51-.5-.51-.85zm-.34-4.1h-.86c-2.04 0-3.07.52-3.07 1.88 0 1.03.52 1.54 1.71 1.54 1.54 0 2.22-.86 2.22-2.4v-1.02zM140.75 16.23c-.34-.34-.85-.51-1.53-.51-.51 0-1.03.17-1.54.85-.34.52-.68 1.2-.68 1.88v6.14h-2.56V13.84H137v.86c.68-.69 1.7-1.2 2.9-1.2.85 0 1.54.17 2.05.51l-1.2 2.22zM155.94 24.6v-6.83c0-1.37-.51-2.05-1.88-2.05-.34 0-.68.17-1.02.34-.34.17-.68.51-.85.68v7.85h-2.56v-7.16c0-.52-.17-1.03-.34-1.2-.35-.34-.86-.51-1.54-.51-.34 0-.68.17-1.03.34-.34.17-.68.51-.85.85v7.68h-2.56V13.84h1.88l.51.86a3.71 3.71 0 012.73-1.2c1.37 0 2.56.51 3.24 1.2.34-.35.69-.52 1.37-.86.51-.17 1.02-.34 1.7-.34 1.2 0 2.05.34 2.74 1.2a3.6 3.6 0 011.02 2.73v7.16h-2.56z" fill="#fff"/><path fill-rule="evenodd" clip-rule="evenodd" d="M7.65 6.33a11.42 11.42 0 004.26 15.53 11.26 11.26 0 0015.53-4.1 11.42 11.42 0 00-4.26-15.52 11.4 11.4 0 00-15.53 4.1z" fill="#009846" fill-opacity=".5"/><path fill-rule="evenodd" clip-rule="evenodd" d="M13.45 16.23a11.22 11.22 0 004.1 15.53C23 34.83 30 33.13 33.07 27.66a11.52 11.52 0 00-4.1-15.52 11.22 11.22 0 00-15.52 4.1z" fill="#E57309" fill-opacity=".5"/><path fill-rule="evenodd" clip-rule="evenodd" d="M2.02 16.23C-1.05 21.7.65 28.7 6.12 31.76c5.45 3.07 12.45 1.37 15.52-4.1a11.22 11.22 0 00-4.1-15.52 11.22 11.22 0 00-15.52 4.1z" fill="#00A0E3" fill-opacity=".5"/></svg>