<?xml version="1.0" encoding="UTF-8"?><svg id="a" xmlns="http://www.w3.org/2000/svg" viewBox="0 0 1786 532.43"><defs><style>.d{fill:#fff;}.e{fill:#ffe000;}</style></defs><g id="b"><path class="e" d="M337.26,251.61C385.39,167.75,433.65,83.97,481.71,.06c13.14,.05,26.29,.09,39.43-.02-43.45,75.4-86.72,150.89-130.09,226.34-11.4,20.12-23.29,39.98-34.39,60.26-6.39-11.26-12.91-22.44-19.31-33.68-.02-.34-.06-1.02-.1-1.35Z"/><path class="e" d="M561.19,.06c13.16,.05,26.32,.08,39.47,0-22.09,37.73-43.61,75.81-65.48,113.67-46.21,80.5-92.56,160.93-138.66,241.49-6.37-9.34-11.35-19.62-17.28-29.27-1-1.87-2.9-4-1.7-6.21C438.74,213.18,499.99,106.63,561.19,.06Z"/><path class="e" d="M640.41,.13c13.25-.12,26.5,.13,39.74-.13-21.67,36.88-42.67,74.16-64.09,111.19-44.92,78.19-89.82,156.39-134.77,234.56-15.07,26.43-30.46,52.69-45.35,79.22-6.28-11.66-13-23.09-19.72-34.48,65.38-113.46,130.49-227.09,195.77-340.59,9.41-16.62,19.21-33.03,28.41-49.77Z"/><path class="e" d="M456.02,459.64C543.97,306.43,632.08,153.31,719.97,.09c13.17,.03,26.34,.03,39.52,0-21.37,36.51-42.17,73.35-63.35,109.98-68.75,119.7-137.52,239.38-206.28,359.07-4.82,8.09-9.13,16.49-14.23,24.37-6.66-11.21-12.96-22.64-19.6-33.87Z"/><path class="e" d="M1738.91,293.13c15.68-.15,31.38,0,47.06-.08,0,13.98-.05,27.97,.03,41.95-15.69-.14-31.39-.06-47.08-.03,.05-13.95,.07-27.9-.01-41.84Z"/><path class="e" d="M1534.59,296.65c24.32-.6,48.66-.1,72.99-.26,31.26,.02,62.52-.06,93.77,.04,.01,13.24-.08,26.48,.04,39.72-39.53-.15-79.05-.04-118.57-.05,0,20.13-.01,40.26,0,60.39,34.5-.03,69.02,.13,103.54-.08,.58,7.81,.17,15.66,.29,23.5-.14,5.01,.35,10.07-.32,15.04-34.47,.43-68.98-.01-103.45,.22-.14,31.12,0,62.25-.08,93.36-16.05,.03-32.1,.01-48.15,.01-.03-77.3,.1-154.6-.06-231.9Z"/><path class="e" d="M1738.94,361.97c15.67,.05,31.37,.11,47.05-.03-.04,55.2-.04,110.4,0,165.6-15.68-.15-31.38-.09-47.05-.03,.02-55.18,.02-110.36,0-165.53Z"/></g><g id="c"><path class="d" d="M0,219.67c13.32-.05,26.65,0,39.96-.03,.92,2.58,3.18,4.43,3.91,7.13,1.02,2.24,2.82,3.99,3.76,6.28,.79,1.59,1.95,2.94,2.81,4.5,.5,1.03,.98,2.06,1.48,3.08,.83,1.57,1.96,2.94,2.87,4.47,.25,.55,.74,1.67,.98,2.22,1.53,2.88,3.67,5.37,4.81,8.46,1.27,2.25,3.07,4.18,3.85,6.7,.89,1.93,2.31,3.51,3.34,5.34,.25,.56,.74,1.67,.98,2.23,1.53,2.87,3.68,5.36,4.81,8.46,.79,1.59,2.08,2.88,2.81,4.5,.84,1.95,2.22,3.57,3.3,5.38,.25,.55,.74,1.67,.97,2.23,.93,1.89,2.31,3.52,3.33,5.37,.5,1.03,1,2.05,1.49,3.08,.77,1.6,2.01,2.9,2.86,4.47,.25,.55,.74,1.67,.98,2.22,1.52,2.88,3.68,5.36,4.81,8.46,.79,1.59,2.06,2.89,2.85,4.49,.5,1.03,1,2.06,1.49,3.08,.79,1.59,2.03,2.89,2.84,4.48,.5,1.03,1,2.07,1.49,3.1,.96,1.87,2.47,3.42,3.27,5.4,1.2,2.28,3.01,4.21,3.82,6.71,1.29,2.63,3.4,4.76,4.34,7.58,.84,1.95,2.36,3.49,3.3,5.38,.5,1.02,1,2.05,1.5,3.07,.78,1.59,2,2.91,2.87,4.46,.24,.56,.73,1.67,.97,2.23,.87,1.94,2.34,3.51,3.33,5.37,1.02,2.77,2.84,5.09,4.29,7.6,.86,1.94,2.21,3.57,3.3,5.38,.25,.56,.74,1.67,.97,2.23,1.56,2.85,3.65,5.39,4.82,8.45,.79,1.59,2.02,2.9,2.87,4.47,.25,.55,.74,1.67,.98,2.22,1.53,2.88,3.68,5.37,4.81,8.47,.79,1.58,2.07,2.87,2.85,4.48,.49,1.03,.98,2.05,1.49,3.08,1.5,2.49,3.28,4.82,4.32,7.58,.97,1.87,2.48,3.42,3.28,5.4,.78,1.59,1.95,2.94,2.81,4.5,.49,1.02,.98,2.05,1.48,3.08,.84,1.56,1.97,2.94,2.85,4.49,.5,1.02,1,2.05,1.49,3.08,.75,1.61,2.07,2.88,2.82,4.5,.5,1.02,1,2.03,1.5,3.06,1.22,2.27,3.06,4.19,3.84,6.71,1.53,2.87,3.69,5.35,4.81,8.45,1.54,2.48,3.28,4.82,4.33,7.58,1.55,2.47,3.28,4.83,4.32,7.59,.83,1.56,2.06,2.88,2.84,4.48,.81,1.97,2.25,3.56,3.27,5.41,.49,1.02,1,2.05,1.49,3.08,.77,1.59,2.01,2.9,2.86,4.47,.25,.55,.74,1.67,.98,2.22,.84,1.95,2.37,3.49,3.31,5.39,.5,1.02,1,2.03,1.5,3.07,1.5,2.48,3.28,4.82,4.32,7.58,1,1.85,2.4,3.45,3.36,5.34,.5,1.21,1.06,2.4,1.58,3.63,.76,.81,1.52,1.63,2.27,2.48-13.73,.01-27.47-.01-41.2,0-.24-.67-.73-2-.97-2.67-1.68-2.39-3.3-4.81-4.38-7.53-1-1.86-2.42-3.45-3.34-5.35-.71-2.57-2.62-4.44-3.8-6.73-1.19-2.7-3.39-4.78-4.29-7.61-1.55-2.86-3.65-5.39-4.81-8.45-.8-1.6-2.02-2.92-2.87-4.47-.25-.55-.74-1.67-.98-2.22-1.24-2.66-3.46-4.73-4.33-7.59-1.53-2.88-3.69-5.36-4.81-8.45-.8-1.6-2.08-2.89-2.81-4.5-.84-1.95-2.22-3.58-3.31-5.38-.24-.55-.73-1.67-.96-2.23-.94-1.89-2.27-3.55-3.36-5.35-.25-.55-.74-1.67-.98-2.22-.89-1.94-2.32-3.53-3.34-5.36-.25-.55-.74-1.67-.98-2.22-.88-1.94-2.32-3.53-3.34-5.36-.25-.55-.74-1.67-.98-2.22-1.26-2.65-3.45-4.74-4.33-7.6-.88-1.93-2.36-3.49-3.32-5.35-.5-1.04-1-2.08-1.49-3.1-.79-1.6-2.03-2.91-2.84-4.48-.5-1.04-1-2.08-1.48-3.11-.82-1.58-2.06-2.89-2.82-4.48-1.41-2.94-3.63-5.41-4.75-8.5-1.26-2.26-3.06-4.19-3.85-6.7-1.27-2.65-3.45-4.74-4.33-7.59-.9-1.92-2.31-3.51-3.34-5.33-.25-.56-.74-1.67-.98-2.23-.87-1.95-2.36-3.5-3.32-5.38-.5-1.03-1-2.07-1.49-3.08-.78-1.61-2.08-2.89-2.81-4.5-1.18-2.68-3.37-4.78-4.28-7.61-1.55-2.87-3.65-5.39-4.81-8.45-.78-1.61-2.08-2.89-2.84-4.5-.51-1.03-1.01-2.05-1.5-3.06-.75-1.63-2.08-2.9-2.82-4.51-.51-1.03-1.01-2.05-1.5-3.07-1.22-2.27-3.07-4.17-3.84-6.69-1.26-2.65-3.46-4.73-4.33-7.59-.87-1.94-2.39-3.47-3.3-5.38-1.18-2.68-3.37-4.78-4.28-7.62-1.55-2.85-3.65-5.38-4.81-8.44-.78-1.61-2.08-2.89-2.84-4.5-.51-1.03-1.01-2.05-1.5-3.06-.75-1.63-2.07-2.9-2.82-4.51-.5-1.03-1.01-2.05-1.5-3.06-.78-1.61-2-2.92-2.86-4.47-.25-.56-.75-1.67-.98-2.23-1.24-2.65-3.46-4.73-4.33-7.59-.86-1.95-2.39-3.47-3.29-5.39-.87-1.94-2.21-3.57-3.3-5.37-.25-.55-.74-1.67-.98-2.22-1.54-2.87-3.65-5.39-4.81-8.46-1.54-2.48-3.27-4.83-4.33-7.58-1.54-2.48-3.27-4.83-4.33-7.58-.98-1.87-2.4-3.46-3.37-5.34-.52-1.31-1.13-2.58-1.62-3.87Z"/><path class="d" d="M79.25,220.81c.95-.86,2.03-1.24,3.28-1.17,11.91,.04,23.82-.05,35.73,.04,1.69-.16,1.96,1.65,2.47,2.81,1.6,1.43,2.42,3.42,3.24,5.36,1.53,2.87,3.69,5.36,4.81,8.46,.81,1.57,2.05,2.89,2.85,4.47,.5,1.03,1,2.07,1.49,3.1,.78,1.6,2.07,2.88,2.8,4.5,.84,1.95,2.24,3.56,3.28,5.4,.49,1.03,.98,2.06,1.49,3.08,.82,1.56,1.95,2.94,2.86,4.47,.25,.55,.74,1.67,.98,2.22,1.53,2.88,3.67,5.37,4.81,8.46,.78,1.59,2.07,2.88,2.85,4.49,.49,1.03,.98,2.06,1.49,3.08,.8,1.58,1.99,2.91,2.87,4.46,.24,.55,.73,1.67,.97,2.22,1.52,2.88,3.68,5.37,4.81,8.47,.8,1.59,2.08,2.88,2.82,4.5,1.18,2.68,3.37,4.78,4.28,7.61,.92,1.9,2.29,3.53,3.32,5.37,.49,1.02,1,2.05,1.49,3.08,.77,1.6,2.01,2.9,2.86,4.47,.25,.55,.74,1.67,.98,2.22,.88,1.94,2.33,3.51,3.33,5.37,1.13,3.1,3.25,5.61,4.81,8.46,.25,.56,.73,1.68,.97,2.23,1.04,1.83,2.49,3.41,3.3,5.38,.78,1.59,1.95,2.94,2.81,4.5,.5,1.03,.98,2.06,1.49,3.08,.82,1.57,1.95,2.94,2.86,4.47,.25,.55,.74,1.67,.97,2.23,.94,1.88,2.26,3.54,3.36,5.35,.25,.55,.74,1.67,.98,2.22,.88,1.93,2.31,3.52,3.34,5.36,.25,.55,.74,1.67,.98,2.22,1.24,2.65,3.45,4.73,4.33,7.59,1.26,2.64,3.45,4.72,4.33,7.58,.88,1.93,2.35,3.49,3.32,5.36,.5,1.03,.98,2.07,1.48,3.11,.81,1.57,2.06,2.88,2.82,4.48,.82,1.96,2.21,3.58,3.3,5.39,.24,.55,.73,1.67,.96,2.23,.94,1.88,2.26,3.54,3.36,5.35,.25,.55,.74,1.67,.98,2.22,.86,1.95,2.37,3.49,3.31,5.39,.5,1.02,1,2.05,1.5,3.07,.76,1.6,2.06,2.88,2.82,4.49,.5,1.03,1,2.05,1.5,3.08,1.5,2.49,3.28,4.82,4.32,7.59,.8,1.58,2.08,2.87,2.81,4.49,.84,1.95,2.22,3.57,3.3,5.38,.25,.55,.74,1.67,.98,2.22,1.28,2.63,3.4,4.76,4.34,7.59,.87,1.93,2.31,3.51,3.33,5.35,.25,.55,.74,1.67,.98,2.22,.88,1.93,2.31,3.52,3.34,5.36,.25,.55,.74,1.67,.98,2.22,.87,1.94,2.35,3.5,3.32,5.38,.49,1.02,.98,2.06,1.49,3.08,.79,1.59,2.03,2.89,2.84,4.48,.5,1.03,1,2.07,1.49,3.1,.95,1.88,2.48,3.41,3.27,5.4,.78,1.59,1.95,2.94,2.81,4.5,.49,1.02,.98,2.05,1.49,3.08,.82,1.56,1.95,2.94,2.86,4.47,.25,.55,.74,1.67,.98,2.22,1.52,2.88,3.67,5.37,4.81,8.46,2.39,3.25,3.91,6.99,6,10.42-13.23-.25-26.46,.15-39.68-.18-.39-.3-1.15-.9-1.53-1.2-.3-1.87-1.93-3.05-2.66-4.71-.5-1.04-1-2.08-1.49-3.11-.97-1.87-2.48-3.41-3.27-5.39-1.46-2.52-3.25-4.85-4.3-7.59-1.26-2.26-3.06-4.19-3.85-6.7-1.53-2.88-3.68-5.36-4.81-8.45-1.54-2.48-3.29-4.83-4.33-7.59-.82-1.58-2.03-2.91-2.86-4.47-1.08-3.13-3.34-5.56-4.75-8.5-.79-1.59-1.94-2.97-2.84-4.48-.25-.55-.74-1.67-.97-2.22-.92-1.92-2.32-3.54-3.32-5.38-.51-1.04-1.01-2.06-1.5-3.08-.76-1.62-2.07-2.89-2.82-4.5-.51-1.03-1.01-2.06-1.5-3.07-.77-1.61-2.01-2.91-2.86-4.47-.25-.55-.74-1.67-.98-2.22-1.26-2.66-3.46-4.73-4.33-7.59-.88-1.94-2.36-3.5-3.32-5.36-.5-1.04-1-2.08-1.49-3.1-.78-1.61-2.08-2.89-2.8-4.5-.84-1.96-2.25-3.56-3.27-5.4-.51-1.04-1.01-2.07-1.49-3.08-.84-1.57-1.97-2.95-2.87-4.47-.25-.55-.74-1.67-.98-2.22-.89-1.94-2.32-3.53-3.34-5.36-.25-.55-.74-1.67-.98-2.22-.86-1.96-2.37-3.5-3.31-5.39-.51-1.03-1.01-2.06-1.5-3.07-.78-1.6-2.01-2.91-2.87-4.46-.24-.56-.73-1.67-.97-2.23-.86-1.95-2.39-3.47-3.29-5.39-.84-1.96-2.25-3.57-3.27-5.4-.51-1.04-1.01-2.07-1.5-3.08-1.53-2.48-3.25-4.85-4.32-7.59-1.29-2.23-3.02-4.21-3.86-6.69-.86-1.95-2.36-3.49-3.3-5.38-.51-1.03-1.01-2.05-1.5-3.06-1.52-2.5-3.28-4.84-4.32-7.59-.98-1.87-2.42-3.45-3.34-5.36-.73-2.55-2.63-4.43-3.8-6.73-.86-1.94-2.22-3.57-3.3-5.37-.25-.56-.74-1.68-.97-2.23-.94-1.9-2.31-3.53-3.32-5.37-.51-1.03-1.01-2.06-1.5-3.08-.76-1.62-2.07-2.89-2.82-4.5-.51-1.03-1.01-2.05-1.5-3.06-.75-1.63-2.07-2.9-2.82-4.51-.51-1.03-1.01-2.05-1.5-3.07-1.5-2.49-3.28-4.83-4.32-7.58-.8-1.59-2.01-2.92-2.88-4.46-.24-.56-.73-1.67-.97-2.23-.87-1.94-2.35-3.5-3.32-5.37-.5-1.04-1-2.07-1.49-3.1-.78-1.6-2.08-2.88-2.8-4.5-.83-1.96-2.26-3.55-3.27-5.4-.51-1.03-1.01-2.06-1.5-3.08-1.5-2.49-3.27-4.83-4.32-7.58-.8-1.59-2.02-2.91-2.87-4.47-.25-.55-.74-1.67-.98-2.22-.87-1.95-2.36-3.51-3.32-5.38-.5-1.03-1-2.06-1.49-3.08-.78-1.6-2.01-2.91-2.87-4.46-.24-.56-.73-1.67-.97-2.23-1.01-2.25-2.82-4-3.76-6.29-.55-1.44-1.78-2.46-2.55-3.76Z"/><path class="d" d="M159.23,219.66c12.34-.02,24.68-.01,37.01-.02,1.87-.43,2.91,1.29,4.04,2.44,.63,1.71,1.89,3.06,2.79,4.63,.25,.55,.74,1.67,.98,2.22,.86,1.95,2.37,3.49,3.31,5.39,.5,1.02,1,2.05,1.5,3.06,.75,1.62,2.07,2.89,2.82,4.51,.5,1.02,1,2.05,1.5,3.06,.76,1.61,2.05,2.9,2.84,4.5,.5,1.03,1,2.06,1.49,3.08,.97,1.87,2.4,3.45,3.33,5.36,.71,2.55,2.63,4.42,3.8,6.73,.86,1.94,2.22,3.56,3.3,5.37,.25,.55,.74,1.67,.97,2.22,1.3,2.63,3.41,4.77,4.34,7.59,.92,1.9,2.29,3.53,3.31,5.37,.5,1.03,1.01,2.05,1.5,3.08,.75,1.61,2.07,2.88,2.82,4.5,.5,1.02,1,2.05,1.5,3.07,.76,1.61,2.07,2.88,2.82,4.49,.5,1.03,1,2.06,1.5,3.08,1.22,2.26,3.07,4.17,3.84,6.7,1.02,2.23,2.82,3.99,3.76,6.28,.78,1.59,1.93,2.95,2.84,4.48,.25,.55,.74,1.67,.98,2.22,1.54,2.86,3.65,5.39,4.81,8.46,1.26,2.25,3.06,4.18,3.85,6.7,.88,1.93,2.32,3.5,3.34,5.35,.25,.55,.74,1.66,.98,2.22,1.52,2.88,3.69,5.36,4.81,8.46,.82,1.57,2,2.91,2.88,4.46,.24,.55,.73,1.67,.97,2.23,1.01,2.24,2.81,3.99,3.76,6.29,1.46,2.51,3.24,4.85,4.3,7.59,.79,1.59,2.01,2.91,2.87,4.47,.25,.55,.74,1.67,.98,2.22,.88,1.93,2.31,3.52,3.34,5.36,.25,.55,.74,1.67,.98,2.22,.86,1.95,2.37,3.49,3.31,5.38,.5,1.03,1,2.05,1.5,3.08,.77,1.6,2.03,2.89,2.85,4.48,1.05,2.75,2.76,5.12,4.33,7.58,1.03,2.77,2.82,5.09,4.29,7.6,.84,1.95,2.22,3.57,3.3,5.38,.25,.55,.74,1.67,.97,2.22,.94,1.89,2.26,3.55,3.36,5.36,.25,.55,.74,1.67,.98,2.23,.87,1.94,2.36,3.49,3.31,5.38,.5,1.02,1,2.03,1.5,3.06,1.22,2.27,3.06,4.19,3.84,6.71,1.05,2.22,2.75,4.03,3.81,6.25,.25,.56,.73,1.68,.96,2.24,.86,1.55,2.11,2.85,2.85,4.47,.83,1.95,2.25,3.55,3.28,5.4,.49,1.03,.98,2.06,1.49,3.08,1.52,2.48,3.24,4.84,4.32,7.58,.79,1.59,2.01,2.9,2.87,4.47,.25,.55,.74,1.67,.98,2.22,1.52,2.88,3.67,5.37,4.81,8.46,1.54,2.47,3.27,4.83,4.33,7.58,1.27,2.24,3.06,4.18,3.85,6.7,1.54,2.86,3.68,5.36,4.79,8.46,.83,1.56,2.06,2.88,2.84,4.48,1.18,2.68,3.3,4.82,4.36,7.59,.26,.65,.79,1.94,1.06,2.58-13.38,.1-26.76-.04-40.13,.08-1.04-1.6-1.93-3.3-2.67-5.04-1.52-2.88-3.67-5.37-4.79-8.45-.78-1.61-2.08-2.89-2.84-4.5-.51-1.03-1.01-2.06-1.5-3.07-1.5-2.49-3.29-4.82-4.32-7.58-.81-1.59-2.01-2.92-2.88-4.46-.24-.56-.73-1.67-.96-2.23-.88-1.95-2.4-3.49-3.3-5.39-1.44-2.92-3.64-5.4-4.76-8.49-.86-1.57-1.99-2.94-2.85-4.49-.5-1.03-1-2.06-1.49-3.08-.76-1.62-2.08-2.89-2.82-4.5-.51-1.03-1.01-2.05-1.5-3.06-.77-1.62-2.02-2.92-2.86-4.48-.25-.55-.74-1.67-.98-2.22-1.03-2.24-2.76-4.04-3.81-6.26-.25-.56-.73-1.68-.97-2.23-1.6-2.45-3.29-4.82-4.35-7.57-.98-1.87-2.49-3.42-3.28-5.39-.78-1.6-1.95-2.97-2.84-4.48-.25-.55-.74-1.67-.98-2.22-.87-1.95-2.37-3.5-3.31-5.39-.51-1.03-1.01-2.05-1.5-3.06-1.5-2.5-3.27-4.84-4.32-7.59-1.27-2.26-3.07-4.19-3.85-6.7-.89-1.93-2.32-3.52-3.36-5.34-.24-.56-.73-1.67-.97-2.23-1.01-2.25-2.82-4-3.76-6.29-.79-1.6-1.96-2.95-2.81-4.5-.5-1.03-1-2.07-1.48-3.08-.84-1.57-1.97-2.95-2.87-4.47-.25-.55-.74-1.67-.97-2.22-1.56-2.87-3.66-5.39-4.82-8.46-.78-1.61-2.08-2.89-2.84-4.5-.51-1.03-1.01-2.05-1.5-3.07-.78-1.6-2.01-2.91-2.86-4.47-.25-.55-.74-1.67-.98-2.22-.89-1.93-2.31-3.53-3.36-5.35-.24-.56-.73-1.67-.97-2.23-.88-1.94-2.34-3.51-3.33-5.37-1.02-2.78-2.84-5.09-4.29-7.6-.83-1.96-2.27-3.55-3.27-5.4-.51-1.03-1.01-2.06-1.5-3.07-1.5-2.5-3.27-4.84-4.32-7.59-1.54-2.48-3.27-4.83-4.33-7.58-1.26-2.26-3.07-4.18-3.85-6.69-1.02-2.25-2.82-4-3.76-6.29-.79-1.59-1.94-2.97-2.84-4.48-.25-.56-.74-1.68-.97-2.23-.94-1.89-2.29-3.54-3.33-5.37-.5-1.03-1-2.07-1.48-3.08-.83-1.58-1.99-2.94-2.85-4.49-.5-1.03-1-2.06-1.49-3.08-.77-1.6-2.02-2.91-2.86-4.47-.25-.55-.74-1.67-.98-2.23-.89-1.93-2.32-3.52-3.34-5.35-.25-.55-.74-1.67-.98-2.22-1.04-2.23-2.75-4.05-3.81-6.26-.25-.56-.73-1.68-.97-2.23-1.6-2.45-3.29-4.82-4.35-7.55-1.56-2.47-3.27-4.83-4.33-7.58-.8-1.6-2.08-2.88-2.82-4.5-1.42-2.92-3.63-5.4-4.75-8.49-1.01-2-3-3.5-2.7-5.97Z"/><path class="d" d="M238.13,219.68c13.26,0,26.52-.16,39.77,.06,1.99,1.14,2.31,3.86,3.47,5.75,.81,1.58,2.08,2.87,2.84,4.49,1.17,2.68,3.37,4.77,4.28,7.61,.92,1.89,2.26,3.54,3.34,5.35,.25,.55,.74,1.67,.98,2.22,1.52,2.88,3.67,5.37,4.81,8.46,.8,1.59,2.01,2.9,2.87,4.47,.25,.55,.74,1.67,.98,2.22,1.52,2.88,3.68,5.37,4.81,8.47,.98,1.85,2.42,3.43,3.34,5.36,.24,.55,.71,1.68,.96,2.24,1.04,1.82,2.48,3.4,3.3,5.37,1.2,2.27,3.01,4.21,3.82,6.71,.93,1.89,2.25,3.54,3.34,5.35,.25,.55,.74,1.67,.98,2.22,1.53,2.88,3.67,5.37,4.81,8.46,.78,1.59,2.07,2.88,2.84,4.49,.5,1.03,1,2.06,1.5,3.08,1.22,2.26,3.07,4.17,3.84,6.7,1.02,2.23,2.82,3.99,3.76,6.28,.78,1.59,1.93,2.95,2.84,4.48,.25,.55,.74,1.67,.97,2.22,1.3,2.63,3.41,4.77,4.34,7.59,.92,1.89,2.26,3.54,3.34,5.35,.25,.55,.74,1.67,.98,2.22,.86,1.95,2.36,3.49,3.31,5.39,.5,1.02,1,2.05,1.5,3.07,.77,1.59,2.01,2.9,2.86,4.47,.25,.55,.74,1.67,.98,2.22,1.53,2.88,3.69,5.36,4.81,8.47,.81,1.57,2.03,2.89,2.85,4.47,.5,1.03,.98,2.07,1.49,3.11,.96,1.86,2.48,3.41,3.27,5.39,1.2,2.27,3.01,4.21,3.82,6.71,1.55,2.86,3.64,5.38,4.81,8.45,.77,1.6,2.07,2.88,2.84,4.5,.5,1.02,1,2.03,1.5,3.07,1.49,2.49,3.27,4.82,4.32,7.58,1.26,2.25,3.07,4.17,3.85,6.7,.89,1.92,2.31,3.51,3.36,5.34,.24,.56,.73,1.67,.97,2.23,.84,1.95,2.39,3.47,3.29,5.39,.82,1.96,2.26,3.55,3.27,5.4,.5,1.02,1,2.05,1.5,3.08,1.23,2.26,3.06,4.18,3.84,6.7,.89,1.93,2.31,3.51,3.34,5.35,.25,.55,.74,1.67,.98,2.22,1.52,2.88,3.68,5.36,4.81,8.46,.78,1.59,2.06,2.88,2.85,4.49,.49,1.02,.98,2.05,1.49,3.08,.95,1.87,2.47,3.42,3.28,5.39,1.18,2.29,3,4.22,3.81,6.72,.92,1.9,2.28,3.53,3.32,5.37,.49,1.02,.98,2.05,1.49,3.08,.76,1.6,2.01,2.9,2.86,4.47,.25,.55,.74,1.67,.98,2.22,1.26,2.65,3.43,4.74,4.33,7.59,.88,1.93,2.32,3.51,3.34,5.35,.25,.55,.74,1.67,.98,2.22,.88,1.94,2.33,3.51,3.33,5.38,1.24,3.36,3.57,6.07,5.3,9.18-13.67-.15-27.34-.02-41.01-.06-.53-1.34-1.14-2.63-1.68-3.95-.94-1.89-2.34-3.49-3.37-5.31-.25-.55-.74-1.67-.98-2.22-1.04-2.23-2.75-4.04-3.81-6.25-.74-2.55-2.64-4.43-3.81-6.73-.83-1.96-2.27-3.55-3.28-5.39-.5-1.04-1-2.07-1.49-3.08-.83-1.58-1.96-2.95-2.86-4.47-.25-.55-.74-1.67-.98-2.22-1.26-2.65-3.44-4.74-4.33-7.59-.89-1.94-2.32-3.52-3.34-5.35-.25-.55-.74-1.67-.98-2.22-1.53-2.88-3.69-5.37-4.81-8.46-.8-1.6-2.05-2.91-2.86-4.48-1.03-2.78-2.84-5.09-4.29-7.61-.86-1.94-2.22-3.57-3.3-5.37-.25-.55-.74-1.67-.97-2.23-.93-1.9-2.32-3.53-3.32-5.37-.51-1.04-1.01-2.06-1.5-3.08-1.5-2.49-3.27-4.83-4.32-7.58-1.54-2.48-3.28-4.83-4.33-7.58-1.26-2.26-3.08-4.18-3.85-6.7-.88-1.94-2.36-3.5-3.32-5.37-.5-1.03-1-2.07-1.49-3.08-.78-1.6-2.08-2.89-2.81-4.5-1.43-2.92-3.63-5.4-4.75-8.49-.84-1.57-1.99-2.94-2.85-4.49-.5-1.04-1-2.06-1.49-3.08-.77-1.61-2.02-2.91-2.86-4.47-.25-.55-.74-1.67-.98-2.22-1.52-2.88-3.68-5.37-4.81-8.46-.8-1.6-2.06-2.9-2.85-4.49-.5-1.03-1-2.07-1.49-3.08-.78-1.6-2.08-2.89-2.81-4.5-1.42-2.92-3.62-5.4-4.75-8.49-.84-1.57-1.99-2.94-2.85-4.49-.5-1.03-1-2.07-1.48-3.08-.84-1.57-1.99-2.94-2.85-4.49-.5-1.03-1-2.06-1.49-3.08-.76-1.62-2.07-2.89-2.82-4.5-.51-1.03-1.01-2.06-1.5-3.07-.95-1.88-2.42-3.45-3.33-5.37-.24-.56-.71-1.68-.96-2.23-.87-1.56-2.02-2.9-2.9-4.44-.24-.56-.73-1.67-.97-2.23-.86-1.95-2.39-3.47-3.29-5.39-.84-1.96-2.26-3.56-3.27-5.4-.51-1.04-1.01-2.06-1.5-3.08-.83-1.57-1.96-2.95-2.86-4.47-.25-.55-.74-1.67-.98-2.22-1.53-2.88-3.67-5.37-4.81-8.46-1.54-2.48-3.27-4.84-4.33-7.58-1.54-2.48-3.28-4.83-4.33-7.58-1.28-2.25-3.07-4.18-3.85-6.7-.86-1.95-2.4-3.47-3.29-5.38-1.19-2.68-3.39-4.78-4.29-7.61-.92-1.9-2.29-3.53-3.32-5.37-.5-1.03-1-2.06-1.49-3.08-.82-1.57-1.96-2.94-2.86-4.47-.25-.55-.74-1.67-.98-2.22-1.26-2.65-3.46-4.73-4.33-7.59-.9-1.93-2.29-3.53-3.37-5.33-.25-.65-.76-1.94-1.01-2.59Z"/><path class="d" d="M642.75,295.97c1.49-.78,3.21-.45,4.84-.54,66.02,.05,132.05,.01,198.07,.02,1.21-.02,2.31,.38,3.28,1.2-.15,13.28-.02,26.56-.08,39.84-25.97,.02-51.94,.01-77.92,.01-.01,64.22,.01,128.43-.01,192.65-16.17,.06-32.34-.08-48.51,.06-.84-.96-1.26-2.06-1.23-3.28,.02-63.14,0-126.29,.01-189.43-26.33-.01-52.67,.02-79-.01-.04-11.92,.02-23.83-.03-35.75,.09-1.59-.27-3.32,.58-4.77Z"/><path class="d" d="M1455.49,297.43c1.59-1.61,3.98-.79,5.99-1.01v64.97c13.28-.04,26.57,.08,39.86-.06,1.01,1.27,1.36,2.79,1.21,4.41-.13,10.24,.14,20.51-.13,30.75-.15,2.07-2.7,1.58-4.04,1.72-12.31-.06-24.61,0-36.91-.04,.03,26.7-.05,53.4,.04,80.1,.23,.43,.68,1.3,.92,1.73,.05,1.03,.14,2.08,.26,3.13,.74,1.34,1.08,2.87,1.63,4.32,1.39,2.77,4,4.6,6.09,6.83,1.2,.5,2.39,1.09,3.61,1.68,4.79,1.61,9.98,.98,15,.61,1.81-.89,3.76-1.45,5.58-2.36,1.09-.58,2.28-.9,3.57-.94,.04,.71,.13,2.14,.17,2.86,.67,.98,1.08,2.09,1.27,3.3,.56,1.44,.97,2.95,1.71,4.35,.09,.53,.25,1.58,.32,2.1,.61,1,1.02,2.09,1.23,3.27,.45,1.04,.81,2.13,1.07,3.26,.55,1.42,.98,2.89,1.58,4.31,.21,1.13,.56,2.2,1.07,3.24,.23,1.33,.65,2.61,1.5,3.71-1.45,.22-2.74,.86-4.05,1.4-1.01,.57-1.99,1.15-2.97,1.73-1.49,.6-2.95,1.22-4.48,1.6-1.3,.86-2.87,.76-4.31,.95-1.49,1.37-3.61,.78-5.4,1.02-2.44,2.32-6.34-.35-8.81,1.94-7.7,.21-15.39,.15-23.08,.06-.43-.24-1.29-.71-1.72-.95-2.16-.29-4.7,.57-6.47-1-1.49-.15-3.03-.1-4.31-.93-1.57-.37-3.04-1.01-4.48-1.63-1.01-.56-2-1.13-2.99-1.66-4.36-1.31-6.94-5.18-10.14-8.1-1.19-1.04-2.22-2.22-2.74-3.7-1.11-1.21-1.96-2.6-2.72-4.03-.78-1.85-1.3-3.81-2.22-5.58-.08-.53-.24-1.59-.31-2.11-1.8-1.85-.05-4.85-1.94-6.6-.18-32.62-.02-65.25-.08-97.89-9.38,.01-18.77,0-28.14,.01v-36.79h28.14c-.05-18.32,.09-36.66-.07-54.98,1.9-2.19,5.14-.39,7.14-2.27,1.04-.08,2.09-.15,3.16-.23,1.47-1.41,3.58-.86,5.42-1.08,1.13-1.21,2.86-.89,4.35-1.16,1.54-1.24,3.55-.81,5.39-1.01,1.46-1.43,3.57-.86,5.41-1.07,1.13-1.22,2.85-.91,4.35-1.16,1.5-1.3,3.56-.81,5.39-1.01Z"/><path class="d" d="M955.45,359.11c.41-.23,1.24-.68,1.66-.91,4.47-.15,8.95-.08,13.43,.02,2.07,2.12,5.49-.05,7.68,1.93,.53,.09,1.59,.26,2.12,.35,1.36,.7,2.88,1.1,4.33,1.68,1.88,.4,3.63,1.26,5.35,2.13,1.75,.49,4.07,2.36,1.98,4.09-.23,1.11-.57,2.21-1.02,3.26-.4,1.56-1.06,3.02-1.72,4.48-.75,1.8-1.35,3.65-2.15,5.42-.77,1.79-1.34,3.65-2.16,5.41-.77,1.78-1.34,3.65-2.16,5.41-.77,1.79-1.33,3.65-2.16,5.41-.76,1.79-1.32,3.66-2.18,5.41-.28,.68-.86,2.05-1.14,2.73-1.76,.05-3.28-.68-4.31-2.11-1.49-.62-2.97-1.24-4.52-1.61-1.7-1.02-3.91-.47-5.45-1.76-5.37,.36-11.26-1.19-16.28,.8-1.47,.16-2.99,.17-4.29,.95-3.18,.7-5.84,2.7-8.86,3.82-2.18,2.18-4.37,4.34-6.52,6.55-.42,1.29-1.27,2.35-2.16,3.31-.55,1.18-1.15,2.35-1.71,3.53-.42,1-.77,2.02-1.06,3.07-.42,1.06-.78,2.15-1.08,3.26-1.03,1.71-.34,3.99-1.76,5.5-.14,3.56,0,7.12-.21,10.69-1.35,1.34-.88,3.3-.96,4.99,.05,27.05,0,54.11,.02,81.15-15.88-.01-31.75,.01-47.61-.01-.01-55.19-.01-110.39,0-165.58,15.87-.02,31.73,0,47.61-.01v28.21l.77-.08c.88-2.4,2.09-4.65,3.24-6.93,.52-1.19,1.3-2.22,2.16-3.19,.5-1.21,1.29-2.26,2.15-3.25,1.08-2.67,3.59-4.31,5.48-6.36,2.01-1.93,3.71-4.3,6.31-5.48,2.95-1.32,5.22-3.87,8.59-4.32,1.04-.45,2.11-.81,3.23-1.08,1.61-1.04,3.55-.74,5.38-.89Z"/><path class="d" d="M1275.97,358.27c9.65-.21,19.33-.17,29-.02,2.44,1.92,5.79,.61,8.66,1.06,1.43,1.49,3.6,.87,5.44,1.14,1.54,1.33,3.79,.67,5.49,1.73,1.1,.24,2.19,.6,3.25,1.08,1.08,.26,2.16,.62,3.23,1.07,1.87,.44,3.65,1.23,5.35,2.18,.54,.26,1.65,.78,2.19,1.03,1.59,.83,2.88,2.19,4.61,2.81,.43,.39,1.29,1.19,1.72,1.59,2.32,.67,3.7,2.78,5.4,4.36,1.68,.36,2.81,1.49,3.19,3.19,1.56,1.69,3.69,3.06,4.35,5.4,.4,.42,1.21,1.29,1.61,1.71,.56,1.74,1.97,3.02,2.8,4.64,.82,1.72,1.67,3.46,2.12,5.35,.45,1.03,.81,2.11,1.05,3.23,.63,1.17,.95,2.44,.97,3.8-3.12,.38-6.8-1.03-9.47,.98-3.92,.68-8.45-1.11-11.92,1.09-3.91,.66-8.44-1.11-11.91,1.07-3.56,.16-7.13,.01-10.68,.16-1.2,1.33-3.04,.93-4.58,1.08-.5-1.36-1.11-2.67-1.65-4-.94-2.57-3.44-4.05-4.41-6.57-1.76-.68-3.16-1.95-4.31-3.38-1.9-.73-3.83-1.34-5.66-2.18-.52-.1-1.56-.27-2.08-.36-2.19-1.63-5.07-.67-7.55-1.01-2.14-1.59-5.65-1.56-7.78-.01-2.13,.09-4.25,.1-6.36,.19-1.55,1.26-3.67,.9-5.41,1.61-3,1.93-5.63,4.5-7.52,7.51-.95,1.98-.61,4.23-.77,6.35-1.23,1.2-1.47,3.39,.05,4.49,.03,.57,.09,1.72,.12,2.29,2.44,1.93,4.13,4.84,7.08,6.1,1.02,.51,2.03,1.04,3.04,1.61,1.44,.64,2.9,1.27,4.48,1.62,1.22,.88,2.78,.76,4.23,.97,1.59,1.33,4,.37,5.52,1.88,2.15,.26,4.66-.53,6.49,1.05,1.03,.06,2.08,.15,3.15,.24,1.76,1.84,4.76,.1,6.59,1.93,1.8,.18,3.82-.22,5.39,1.01,1.45,.22,3.1,.05,4.34,1.09,1.45,.26,3.18-.08,4.34,1.16,1.8,.18,3.84-.27,5.4,1,1.45,.25,3.13,.01,4.34,1.13,.53,.08,1.59,.22,2.12,.29,.96,.66,2.05,1.07,3.26,1.22,1.02,.51,2.11,.87,3.26,1.09,2.13,.86,4.41,1.42,6.39,2.66,1.13,.54,2.27,1.11,3.46,1.65,1,.54,2,1.08,3.04,1.62,.54,.25,1.63,.75,2.18,1,1.61,.77,2.91,2.01,4.18,3.29,3.51,1.97,6.75,5.08,8.63,8.65,.4,.43,1.2,1.3,1.6,1.72,1.72,2.86,3.4,5.69,4.44,8.93,.08,.53,.24,1.58,.32,2.11,2.03,2.13-.23,5.6,1.93,7.68,.11,3.54,.1,7.08-.02,10.63-2.29,2.44,.29,6.28-1.88,8.77-.19,1.45-.13,3-.94,4.3-.43,1.89-1.29,3.63-2.11,5.36-.6,1.16-1.4,2.19-2.21,3.17-1.04,2.7-3.62,4.29-5.48,6.37-2.08,1.87-3.69,4.42-6.39,5.45-1.49,1.53-3.45,2.36-5.35,3.23-1.95,1.19-4.16,1.79-6.25,2.63-1.47,.69-2.93,1.36-4.49,1.72-1.33,.76-2.87,.76-4.3,.96-1.54,1.28-3.6,.79-5.39,1-1.44,1.48-3.63,.81-5.42,1.1-3.52,2.57-8.57-.7-12.02,1.94-13.99,.15-27.99,.17-41.97-.01-2.49-2.26-6.35,.3-8.83-1.94-1.84-.22-3.86,.26-5.39-1.01-1.49-.25-3.14-.05-4.34-1.11-.53-.09-1.58-.25-2.11-.32-1.81-.94-3.79-1.41-5.58-2.31-2.11-.86-4.28-1.54-6.28-2.58-1.62-.84-2.9-2.24-4.63-2.81-.42-.4-1.29-1.2-1.71-1.61-2.8-.88-4.34-3.58-6.45-5.41-2.18-2.51-5.25-4.35-6.55-7.49-1.53-1.49-2.4-3.42-3.21-5.34-.27-.53-.82-1.6-1.09-2.13-.97-1.69-1.8-3.46-2.15-5.37-.61-1.44-.98-2.95-1.71-4.32-.08-.53-.24-1.59-.31-2.12-1.27-1.35-.9-3.21-1.02-4.86,2.05-.21,4.46,.58,6.17-1.01,3.17-.6,6.94,.94,9.72-1.1,2.82-.12,5.67-.06,8.52-.15,2.37-2.01,5.8-.62,8.65-1.08,3.07-2.63,7.84,.58,10.93-1.99,1.17-.09,2.35-.15,3.56-.22,.69,1.22,1.24,2.53,1.56,3.93,.53,1.4,.93,2.85,1.45,4.26,.9,1.56,2.22,2.87,2.85,4.6,1.41,1.47,2.86,2.92,4.35,4.34,1.99,.79,3.56,2.35,5.49,3.32,1.46,.6,2.93,1.24,4.5,1.6,1.63,1.15,3.95,.29,5.42,1.79,2.47,.09,4.96,.06,7.45,.17,2.8,1.62,7.14,1.6,9.98,0,2.84-.42,6.08,.73,8.62-.98,1.43-.18,2.95-.15,4.25-.96,1.56-.4,3.05-1.03,4.59-1.6,1.75-1.88,3.61-3.67,5.44-5.5,.48-1.24,1.06-2.42,1.66-3.61,1.34-4.09,1.33-9.17-.55-13.14-.77-.73-1.53-1.44-2.26-2.15-1.74-.6-2.99-2.05-4.64-2.76-1.04-.52-2.06-1.06-3.03-1.61-1.83-.8-3.7-1.42-5.53-2.11-1.21-.18-2.31-.6-3.28-1.23-.53-.06-1.59-.21-2.13-.27-1.5-1.47-3.9-.48-5.44-1.85-1.48-.29-3.24,.1-4.33-1.16-1.85-.23-3.95,.34-5.42-1.07-1.07-.09-2.12-.16-3.14-.24-1.17-1.21-2.9-.88-4.35-1.16-1.6-1.35-3.99-.4-5.5-1.86-1.07-.09-2.13-.15-3.16-.22-1.54-1.45-3.9-.56-5.48-1.86-1.49-.24-3.12-.1-4.33-1.11-.53-.08-1.59-.24-2.12-.32-1.57-1.36-3.91-.5-5.47-1.84-.53-.09-1.59-.25-2.13-.32-1.37-.76-2.89-1.13-4.31-1.71-1.6-.31-3.06-.98-4.49-1.68-1.33-.66-2.77-1-4.13-1.48-1.56-.94-2.94-2.15-4.61-2.85-.43-.4-1.3-1.19-1.73-1.59-2.79-.88-4.33-3.58-6.44-5.41-2.59-2.51-5.43-4.94-6.49-8.51-.56-1.01-1.11-2-1.66-2.99-.64-1.47-1.27-2.94-1.65-4.5-1.36-2-.03-4.77-1.75-6.57-.14-3.53-.16-7.07,.02-10.6,1.73-1.82,.28-4.64,1.76-6.6,.22-1.14,.57-2.21,1.07-3.25,.31-1.57,.97-3.03,1.65-4.48,.28-.52,.84-1.57,1.13-2.1,.5-1.03,1.01-2.07,1.53-3.1,1.34-2.8,3.95-4.62,6.03-6.83,2.2-2.1,4.06-4.64,6.81-6.07,.57-.25,1.72-.73,2.29-.97,1.14-1.17,2.55-2,4-2.76,1.78-.73,3.61-1.33,5.41-2.08,1.83-.9,3.83-1.41,5.66-2.33,1.02-.1,2.05-.18,3.11-.26,1.14-1.2,2.86-.91,4.35-1.14,2.15-2,5.62,.24,7.67-1.93,3.2-.5,6.94,.93,9.77-1.03Z"/><path class="d" d="M1011.26,361.41c16.21-.04,32.43-.03,48.64,0,.09,35.88-.09,71.76,.09,107.64,1.82,1.75,.3,4.6,1.8,6.55,.25,1.05,.58,2.09,1.01,3.12,.58,1.16,1.2,2.31,1.8,3.49,.25,.57,.75,1.71,1,2.28,3.26,2.93,5.82,6.79,9.88,8.73,1.44,.58,2.9,1.22,4.45,1.62,1.71,.95,3.89,.47,5.47,1.74,5.54,.19,11.1,.22,16.66,.05,.43-.18,1.29-.56,1.71-.75,1.07-.27,2.13-.61,3.19-1.01,1.85-.96,3.71-1.92,5.58-2.86,.57-.25,1.73-.76,2.31-1.01,2.18-2.19,4.35-4.36,6.54-6.54,.77-2.55,2.49-4.58,3.89-6.79,.51-1.45,.83-2.98,1.61-4.31,.08-.53,.23-1.58,.3-2.11,1.18-1.14,.83-2.86,1.13-4.31,1.97-2.15-.23-5.6,1.92-7.65,.15-32.64,.02-65.29,.07-97.93h47.62v166.68h-47.62c0-7.94-.01-15.89,0-23.83l-.73,.03c-.41,1.96-1.95,3.29-3.31,4.62-.71,2.32-2.78,3.71-4.36,5.39-1.67,1.6-3.1,3.59-5.36,4.35-1.27,1.3-2.54,2.61-4.25,3.26-1.01,.84-2,1.67-3.2,2.15-1.03,.52-2.03,1.06-3.02,1.62-1.79,.76-3.61,1.35-5.4,2.08-1.7,1.02-3.57,1.56-5.54,1.59-1.18,1.13-2.88,.81-4.32,1.07-2.14,2.02-5.62-.25-7.68,1.9-5.7,.14-11.42,.14-17.12-.01-2.45-2.27-6.26,.24-8.78-1.89-1.48-.21-3.12-.01-4.31-1.06-2-.05-3.86-.61-5.55-1.61-2.12-.8-4.33-1.44-6.27-2.62-.55-.25-1.63-.77-2.19-1.03-1.16-.57-2.2-1.36-3.16-2.18-2.88-1.26-4.65-3.97-6.91-6.02-2.09-2.25-4.76-4.06-6.03-6.93-1.09-1.22-1.94-2.61-2.62-4.07-.28-.54-.83-1.6-1.11-2.14-.8-1.76-1.41-3.6-2.1-5.4-1.04-1.7-1.58-3.56-1.59-5.54-1.16-1.17-.83-2.87-1.06-4.32-1.4-1.47-.81-3.59-1.03-5.39-2.62-3.5,.65-8.55-1.93-12.06-.25-36.22-.08-72.42-.09-108.63Z"/></g></svg>