<?xml version="1.0" encoding="utf-8"?>
<!-- Generator: Adobe Illustrator 26.1.0, SVG Export Plug-In . SVG Version: 6.00 Build 0)  -->
<svg version="1.1" id="Layer_1" xmlns="http://www.w3.org/2000/svg" xmlns:xlink="http://www.w3.org/1999/xlink" x="0px" y="0px"
	 viewBox="0 0 545 100" style="enable-background:new 0 0 545 100;" xml:space="preserve">
<style type="text/css">
	.st0{fill:#ED1C24;}
	.st1{fill:#F9C910;}
</style>
<g id="_x23_ed1c24ff">
	<path class="st0" d="M279.9,0c6.7,0,13.3,0,20,0c0,19.7,0,39.5,0,59.2c-0.2,1.6,1,2.8,1.9,4c4.4,5.6,8.8,11.2,13.2,16.9
		c4.5-6.2,9.1-12.3,13.7-18.5c1.2-1.2,1.1-3,1.1-4.6c-0.1-19,0-38,0-57c6.7,0,13.3,0,20,0c0,19.3,0,38.7,0,58
		c-0.1,1.4,0.1,2.9,1.1,4.1c4.5,6,9.4,11.8,13.9,17.9c4.9-6,9.3-12.3,14-18.5c1.2-1.2,1-2.9,1.1-4.4c-0.1-19,0-38,0-57
		c6.6,0,13.2,0,19.9,0c0,22.3,0,44.7,0,67c0,1.5,0.1,3.3-1.1,4.4c-7.9,9.5-15.8,19-23.6,28.6h-20c-5.2-5.9-10.1-11.9-15.2-17.9
		c-5,6-9.9,11.9-14.9,17.9h-19.9c-8.5-9.8-16.6-19.9-25-29.8C279.9,46.8,279.9,23.4,279.9,0z"/>
	<path class="st0" d="M449.8,0c6.7,0,13.3,0,20,0c18.5,22.1,36.9,44.4,55.4,66.5c0-22.2,0-44.3,0-66.5c6.6,0,13.2,0,19.9,0v100
		h-19.8c-18.6-22.2-37.1-44.5-55.5-66.9c0,22.3,0,44.6,0,66.9h-20c0-22.2,0-44.5,0-66.8c3.7,0,7.4,0,11.1,0c-3-3.7-6.1-7.3-9.1-11
		c-0.9-1.2-2.2-2.4-2-4.1C449.6,12.1,449.8,6,449.8,0z"/>
	<path class="st0" d="M405.6,33.2c9.3-11,18.5-22.1,27.8-33.2c0.1,33.3,0,66.6,0,99.9h-20c0-22.2,0-44.5,0-66.8
		C410.8,33.2,408.2,33.3,405.6,33.2z"/>
</g>
<g id="_x23_f9c910ff">
	<path class="st1" d="M17.2,0c24.2,0,48.4,0,72.6,0c0,6.6,0,13.2,0,19.8C70,40.1,49.8,59.9,29.9,80c20,0,39.9,0,59.9,0
		c0,6.7,0,13.3,0,20H0V80.1C19.9,60,40.1,40.2,59.8,20c-19.8,0-39.5,0-59.2,0C6.1,13.3,11.7,6.7,17.2,0z"/>
	<path class="st1" d="M103.4,0c28.3,0,56.6,0,84.9,0c0,6.7,0,13.3,0,20c-21.6,0-43.3,0-64.9,0c0,9.8,0,19.7,0,29.5
		c3.7-3.2,7.4-6.2,11.1-9.4c16.3,0,32.5,0,48.8,0c0,6.7,0,13.3,0,20c-20,0-39.9,0-59.9,0c0,6.6,0,13.3,0,19.9c21.6,0,43.3,0,64.9,0
		c0,6.7,0,13.3,0,20h-84.9C103.4,66.7,103.4,33.3,103.4,0z"/>
	<path class="st1" d="M201.9,0c6.7,0,13.3,0,20,0c0,26.7,0,53.3,0,80c16.1,0,32.1,0,48.2,0c5.5,6.7,11,13.4,16.7,20h-84.9
		C201.9,66.7,201.9,33.3,201.9,0z"/>
</g>
</svg>
