<?xml version="1.0" encoding="utf-8"?>
<!-- Generator: Adobe Illustrator 26.1.0, SVG Export Plug-In . SVG Version: 6.00 Build 0)  -->
<svg version="1.1" id="Layer_1" xmlns="http://www.w3.org/2000/svg" xmlns:xlink="http://www.w3.org/1999/xlink" x="0px" y="0px"
	 viewBox="0 0 363.5 104" style="enable-background:new 0 0 363.5 104;" xml:space="preserve">
<style type="text/css">
	.st0{fill:none;stroke:#0641CC;stroke-width:8;}
	.st1{fill:none;stroke:#0641CC;stroke-width:8;stroke-linecap:round;stroke-linejoin:round;}
	.st2{fill-rule:evenodd;clip-rule:evenodd;}
</style>
<path class="st0" d="M46.7,90.1C67.8,90.1,85,73,85,52c0-21-17.2-38.1-38.4-38.1C25.5,13.9,8.3,31,8.3,52
	C8.3,73,25.5,90.1,46.7,90.1z"/>
<path class="st1" d="M63.9,84V51.7L4,100"/>
<path class="st1" d="M29.4,20v32.3L89.3,4"/>
<path class="st2" d="M115,60.7h13.3V68h-23.7v-5.2l12.7-17.6h-12.1V38h22.5v5.2L115,60.7z M138.7,56.2c1,3.8,3.9,5.6,8.5,5.6
	c3,0,5.2-1,6.7-3l6.2,3.6c-3,4.3-7.3,6.4-13.1,6.4c-5,0-8.9-1.5-11.9-4.5c-3-3-4.5-6.8-4.5-11.3c0-4.5,1.5-8.3,4.4-11.3
	s6.8-4.5,11.4-4.5c4.4,0,8,1.5,10.9,4.6c2.9,3,4.3,6.8,4.3,11.3c0,1-0.1,2.1-0.3,3.2H138.7z M138.5,50.2h15.3
	c-0.4-2-1.3-3.6-2.7-4.6s-2.9-1.5-4.7-1.5c-2.1,0-3.8,0.5-5.2,1.6C139.9,46.8,139,48.3,138.5,50.2z M174.7,43.2
	c0.7-1.9,1.9-3.4,3.6-4.3c1.7-1,3.5-1.4,5.6-1.4V46c-2.4-0.3-4.5,0.2-6.3,1.4c-1.9,1.2-2.8,3.3-2.8,6.2V68H167V38h7.7V43.2z
	 M201.5,68.8c-4.4,0-8.2-1.5-11.2-4.6c-3.1-3.1-4.6-6.8-4.6-11.2s1.5-8.2,4.6-11.2s6.8-4.6,11.2-4.6s8.2,1.5,11.3,4.6
	s4.6,6.8,4.6,11.2s-1.5,8.2-4.6,11.2C209.7,67.3,205.9,68.8,201.5,68.8z M201.5,61.3c2.3,0,4.3-0.8,5.8-2.3c1.6-1.6,2.3-3.5,2.3-5.9
	s-0.8-4.4-2.3-5.9c-1.6-1.6-3.5-2.3-5.8-2.3c-2.3,0-4.2,0.8-5.8,2.3c-1.5,1.6-2.3,3.5-2.3,5.9s0.8,4.4,2.3,5.9
	C197.2,60.5,199.2,61.3,201.5,61.3z M229.3,46.5c0,0.8,0.5,1.5,1.6,2s2.3,0.9,3.9,1.3c1.5,0.4,3,0.9,4.6,1.4
	c1.5,0.6,2.8,1.5,3.9,2.9c1.1,1.4,1.6,3.1,1.6,5.1c0,3.1-1.2,5.5-3.4,7.1c-2.3,1.7-5.2,2.5-8.6,2.5c-6.2,0-10.4-2.4-12.6-7.1
	l6.7-3.8c0.9,2.6,2.8,3.9,5.9,3.9c2.8,0,4.1-0.9,4.1-2.6c0-0.8-0.5-1.5-1.6-2c-1.1-0.5-2.3-1-3.9-1.4c-1.5-0.4-3-0.9-4.6-1.5
	c-1.5-0.6-2.8-1.5-3.9-2.8c-1.1-1.3-1.6-2.9-1.6-4.9c0-3,1.1-5.3,3.3-7c2.2-1.7,4.9-2.5,8.1-2.5c2.4,0,4.7,0.5,6.7,1.7
	c2,1.1,3.6,2.7,4.7,4.7l-6.6,3.6c-1-2-2.6-3.1-4.8-3.1c-1,0-1.8,0.2-2.5,0.7C229.6,45.2,229.3,45.8,229.3,46.5z M282.7,38h8.2
	l-9.5,30H274l-5.5-18.2L262.9,68h-7.4L246,38h8.2l5.1,18.4l5.5-18.4h7.3l5.5,18.5L282.7,38z M316.7,38h7.7v30h-7.7v-3.5
	c-2.3,2.9-5.6,4.4-9.8,4.4c-4,0-7.4-1.5-10.3-4.6c-2.9-3.1-4.3-6.8-4.3-11.2s1.4-8.2,4.3-11.2c2.9-3.1,6.3-4.6,10.3-4.6
	c4.2,0,7.5,1.5,9.8,4.4V38z M308.3,61.5c2.4,0,4.4-0.8,6-2.4c1.6-1.6,2.4-3.6,2.4-6.1s-0.8-4.5-2.4-6.1c-1.6-1.6-3.6-2.4-6-2.4
	s-4.4,0.8-5.9,2.4c-1.6,1.6-2.3,3.6-2.3,6.1s0.8,4.5,2.3,6.1C304,60.7,305.9,61.5,308.3,61.5z M348.9,37.2c4,0,7.5,1.5,10.4,4.6
	s4.3,6.8,4.3,11.2s-1.4,8.2-4.3,11.2c-2.9,3.1-6.3,4.6-10.4,4.6c-4.2,0-7.4-1.5-9.7-4.4V80h-7.7V38h7.7v3.5
	C341.5,38.6,344.7,37.2,348.9,37.2z M347.5,61.5c2.4,0,4.4-0.8,6-2.4c1.6-1.6,2.4-3.6,2.4-6.1s-0.8-4.5-2.4-6.1
	c-1.6-1.6-3.6-2.4-6-2.4s-4.4,0.8-5.9,2.4c-1.6,1.6-2.3,3.6-2.3,6.1s0.8,4.5,2.3,6.1C343.1,60.7,345.1,61.5,347.5,61.5z"/>
</svg>
