<svg width="840" height="984" viewBox="0 0 840 984" fill="none" xmlns="http://www.w3.org/2000/svg">
<path d="M705 538C705 695.401 577.401 823 420 823C262.599 823 135 695.401 135 538C135 380.599 262.599 253 420 253C577.401 253 705 380.599 705 538Z" stroke="#F9907A" stroke-width="30"/>
<path d="M462.023 804.748L467.929 834.19C605.021 812.178 711.065 697.278 719.462 556.089L689.585 553.08C682.537 681.081 586.333 785.32 462.023 804.748Z" fill="#F24139"/>
<path d="M345.344 487.615V497.186H354.133V582H365.266V497.186H374.055V487.518L345.344 487.615Z" fill="#F24139"/>
<path d="M380.451 490.838C377.912 493.475 376.643 497.332 376.643 502.41V567.107C376.643 577.215 381.867 582.684 391.437 582.684C401.203 582.684 406.477 577.264 406.477 567.107V502.41C406.477 497.332 405.207 493.475 402.668 490.838C400.129 488.201 396.418 486.883 391.584 486.883C386.701 486.883 382.99 488.201 380.451 490.838ZM395.148 568.816C395.148 571.502 393.732 573.113 391.584 573.113C389.191 573.113 387.971 571.697 387.971 568.816V500.799C387.971 498.113 389.338 496.404 391.584 496.404C393.83 496.404 395.148 498.113 395.148 500.799V568.816Z" fill="#F24139"/>
<path d="M409.113 487.615V497.186H417.902V582H429.035V497.186H437.824V487.518L409.113 487.615Z" fill="#F24139"/>
<path d="M469.465 582L461.066 487.518H443.977L435.48 582H446.906L448.176 559.197L456.672 559.295L458.088 582H469.465ZM450.861 513.201L451.984 498.797H452.863L453.986 513.201L456.184 549.676H448.762L450.861 513.201Z" fill="#F24139"/>
<path d="M484.064 487.518H472.98V582H495.051V572.283H484.064V487.518Z" fill="#F24139"/>
<path d="M228 940.5H72C60.1259 940.5 50.5 950.126 50.5 962C50.5 973.874 60.1259 983.5 72 983.5H228C239.874 983.5 249.5 973.874 249.5 962C249.5 950.126 239.874 940.5 228 940.5Z" stroke="#F24139"/>
<path d="M99.3207 962.696V970.704C99.3207 971.375 98.9789 971.778 98.454 971.778C97.9169 971.778 97.5507 971.375 97.5507 970.704V953.675C97.5507 953.041 97.9169 952.601 98.454 952.601C98.9789 952.601 99.3207 953.004 99.3207 953.675V960.755H102.08V953.7C102.08 951.38 100.871 950.221 98.454 950.221C96.0492 950.221 94.7188 951.563 94.7188 954.103V970.277C94.7188 972.804 96.0614 974.171 98.454 974.171C100.81 974.171 102.08 972.938 102.08 970.68V962.696H99.3207Z" fill="#F24139"/>
<path d="M108.062 960.597H106.365V950.379H103.594V974H106.365V963.026H108.062V974H110.845V950.379H108.062V960.597Z" fill="#F24139"/>
<path d="M112.553 974H115.324V950.379H112.553V974Z" fill="#F24139"/>
<path d="M123.417 963.673C124.052 963.038 124.37 962.184 124.37 961.122V953.846C124.37 951.551 123.051 950.379 120.793 950.379H117.021V974H119.792V964.906H121.013L121.843 974H124.638L123.417 963.673ZM119.816 952.796H120.39C121.159 952.796 121.538 953.236 121.538 954.127V961.195C121.538 962.098 121.159 962.55 120.39 962.55H119.816V952.796Z" fill="#F24139"/>
<path d="M129.704 966.456C130.791 966.456 131.657 966.126 132.329 965.467C133 964.82 133.33 963.917 133.33 962.77V953.956C133.33 951.612 131.975 950.379 129.68 950.379H125.932V974H128.703V966.456H129.704ZM128.703 964.027V952.796H129.423C130.144 952.809 130.498 953.236 130.498 954.103V962.696C130.498 963.587 130.144 964.027 129.423 964.027H128.703Z" fill="#F24139"/>
<path d="M137.371 950.379H134.6V974H140.118V971.571H137.371V950.379Z" fill="#F24139"/>
<path d="M143.693 962.977H146.391V960.597H143.693V952.796H146.599V950.379H140.922V974H146.647V971.571H143.693V962.977Z" fill="#F24139"/>
<path d="M151.396 961.451L151.079 958.448L150.249 950.379H147.148L150.078 967.896V974H152.873V967.945L155.803 950.379H152.775L151.945 958.448L151.628 961.451H151.396Z" fill="#F24139"/>
<path d="M162.589 962.977H165.287V960.597H162.589V952.796H165.494V950.379H159.818V974H165.543V971.571H162.589V962.977Z" fill="#F24139"/>
<path d="M171.319 962.696V970.704C171.319 971.375 170.977 971.778 170.452 971.778C169.915 971.778 169.549 971.375 169.549 970.704V953.675C169.549 953.041 169.915 952.601 170.452 952.601C170.977 952.601 171.319 953.004 171.319 953.675V960.755H174.078V953.7C174.078 951.38 172.869 950.221 170.452 950.221C168.047 950.221 166.717 951.563 166.717 954.103V970.277C166.717 972.804 168.06 974.171 170.452 974.171C172.808 974.171 174.078 972.938 174.078 970.68V962.696H171.319Z" fill="#F24139"/>
<path d="M176.407 951.209C175.772 951.869 175.455 952.833 175.455 954.103V970.277C175.455 972.804 176.761 974.171 179.154 974.171C181.595 974.171 182.914 972.816 182.914 970.277V954.103C182.914 952.833 182.596 951.869 181.961 951.209C181.327 950.55 180.399 950.221 179.19 950.221C177.97 950.221 177.042 950.55 176.407 951.209ZM180.082 970.704C180.082 971.375 179.728 971.778 179.19 971.778C178.592 971.778 178.287 971.424 178.287 970.704V953.7C178.287 953.028 178.629 952.601 179.19 952.601C179.752 952.601 180.082 953.028 180.082 953.7V970.704Z" fill="#F24139"/>
<path d="M191.667 953.321C191.667 951.405 190.397 950.221 188.066 950.221C186.87 950.221 185.954 950.526 185.319 951.136C184.685 951.747 184.367 952.54 184.367 953.504V959.046C184.367 960.89 185.051 961.878 186.65 962.477L187.968 963.026C188.652 963.355 188.994 963.88 188.994 964.601V970.875C188.994 971.412 188.676 971.778 188.103 971.778C187.504 971.778 187.199 971.449 187.199 970.802V964.503H184.416V970.973C184.416 972.975 185.832 974.171 188.127 974.171C189.262 974.171 190.153 973.854 190.825 973.231C191.496 972.608 191.826 971.766 191.826 970.68V964.002C191.826 963.05 191.63 962.33 191.24 961.842C190.837 961.366 190.227 960.938 189.396 960.572L188.066 959.999C187.468 959.681 187.175 959.193 187.175 958.546V953.395C187.175 952.943 187.48 952.601 188.017 952.601C188.615 952.601 188.92 952.906 188.92 953.504V958.753H191.667V953.321Z" fill="#F24139"/>
<path d="M196.439 961.451L196.122 958.448L195.291 950.379H192.191L195.121 967.896V974H197.916V967.945L200.846 950.379H197.818L196.988 958.448L196.671 961.451H196.439Z" fill="#F24139"/>
<path d="M200.932 950.404V952.796H203.129V974H205.913V952.796H208.11V950.379L200.932 950.404Z" fill="#F24139"/>
<path d="M211.785 962.977H214.483V960.597H211.785V952.796H214.69V950.379H209.014V974H214.739V971.571H211.785V962.977Z" fill="#F24139"/>
<path d="M221.294 967.03L220.965 961.854L219.988 950.379H216.045V974H218.56V965.553L218.414 956.629H218.621L219.939 974H222.735L224.114 956.654H224.322L224.163 965.553L224.139 974H226.69V950.379H222.796L221.771 961.854L221.465 967.03H221.294Z" fill="#F24139"/>
<path d="M69.1553 961.434L63.0554 961.196C62.8391 963.251 63.2656 965.41 64.1728 967.143L73.2746 967.162C72.7259 967.84 66.8223 968.367 64.4852 967.712C66.0933 970.177 67.3229 971.523 70.4449 970.853C75.7718 969.319 74.0857 961.368 69.1553 961.434Z" fill="#F24139"/>
<path d="M82.9869 961.982L81.6832 962.206L79.4643 963.819C79.416 963.217 79.3134 962.622 79.1579 962.04C78.4851 963.157 76.895 962.583 75.3029 961.297C77.4918 961.855 77.9684 958.334 75.7155 958.247C74.7142 958.228 73.9632 959.307 74.2876 960.283C68.8866 953.593 80.025 954.522 79.4984 960.511L82.9689 961.588C82.5723 951.901 69.6596 948.413 64.7012 956.501C66.2993 955.342 68.2838 954.676 70.3545 954.732C70.5428 954.736 70.6249 954.972 70.4907 955.109C69.4453 956.183 70.6529 959.17 73.1722 961.781C75.7595 964.501 78.5692 965.507 79.6546 964.607C79.6546 967.55 78.411 970.192 76.4384 972C80.3455 970.53 83.1331 966.534 82.9869 961.982ZM76.118 959.553C76.5245 959.553 76.5245 960.196 76.118 960.196C75.7115 960.196 75.7135 959.555 76.118 959.553ZM74.5279 959.462C74.5319 958.637 75.7415 958.637 75.7455 959.462C75.7415 960.287 74.5319 960.287 74.5279 959.462Z" fill="#F24139"/>
<path d="M81.5635 961.156C81.5635 961.156 82.2824 961.405 81.6836 962.206C80.8545 963.315 82.9873 961.982 82.9873 961.982C83.1335 960.808 81.9901 961.036 81.5635 961.156Z" fill="#F24139"/>
<path d="M72.4 973.605C78.696 973.605 83.8 968.501 83.8 962.205C83.8 955.909 78.696 950.805 72.4 950.805C66.104 950.805 61 955.909 61 962.205C61 968.501 66.104 973.605 72.4 973.605Z" stroke="#F24139" stroke-width="4"/>
<path d="M101.955 868.512C97.5117 869.635 95.2656 873.004 95.2656 878.521V907.086C95.2656 915.094 100.539 919.586 109.475 919.586C118.41 919.586 123.684 915.094 123.684 907.086V878.521C123.635 872.906 121.291 869.586 116.652 868.512V868.121C121.34 866.9 123.244 863.678 123.244 857.818V835.699C123.244 828.473 118.117 823.883 109.475 823.883C100.832 823.883 95.6562 828.473 95.6562 835.699V857.818C95.6562 863.482 97.7559 866.9 101.955 868.121V868.512ZM112.551 860.211C112.551 863.092 111.525 864.508 109.475 864.508C107.375 864.508 106.35 863.092 106.35 860.211V836.92C106.35 834.381 107.375 833.111 109.475 833.111C111.525 833.111 112.551 834.381 112.551 836.92V860.211ZM112.746 906.402C112.746 909.088 111.672 910.406 109.475 910.406C107.277 910.406 106.154 909.088 106.154 906.402V876.812C106.154 873.883 107.277 872.418 109.475 872.418C111.672 872.418 112.746 873.883 112.746 876.812V906.402Z" fill="#F24139"/>
<path d="M142.678 823.883C133.889 823.883 128.664 828.863 128.664 837.799V905.719C128.664 914.654 133.889 919.586 142.678 919.586C151.467 919.586 156.691 914.654 156.691 905.719V837.799C156.691 828.863 151.613 823.883 142.678 823.883ZM145.803 906.402C145.803 909.137 144.777 910.504 142.727 910.504C140.627 910.504 139.602 909.137 139.602 906.402V837.115C139.553 834.43 140.627 833.111 142.775 833.111C144.777 833.111 145.803 834.43 145.803 837.115V906.402Z" fill="#F24139"/>
<path d="M165.676 826.275C164.016 827.984 163.186 830.23 163.186 833.111V842.193C163.186 847.906 166.75 851.52 172.365 851.52C177.98 851.52 181.594 847.906 181.594 842.193V833.111C181.594 830.23 180.764 827.984 179.104 826.275C177.395 824.615 175.148 823.785 172.365 823.785C169.582 823.785 167.336 824.615 165.676 826.275ZM163.576 919H174.172L202.785 823.98H192.385L163.576 919ZM173.879 842.291C173.879 843.512 173.391 844.098 172.365 844.098C171.34 844.098 170.852 843.512 170.852 842.291V833.014C170.852 831.793 171.34 831.207 172.365 831.207C173.391 831.207 173.879 831.793 173.879 833.014V842.291ZM194.289 891.998C188.674 891.998 185.061 895.562 185.061 901.178V910.406C185.061 916.119 188.674 919.684 194.289 919.684C199.904 919.684 203.469 916.119 203.469 910.406V901.178C203.469 895.465 200.002 891.998 194.289 891.998ZM195.754 910.504C195.754 911.725 195.266 912.311 194.289 912.311C193.264 912.311 192.775 911.725 192.775 910.504V901.178C192.775 900.006 193.264 899.42 194.289 899.371C195.266 899.371 195.754 899.957 195.754 901.178V910.504Z" fill="#F24139"/>
<path d="M167 786C167 795.389 159.389 803 150 803C140.611 803 133 795.389 133 786C133 776.611 140.611 769 150 769C159.389 769 167 776.611 167 786Z" fill="#F24139"/>
<path d="M155.095 780.402L146.609 788.888M145.902 781.109V789.595H154.388L145.902 781.109Z" stroke="white" stroke-width="4"/>
<path d="M646.838 910.211C646.838 906.549 647.717 902.252 649.523 897.32C651.281 892.438 653.186 887.896 655.285 883.697C657.336 879.498 659.24 874.664 661.047 869.195C662.805 863.727 663.684 858.697 663.684 854.107V835.699C663.684 832.037 662.463 829.107 660.021 827.008C657.58 824.908 654.309 823.883 650.158 823.883C640.979 823.883 635.852 828.814 635.852 836.822V860.113H646.252V837.018C646.252 834.625 647.668 833.111 649.67 833.111C651.721 833.111 652.746 834.381 652.746 836.92V856.988C652.746 860.26 651.818 864.166 650.012 868.658C648.205 873.15 646.203 877.398 644.055 881.402C641.857 885.406 639.855 890.387 638.049 896.393C636.193 902.398 635.266 908.355 635.266 914.215V919H664.27V910.211H646.838Z" fill="#F24139"/>
<path d="M682.482 823.883C673.693 823.883 668.469 828.863 668.469 837.799V905.719C668.469 914.654 673.693 919.586 682.482 919.586C691.271 919.586 696.496 914.654 696.496 905.719V837.799C696.496 828.863 691.418 823.883 682.482 823.883ZM685.607 906.402C685.607 909.137 684.582 910.504 682.531 910.504C680.432 910.504 679.406 909.137 679.406 906.402V837.115C679.357 834.43 680.432 833.111 682.58 833.111C684.582 833.111 685.607 834.43 685.607 837.115V906.402Z" fill="#F24139"/>
<path d="M705.48 826.275C703.82 827.984 702.99 830.23 702.99 833.111V842.193C702.99 847.906 706.555 851.52 712.17 851.52C717.785 851.52 721.398 847.906 721.398 842.193V833.111C721.398 830.23 720.568 827.984 718.908 826.275C717.199 824.615 714.953 823.785 712.17 823.785C709.387 823.785 707.141 824.615 705.48 826.275ZM703.381 919H713.977L742.59 823.98H732.189L703.381 919ZM713.684 842.291C713.684 843.512 713.195 844.098 712.17 844.098C711.145 844.098 710.656 843.512 710.656 842.291V833.014C710.656 831.793 711.145 831.207 712.17 831.207C713.195 831.207 713.684 831.793 713.684 833.014V842.291ZM734.094 891.998C728.479 891.998 724.865 895.562 724.865 901.178V910.406C724.865 916.119 728.479 919.684 734.094 919.684C739.709 919.684 743.273 916.119 743.273 910.406V901.178C743.273 895.465 739.807 891.998 734.094 891.998ZM735.559 910.504C735.559 911.725 735.07 912.311 734.094 912.311C733.068 912.311 732.58 911.725 732.58 910.504V901.178C732.58 900.006 733.068 899.42 734.094 899.371C735.07 899.371 735.559 899.957 735.559 901.178V910.504Z" fill="#F24139"/>
<path d="M752.374 832.171C753.167 831.945 753.563 831.337 753.563 830.359V827.815C753.563 827.18 753.352 826.675 752.935 826.312C752.518 825.95 751.943 825.771 751.226 825.771H748.006V839H751.171C751.971 839 752.6 838.795 753.044 838.385C753.488 837.975 753.707 837.42 753.707 836.716V834.099C753.707 833.114 753.194 832.465 752.374 832.253V832.171ZM750.809 827.577C751.219 827.577 751.424 827.795 751.424 828.232V830.755C751.424 831.192 751.219 831.411 750.809 831.411H750.193V827.577H750.809ZM750.768 833.065C751.273 833.065 751.526 833.319 751.52 833.818V836.409C751.52 836.936 751.26 837.195 750.747 837.195H750.193V833.065H750.768Z" fill="#F24139"/>
<path d="M757.973 825.771V836.58C757.966 837.052 757.768 837.291 757.364 837.291C756.975 837.291 756.776 837.052 756.776 836.58V825.771H754.596V836.676C754.596 838.282 755.566 839.122 757.357 839.122C759.148 839.122 760.153 838.269 760.153 836.648V825.771H757.973Z" fill="#F24139"/>
<path d="M764.022 831.638L763.797 829.942L763.182 825.771H760.762L762.977 835.445V839H765.157V835.458L767.358 825.771H764.993L764.405 829.942L764.18 831.638H764.022Z" fill="#F24139"/>
<path d="M772.335 832.171C773.128 831.945 773.524 831.337 773.524 830.359V827.815C773.524 827.18 773.313 826.675 772.896 826.312C772.479 825.95 771.904 825.771 771.187 825.771H767.967V839H771.132C771.932 839 772.561 838.795 773.005 838.385C773.449 837.975 773.668 837.42 773.668 836.716V834.099C773.668 833.114 773.155 832.465 772.335 832.253V832.171ZM770.77 827.577C771.18 827.577 771.385 827.795 771.385 828.232V830.755C771.385 831.192 771.18 831.411 770.77 831.411H770.154V827.577H770.77ZM770.729 833.065C771.234 833.065 771.487 833.319 771.48 833.818V836.409C771.48 836.936 771.221 837.195 770.708 837.195H770.154V833.065H770.729Z" fill="#F24139"/>
<path d="M780.449 839L778.911 825.771H775.493L773.928 839H776.184L776.402 836.156L777.947 836.169L778.166 839H780.449ZM776.922 829.758L777.106 827.802H777.257L777.455 829.758L777.804 834.365H776.56L776.922 829.758Z" fill="#F24139"/>
<path d="M784.291 832.841V836.525C784.291 836.99 784.052 837.291 783.676 837.291C783.286 837.291 783.026 836.99 783.026 836.525V828.247C783.026 827.782 783.286 827.475 783.676 827.475C784.038 827.475 784.291 827.782 784.291 828.247V831.535H786.444V828.315C786.444 826.545 785.515 825.656 783.655 825.656C781.816 825.656 780.805 826.709 780.805 828.685V836.088C780.805 838.084 781.803 839.123 783.655 839.123C785.467 839.123 786.444 838.221 786.444 836.464V832.841H784.291Z" fill="#F24139"/>
<path d="M791.79 832.137L793.485 825.771H791.189L789.814 831.568H789.678L789.691 825.771H787.504V839H789.678V832.991H789.828L791.216 839H793.663L791.79 832.137Z" fill="#F24139"/>
<path d="M740.5 940.5H639.5C627.626 940.5 618 950.126 618 962C618 973.874 627.626 983.5 639.5 983.5H740.5C752.374 983.5 762 973.874 762 962C762 950.126 752.374 940.5 740.5 940.5Z" stroke="#F24139"/>
<path d="M661 950.404V952.796H663.197V974H665.98V952.796H668.178V950.379L661 950.404Z" fill="#F24139"/>
<path d="M669.776 951.209C669.141 951.869 668.824 952.833 668.824 954.103V970.277C668.824 972.804 670.13 974.171 672.522 974.171C674.964 974.171 676.282 972.816 676.282 970.277V954.103C676.282 952.833 675.965 951.869 675.33 951.209C674.695 950.55 673.768 950.221 672.559 950.221C671.338 950.221 670.411 950.55 669.776 951.209ZM673.45 970.704C673.45 971.375 673.096 971.778 672.559 971.778C671.961 971.778 671.656 971.424 671.656 970.704V953.7C671.656 953.028 671.998 952.601 672.559 952.601C673.121 952.601 673.45 953.028 673.45 953.7V970.704Z" fill="#F24139"/>
<path d="M683.265 961.744L685.718 950.379H682.813L680.835 960.829H680.64V950.379H677.869V974H680.64V963.001H680.835L682.862 974H685.987L683.265 961.744Z" fill="#F24139"/>
<path d="M689.552 962.977H692.25V960.597H689.552V952.796H692.458V950.379H686.781V974H692.506V971.571H689.552V962.977Z" fill="#F24139"/>
<path d="M698.756 964.125L696.657 950.379H693.812V974H696.365V966.627L696.107 959.376H696.303L698.561 974H701.211V950.379H698.659V956.874L698.927 964.125H698.756Z" fill="#F24139"/>
<path d="M711.685 961.878C712.771 961.598 713.32 960.78 713.32 959.449V953.248C713.32 951.429 712.087 950.379 710.085 950.379H706.045V974H710.061C712.197 974 713.491 972.84 713.491 970.899V964.503C713.479 963.099 712.881 962.269 711.685 962V961.878ZM709.695 952.772C710.281 952.772 710.574 953.089 710.562 953.724V959.925C710.574 960.56 710.281 960.877 709.695 960.877H708.816V952.772H709.695ZM709.646 963.075C710.366 963.075 710.72 963.441 710.72 964.173V970.497C710.708 971.229 710.342 971.595 709.609 971.595H708.816V963.075H709.646Z" fill="#F24139"/>
<path d="M719.276 950.379V970.777C719.276 971.449 718.996 971.778 718.434 971.778C717.86 971.778 717.58 971.449 717.58 970.777V950.379H714.809V970.948C714.809 973.048 716.139 974.171 718.397 974.171C720.705 974.171 722.06 973.036 722.06 970.899V950.379H719.276Z" fill="#F24139"/>
<path d="M730.141 963.673C730.775 963.038 731.093 962.184 731.093 961.122V953.846C731.093 951.551 729.774 950.379 727.516 950.379H723.744V974H726.515V964.906H727.736L728.566 974H731.361L730.141 963.673ZM726.54 952.796H727.113C727.882 952.796 728.261 953.236 728.261 954.127V961.195C728.261 962.098 727.882 962.55 727.113 962.55H726.54V952.796Z" fill="#F24139"/>
<path d="M737.598 964.125L735.499 950.379H732.654V974H735.206V966.627L734.949 959.376H735.145L737.403 974H740.052V950.379H737.5V956.874L737.769 964.125H737.598Z" fill="#F24139"/>
<path d="M630.287 973.082C628.92 971.2 628.715 969.135 629.33 966.932C629.619 965.888 630.02 964.878 630.228 963.81C630.462 962.684 630.417 961.516 630.098 960.411C630.061 960.285 630.045 960.152 629.999 959.926C630.653 960.359 631.193 960.947 631.573 961.64C631.767 961.998 631.926 962.386 632.122 962.754C632.168 962.842 632.253 962.933 632.373 962.886C632.493 962.84 632.44 962.738 632.431 962.655C632.233 960.725 632.645 958.873 633.425 957.137C634.794 954.101 636.546 951.31 638.964 949.001C639.352 948.637 639.765 948.302 640.2 947.998C639.566 950.689 640.377 953.034 641.767 955.309C641.97 955.011 641.912 954.722 641.944 954.458C641.987 953.997 642.165 953.56 642.454 953.202C642.497 953.145 642.56 953.106 642.631 953.095C642.721 953.095 642.712 953.199 642.717 953.274C642.795 954.623 643.558 955.626 644.353 956.607C645.527 958.053 646.834 959.385 647.905 960.913C649.351 962.987 650.11 965.249 649.978 967.816C649.978 967.816 650.045 976.815 639.254 976.996C632.57 977.111 630.287 973.082 630.287 973.082ZM646.446 962.519C646.479 962.282 646.361 962.11 646.142 961.963C645.789 961.726 645.389 961.571 645.068 961.283C644.891 961.123 644.819 961.266 644.78 961.435C644.649 962.006 644.764 962.276 645.289 962.547C645.508 962.662 645.75 962.727 645.976 962.833C646.405 963.021 646.449 962.998 646.446 962.519Z" fill="#D85632"/>
<path d="M643.009 976.533C644.38 976.127 645.305 975.146 645.959 973.867C646.411 973.013 646.653 972.061 646.665 971.092C646.655 970.232 646.574 969.374 646.425 968.528C646.33 967.744 646.085 966.986 645.706 966.296C645.561 966.054 645.436 965.918 645.229 966.269C645.072 966.575 644.834 966.83 644.54 967.003C644.486 967.042 644.422 967.063 644.356 967.066C644.29 967.068 644.224 967.05 644.168 967.016C644.071 966.949 644.092 966.836 644.104 966.734C644.227 965.536 644.172 964.327 643.943 963.146C643.799 962.34 643.636 961.542 643.198 960.837C642.986 960.494 642.898 960.496 642.698 960.837C642.577 961.093 642.402 961.318 642.184 961.495C641.939 961.662 641.734 961.702 641.637 961.316C641.37 960.274 640.812 959.38 640.171 958.546C639.692 957.925 639.131 957.38 638.369 957.111C638.044 956.993 637.854 957.064 637.839 957.437C637.784 958.059 637.696 958.677 637.576 959.289C637.283 961.083 636.87 962.834 636.103 964.491C635.863 965.052 635.533 965.567 635.125 966.016C634.948 966.206 634.708 966.427 634.441 966.32C634.175 966.212 634.065 965.884 634.044 965.575C634.03 965.396 634.044 965.202 634.044 965.022C633.887 965.006 633.843 965.098 633.784 965.157C632.778 966.19 632.401 967.504 632.195 968.89C632.091 969.73 632.091 970.58 632.195 971.42C632.371 973.158 632.767 974.859 634.242 975.905C635.125 976.527 635.946 976.904 638.396 976.994C640.845 977.084 641.888 976.87 643.009 976.533Z" fill="#EDBB41"/>
<path d="M646.446 962.518C646.446 963.005 646.406 963.028 645.976 962.832C645.75 962.728 645.508 962.662 645.289 962.547C644.759 962.276 644.65 962.009 644.781 961.435C644.819 961.266 644.89 961.123 645.069 961.282C645.39 961.571 645.791 961.725 646.142 961.962C646.361 962.102 646.48 962.274 646.446 962.518Z" fill="#EDBB41"/>
<path d="M640.092 965.447C640.092 965.447 635.016 967.817 635.016 971.608C635.016 975.399 636.941 975.933 639.041 975.933C641.141 975.933 643.767 975.194 643.767 972.024C643.767 968.854 641.316 967.787 641.316 967.787C641.316 967.787 639.945 967.727 639.945 966.927C639.945 966.927 639.8 966.543 640.092 965.447Z" fill="#F5F88F"/>
<path d="M690 769C699.389 769 707 776.611 707 786C707 795.389 699.389 803 690 803C680.611 803 673 795.389 673 786C673 776.611 680.611 769 690 769Z" fill="#F24139"/>
<path d="M684.398 780.9L692.884 789.386M685.106 790.093H693.591V781.607L685.106 790.093Z" stroke="white" stroke-width="4"/>
<path d="M10.5 8.5H299.5V163.5H10.5V8.5Z" stroke="#F24139"/>
<path d="M0.5 0.5H289.5V153.5H0.5V0.5Z" fill="#FFDDA6" stroke="#F24139"/>
<path d="M104.343 73.4834C107.167 72.7534 108.596 70.627 108.596 67.1675V51.0444C108.596 46.3154 105.39 43.5859 100.185 43.5859H89.6797V105H100.122C105.676 105 109.04 101.984 109.04 96.938V80.3071C109.008 76.6572 107.453 74.499 104.343 73.8008V73.4834ZM99.1694 49.8066C100.693 49.8066 101.455 50.6318 101.423 52.2822V68.4053C101.455 70.0557 100.693 70.8809 99.1694 70.8809H96.8843V49.8066H99.1694ZM99.0425 76.5938C100.915 76.5938 101.835 77.5459 101.835 79.4502V95.8906C101.804 97.7949 100.852 98.7471 98.9473 98.7471H96.8843V76.5938H99.0425Z" fill="#F24139"/>
<path d="M129.162 78.1489C130.812 76.4985 131.638 74.2769 131.638 71.5156V52.5996C131.638 46.6328 128.21 43.5859 122.338 43.5859H112.531V105H119.736V81.3545H122.91L125.068 105H132.336L129.162 78.1489ZM119.799 49.8701H121.291C123.291 49.8701 124.274 51.0127 124.274 53.3296V71.7061C124.274 74.0547 123.291 75.229 121.291 75.229H119.799V49.8701Z" fill="#F24139"/>
<path d="M155.633 105L150.174 43.5859H139.065L133.543 105H140.97L141.795 90.1777L147.317 90.2412L148.238 105H155.633ZM143.541 60.2803L144.271 50.9175H144.842L145.572 60.2803L147 83.9888H142.176L143.541 60.2803Z" fill="#F24139"/>
<path d="M170.772 79.3232L165.313 43.5859H157.918V105H164.551V85.8296L163.885 66.9771H164.393L170.264 105H177.151V43.5859H170.518V60.4707L171.216 79.3232H170.772Z" fill="#F24139"/>
<path d="M181.594 43.5859V105H191.782C197.241 105 200.637 101.635 200.637 95.5732V53.0122C200.637 46.9185 197.336 43.5859 191.782 43.5859H181.594ZM193.337 96.0176C193.337 97.668 192.417 98.6836 191.02 98.6836H188.798V49.8701H191.02C192.385 49.8701 193.337 50.8857 193.337 52.5361V96.0176Z" fill="#F24139"/>
<path d="M150 504C216.274 504 270 450.274 270 384C270 317.726 216.274 264 150 264C83.7258 264 30 317.726 30 384C30 450.274 83.7258 504 150 504Z" fill="#3A312E"/>
<path d="M105.125 327.958C104.902 330.117 104.363 331.831 103.506 333.068C102.617 334.338 101.062 335.068 98.8086 335.29V339.829H102.776V389.499H109.79V327.958H105.125Z" fill="#FFEBCC"/>
<path d="M122.802 327.673C117.089 327.673 113.693 330.91 113.693 336.718V380.866C113.693 386.674 117.089 389.88 122.802 389.88C128.515 389.88 131.911 386.674 131.911 380.866V336.718C131.911 330.91 128.61 327.673 122.802 327.673ZM124.833 381.311C124.833 383.088 124.166 383.977 122.833 383.977C121.469 383.977 120.802 383.088 120.802 381.311V336.274C120.77 334.528 121.469 333.671 122.865 333.671C124.166 333.671 124.833 334.528 124.833 336.274V381.311Z" fill="#FFEBCC"/>
<path d="M137.751 329.228C136.672 330.339 136.133 331.799 136.133 333.671V339.575C136.133 343.288 138.45 345.637 142.1 345.637C145.75 345.637 148.098 343.288 148.098 339.575V333.671C148.098 331.799 147.559 330.339 146.479 329.228C145.369 328.149 143.909 327.609 142.1 327.609C140.291 327.609 138.831 328.149 137.751 329.228ZM136.387 389.499H143.274L161.873 327.736H155.112L136.387 389.499ZM143.083 339.638C143.083 340.432 142.766 340.812 142.1 340.812C141.433 340.812 141.116 340.432 141.116 339.638V333.608C141.116 332.814 141.433 332.434 142.1 332.434C142.766 332.434 143.083 332.814 143.083 333.608V339.638ZM156.35 371.948C152.7 371.948 150.352 374.265 150.352 377.915V383.913C150.352 387.626 152.7 389.943 156.35 389.943C160 389.943 162.317 387.626 162.317 383.913V377.915C162.317 374.201 160.063 371.948 156.35 371.948ZM157.302 383.977C157.302 384.77 156.985 385.151 156.35 385.151C155.684 385.151 155.366 384.77 155.366 383.977V377.915C155.366 377.153 155.684 376.772 156.35 376.74C156.985 376.74 157.302 377.121 157.302 377.915V383.977Z" fill="#FFEBCC"/>
<path d="M176.834 328.037H166.592V371.499H171.69V351.307H176.52V346.882H171.69V332.484H176.834V328.037Z" fill="#FFEBCC"/>
<path d="M183.774 351.217H188.738V346.837H183.774V332.484H189.12V328.037H178.676V371.499H189.21V367.029H183.774V351.217Z" fill="#FFEBCC"/>
<path d="M196.712 351.217H201.676V346.837H196.712V332.484H202.058V328.037H191.613V371.499H202.147V367.029H196.712V351.217Z" fill="#FFEBCC"/>
<path d="M135.41 410.521C136.203 410.521 136.846 410.261 137.345 409.748C137.844 409.235 138.09 408.552 138.09 407.697V403.985C138.09 403.117 137.851 402.448 137.372 401.977C136.894 401.505 136.237 401.271 135.396 401.271H132.416V414.499H134.604V410.521H135.41ZM134.604 408.661V403.132H135.089C135.595 403.132 135.848 403.432 135.848 404.04V407.725C135.848 408.347 135.595 408.661 135.089 408.661H134.604Z" fill="#FFEBCC"/>
<path d="M144.611 414.499L143.073 401.271H139.655L138.09 414.499H140.346L140.564 411.655L142.109 411.669L142.328 414.499H144.611ZM141.084 405.257L141.269 403.302H141.419L141.617 405.257L141.966 409.865H140.722L141.084 405.257Z" fill="#FFEBCC"/>
<path d="M145.186 414.499H147.373V401.271H145.186V414.499Z" fill="#FFEBCC"/>
<path d="M148.562 401.271V414.499H151.503C152.33 414.499 152.986 414.26 153.465 413.788C153.937 413.316 154.176 412.633 154.176 411.724V404.067C154.176 402.215 153.178 401.271 151.503 401.271H148.562ZM151.967 411.867C151.967 412.353 151.715 412.641 151.305 412.641H150.751V403.132H151.325C151.715 403.132 151.967 403.419 151.967 403.904V411.867Z" fill="#FFEBCC"/>
<path d="M157.504 414.499H159.691V401.271H157.504V414.499Z" fill="#FFEBCC"/>
<path d="M164.552 408.449L163.123 401.271H160.881V414.499H162.938V410.227L162.802 406.754H162.925L164.463 414.499H166.582V401.271H164.524V404.895L164.661 408.449H164.552Z" fill="#FFEBCC"/>
<path d="M105.553 434.195V442.203C105.553 442.875 105.211 443.277 104.686 443.277C104.149 443.277 103.783 442.875 103.783 442.203V425.174C103.783 424.54 104.149 424.1 104.686 424.1C105.211 424.1 105.553 424.503 105.553 425.174V432.254H108.311V425.199C108.311 422.879 107.103 421.72 104.686 421.72C102.281 421.72 100.951 423.062 100.951 425.602V441.776C100.951 444.303 102.293 445.67 104.686 445.67C107.042 445.67 108.311 444.437 108.311 442.179V434.195H105.553Z" fill="#FFEBCC"/>
<path d="M116.223 435.172C116.857 434.537 117.175 433.683 117.175 432.621V425.345C117.175 423.05 115.856 421.878 113.598 421.878H109.826V445.499H112.597V436.405H113.818L114.648 445.499H117.443L116.223 435.172ZM112.622 424.295H113.195C113.964 424.295 114.343 424.735 114.343 425.626V432.694C114.343 433.597 113.964 434.049 113.195 434.049H112.622V424.295Z" fill="#FFEBCC"/>
<path d="M121.812 432.95L121.495 429.947L120.665 421.878H117.564L120.494 439.396V445.499H123.29V439.444L126.219 421.878H123.192L122.362 429.947L122.044 432.95H121.812Z" fill="#FFEBCC"/>
<path d="M130.883 437.955C131.97 437.955 132.836 437.625 133.508 436.966C134.179 436.319 134.509 435.416 134.509 434.269V425.455C134.509 423.111 133.154 421.878 130.859 421.878H127.111V445.499H129.882V437.955H130.883ZM129.882 435.526V424.295H130.603C131.323 424.308 131.677 424.735 131.677 425.602V434.195C131.677 435.086 131.323 435.526 130.603 435.526H129.882Z" fill="#FFEBCC"/>
<path d="M134.973 421.903V424.295H137.17V445.499H139.953V424.295H142.15V421.878L134.973 421.903Z" fill="#FFEBCC"/>
<path d="M143.75 422.708C143.115 423.368 142.797 424.332 142.797 425.602V441.776C142.797 444.303 144.104 445.67 146.496 445.67C148.938 445.67 150.256 444.315 150.256 441.776V425.602C150.256 424.332 149.938 423.368 149.304 422.708C148.669 422.049 147.741 421.72 146.533 421.72C145.312 421.72 144.384 422.049 143.75 422.708ZM147.424 442.203C147.424 442.875 147.07 443.277 146.533 443.277C145.935 443.277 145.629 442.923 145.629 442.203V425.199C145.629 424.527 145.971 424.1 146.533 424.1C147.094 424.1 147.424 424.527 147.424 425.199V442.203Z" fill="#FFEBCC"/>
<path d="M154.09 448.001H156.763L161.744 421.744H159.095L154.09 448.001Z" fill="#FFEBCC"/>
<path d="M168.701 434.476H171.398V432.096H168.701V424.295H171.606V421.878H165.93V445.499H171.655V443.07H168.701V434.476Z" fill="#FFEBCC"/>
<path d="M177.405 421.878V442.276C177.405 442.948 177.124 443.277 176.562 443.277C175.988 443.277 175.708 442.948 175.708 442.276V421.878H172.938V442.447C172.938 444.547 174.267 445.67 176.525 445.67C178.833 445.67 180.189 444.535 180.189 442.398V421.878H177.405Z" fill="#FFEBCC"/>
<path d="M188.268 435.172C188.902 434.537 189.22 433.683 189.22 432.621V425.345C189.22 423.05 187.901 421.878 185.643 421.878H181.871V445.499H184.642V436.405H185.863L186.693 445.499H189.488L188.268 435.172ZM184.666 424.295H185.24C186.009 424.295 186.388 424.735 186.388 425.626V432.694C186.388 433.597 186.009 434.049 185.24 434.049H184.666V424.295Z" fill="#FFEBCC"/>
<path d="M191.528 422.708C190.893 423.368 190.576 424.332 190.576 425.602V441.776C190.576 444.303 191.882 445.67 194.274 445.67C196.716 445.67 198.034 444.315 198.034 441.776V425.602C198.034 424.332 197.717 423.368 197.082 422.708C196.447 422.049 195.52 421.72 194.311 421.72C193.09 421.72 192.163 422.049 191.528 422.708ZM195.202 442.203C195.202 442.875 194.848 443.277 194.311 443.277C193.713 443.277 193.408 442.923 193.408 442.203V425.199C193.408 424.527 193.75 424.1 194.311 424.1C194.873 424.1 195.202 424.527 195.202 425.199V442.203Z" fill="#FFEBCC"/>
<path d="M90 648C139.706 648 180 607.706 180 558C180 508.294 139.706 468 90 468C40.2944 468 0 508.294 0 558C0 607.706 40.2944 648 90 648Z" fill="white"/>
<path d="M54.4552 528.872L55.4072 505.798H64.5797L65.0239 500.085H48.8374L47.4726 531.729L54.1694 533.093C54.5185 531.887 55.2168 531.284 56.2641 531.284C57.5972 531.252 58.2637 531.982 58.2637 533.411V553.755C58.2954 555.183 57.5972 555.913 56.2007 555.913C54.7724 555.913 54.0425 555.088 54.0425 553.438V535.029H47.2188V552.993C47.2188 558.801 50.4878 561.88 56.2007 561.88C62.0088 561.88 65.373 558.801 65.373 552.993V532.522C65.373 527.92 63.3419 525.54 60.041 525.54C57.6607 525.571 55.8833 526.682 54.7724 528.872H54.4552Z" fill="#F24139"/>
<path d="M70.769 501.228C69.6899 502.339 69.1504 503.799 69.1504 505.671V511.575C69.1504 515.288 71.4673 517.637 75.1172 517.637C78.7671 517.637 81.1157 515.288 81.1157 511.575V505.671C81.1157 503.799 80.5762 502.339 79.4971 501.228C78.3862 500.149 76.9263 499.609 75.1172 499.609C73.3081 499.609 71.8481 500.149 70.769 501.228ZM69.4043 561.499H76.2915L94.8901 499.736H88.1299L69.4043 561.499ZM76.1011 511.638C76.1011 512.432 75.7837 512.812 75.1172 512.812C74.4507 512.812 74.1333 512.432 74.1333 511.638V505.608C74.1333 504.814 74.4507 504.434 75.1172 504.434C75.7837 504.434 76.1011 504.814 76.1011 505.608V511.638ZM89.3677 543.948C85.7178 543.948 83.3691 546.265 83.3691 549.915V555.913C83.3691 559.626 85.7178 561.943 89.3677 561.943C93.0176 561.943 95.3345 559.626 95.3345 555.913V549.915C95.3345 546.201 93.0811 543.948 89.3677 543.948ZM90.3198 555.977C90.3198 556.77 90.0024 557.151 89.3677 557.151C88.7012 557.151 88.3838 556.77 88.3838 555.977V549.915C88.3838 549.153 88.7012 548.772 89.3677 548.74C90.0024 548.74 90.3198 549.121 90.3198 549.915V555.977Z" fill="#F24139"/>
<path d="M109.834 500.037H99.5918V543.499H104.69V523.307H109.52V518.882H104.69V504.484H109.834V500.037Z" fill="#F24139"/>
<path d="M116.774 523.217H121.738V518.837H116.774V504.484H122.12V500.037H111.676V543.499H122.21V539.029H116.774V523.217Z" fill="#F24139"/>
<path d="M129.712 523.217H134.676V518.837H129.712V504.484H135.058V500.037H124.613V543.499H135.147V539.029H129.712V523.217Z" fill="#F24139"/>
<path d="M150 502C159.389 502 167 494.389 167 485C167 475.611 159.389 468 150 468C140.611 468 133 475.611 133 485C133 494.389 140.611 502 150 502Z" fill="#F24139"/>
<path d="M146.616 478.156C144.764 478.156 143.766 479.209 143.766 481.185V488.588C143.766 490.584 144.764 491.623 146.616 491.623C148.503 491.623 149.501 490.584 149.501 488.588V481.185C149.501 479.209 148.503 478.156 146.616 478.156ZM147.279 489.025C147.279 489.49 147.026 489.791 146.637 489.791C146.247 489.791 145.987 489.49 145.987 489.025V480.747C145.987 480.282 146.247 479.975 146.637 479.975C147.026 479.975 147.279 480.282 147.279 480.747V489.025ZM155.544 485.785C156.002 485.313 156.228 484.685 156.228 483.898V480.863C156.228 479.175 155.284 478.272 153.568 478.272H150.602V491.5H152.789V486.742H153.637L154.211 491.5H156.439L155.544 485.785ZM152.803 480.132H153.206C153.739 480.132 154.006 480.446 154.006 481.068V483.994C154.006 484.657 153.739 484.992 153.206 484.992H152.803V480.132Z" fill="white"/>
<path d="M215 238H85C71.1929 238 60 249.193 60 263C60 276.807 71.1929 288 85 288H215C228.807 288 240 276.807 240 263C240 249.193 228.807 238 215 238Z" fill="#F24139"/>
<path d="M82.4092 263.436V273.045C82.4092 273.851 81.999 274.334 81.3691 274.334C80.7246 274.334 80.2852 273.851 80.2852 273.045V252.61C80.2852 251.849 80.7246 251.321 81.3691 251.321C81.999 251.321 82.4092 251.805 82.4092 252.61V261.106H85.7197V252.64C85.7197 249.856 84.2695 248.465 81.3691 248.465C78.4834 248.465 76.8867 250.076 76.8867 253.123V272.532C76.8867 275.564 78.498 277.205 81.3691 277.205C84.1963 277.205 85.7197 275.726 85.7197 273.016V263.436H82.4092Z" fill="#FFDDA6"/>
<path d="M96.6466 277L94.127 248.655H89.0001L86.4512 277H89.879L90.2598 270.159L92.8087 270.188L93.2335 277H96.6466ZM91.0655 256.36L91.4024 252.039H91.6661L92.003 256.36L92.6622 267.303H90.4356L91.0655 256.36Z" fill="#FFDDA6"/>
<path d="M104 268.636L103.604 262.425L102.433 248.655H97.7012V277H100.719V266.863L100.543 256.155H100.792L102.374 277H105.728L107.384 256.185H107.633L107.442 266.863L107.413 277H110.475V248.655H105.802L104.571 262.425L104.205 268.636H104Z" fill="#FFDDA6"/>
<path d="M117.052 267.947C118.355 267.947 119.395 267.552 120.201 266.761C121.007 265.984 121.402 264.9 121.402 263.523V252.947C121.402 250.135 119.776 248.655 117.022 248.655H112.525V277H115.851V267.947H117.052ZM115.851 265.032V251.556H116.715C117.579 251.57 118.004 252.083 118.004 253.123V263.436C118.004 264.505 117.579 265.032 116.715 265.032H115.851Z" fill="#FFDDA6"/>
<path d="M131.716 277L129.196 248.655H124.069L121.521 277H124.948L125.329 270.159L127.878 270.188L128.303 277H131.716ZM126.135 256.36L126.472 252.039H126.735L127.072 256.36L127.731 267.303H125.505L126.135 256.36Z" fill="#FFDDA6"/>
<path d="M132.771 277H136.096V248.655H132.771V277Z" fill="#FFDDA6"/>
<path d="M143.859 275.315L144.27 277H146.833V261.883H142.38V264.607H143.522V273.133C143.522 273.851 143.054 274.363 142.409 274.363C141.691 274.363 141.34 273.938 141.34 273.074V252.61C141.34 251.849 141.765 251.321 142.453 251.321C143.142 251.321 143.493 251.746 143.493 252.61V260.374H146.833V252.522C146.833 249.93 145.339 248.465 142.512 248.465C139.538 248.465 137.971 250.076 137.971 253.123V273.191C137.971 275.755 139.187 277.161 141.062 277.205C142.365 277.205 143.215 276.575 143.64 275.315H143.859Z" fill="#FFDDA6"/>
<path d="M154.612 265.149L152.093 248.655H148.68V277H151.741V268.152L151.434 259.451H151.668L154.378 277H157.557V248.655H154.495V256.448L154.817 265.149H154.612Z" fill="#FFDDA6"/>
<path d="M170.123 262.454C171.427 262.117 172.086 261.136 172.086 259.539V252.098C172.086 249.915 170.606 248.655 168.204 248.655H163.355V277H168.175C170.738 277 172.291 275.608 172.291 273.279V265.604C172.276 263.919 171.559 262.923 170.123 262.601V262.454ZM167.735 251.526C168.438 251.526 168.79 251.907 168.775 252.669V260.11C168.79 260.872 168.438 261.253 167.735 261.253H166.681V251.526H167.735ZM167.677 263.89C168.541 263.89 168.966 264.329 168.966 265.208V272.796C168.951 273.675 168.512 274.114 167.633 274.114H166.681V263.89H167.677Z" fill="#FFDDA6"/>
<path d="M179.234 248.655V273.133C179.234 273.938 178.897 274.334 178.224 274.334C177.535 274.334 177.198 273.938 177.198 273.133V248.655H173.873V273.338C173.873 275.857 175.47 277.205 178.18 277.205C180.948 277.205 182.574 275.843 182.574 273.279V248.655H179.234Z" fill="#FFDDA6"/>
<path d="M184.598 248.655V277H189.3C191.819 277 193.387 275.447 193.387 272.649V253.006C193.387 250.193 191.863 248.655 189.3 248.655H184.598ZM190.018 272.854C190.018 273.616 189.593 274.085 188.948 274.085H187.923V251.556H188.948C189.578 251.556 190.018 252.024 190.018 252.786V272.854Z" fill="#FFDDA6"/>
<path d="M201.018 275.315L201.428 277H203.991V261.883H199.538V264.607H200.681V273.133C200.681 273.851 200.212 274.363 199.567 274.363C198.85 274.363 198.498 273.938 198.498 273.074V252.61C198.498 251.849 198.923 251.321 199.611 251.321C200.3 251.321 200.651 251.746 200.651 252.61V260.374H203.991V252.522C203.991 249.93 202.497 248.465 199.67 248.465C196.696 248.465 195.129 250.076 195.129 253.123V273.191C195.129 275.755 196.345 277.161 198.22 277.205C199.523 277.205 200.373 276.575 200.798 275.315H201.018Z" fill="#FFDDA6"/>
<path d="M209.163 263.772H212.4V260.916H209.163V251.556H212.649V248.655H205.838V277H212.708V274.085H209.163V263.772Z" fill="#FFDDA6"/>
<path d="M213.309 248.685V251.556H215.945V277H219.285V251.556H221.922V248.655L213.309 248.685Z" fill="#FFDDA6"/>
<path d="M149.537 184C152.058 184 154.074 186.086 154.074 188.694C154.074 191.302 152.058 193.388 149.537 193.388C147.016 193.388 145 191.302 145 188.694C145 186.086 147.016 184 149.537 184Z" fill="white"/>
<path d="M149.537 233C152.058 233 154.074 235.086 154.074 237.694C154.074 240.302 152.058 242.388 149.537 242.388C147.016 242.388 145 240.302 145 237.694C145 235.086 147.016 233 149.537 233Z" fill="white"/>
<path d="M155.574 188.694C155.574 185.306 152.934 182.5 149.537 182.5V185.5C151.181 185.5 152.574 186.866 152.574 188.694H155.574ZM149.537 182.5C146.14 182.5 143.5 185.306 143.5 188.694H146.5C146.5 186.866 147.893 185.5 149.537 185.5V182.5ZM143.5 188.694C143.5 192.082 146.14 194.888 149.537 194.888V191.888C147.893 191.888 146.5 190.522 146.5 188.694H143.5ZM149.537 194.888C152.934 194.888 155.574 192.082 155.574 188.694H152.574C152.574 190.522 151.181 191.888 149.537 191.888V194.888ZM155.574 237.694C155.574 234.306 152.934 231.5 149.537 231.5V234.5C151.181 234.5 152.574 235.866 152.574 237.694H155.574ZM149.537 231.5C146.14 231.5 143.5 234.306 143.5 237.694H146.5C146.5 235.866 147.893 234.5 149.537 234.5V231.5ZM143.5 237.694C143.5 241.082 146.14 243.888 149.537 243.888V240.888C147.893 240.888 146.5 239.522 146.5 237.694H143.5ZM149.537 243.888C152.934 243.888 155.574 241.082 155.574 237.694H152.574C152.574 239.522 151.181 240.888 149.537 240.888V243.888Z" fill="#F24139"/>
<path d="M149.5 194V232" stroke="#F24139" stroke-width="3"/>
<path d="M688 503C754.274 503 808 449.274 808 383C808 316.726 754.274 263 688 263C621.726 263 568 316.726 568 383C568 449.274 621.726 503 688 503Z" fill="#3A312E"/>
<path d="M643.125 326.958C642.902 329.117 642.363 330.831 641.506 332.068C640.617 333.338 639.062 334.068 636.809 334.29V338.829H640.776V388.499H647.79V326.958H643.125Z" fill="#FFEBCC"/>
<path d="M660.802 326.673C655.089 326.673 651.693 329.91 651.693 335.718V379.866C651.693 385.674 655.089 388.88 660.802 388.88C666.515 388.88 669.911 385.674 669.911 379.866V335.718C669.911 329.91 666.61 326.673 660.802 326.673ZM662.833 380.311C662.833 382.088 662.166 382.977 660.833 382.977C659.469 382.977 658.802 382.088 658.802 380.311V335.274C658.77 333.528 659.469 332.671 660.865 332.671C662.166 332.671 662.833 333.528 662.833 335.274V380.311Z" fill="#FFEBCC"/>
<path d="M675.751 328.228C674.672 329.339 674.133 330.799 674.133 332.671V338.575C674.133 342.288 676.45 344.637 680.1 344.637C683.75 344.637 686.098 342.288 686.098 338.575V332.671C686.098 330.799 685.559 329.339 684.479 328.228C683.369 327.149 681.909 326.609 680.1 326.609C678.291 326.609 676.831 327.149 675.751 328.228ZM674.387 388.499H681.274L699.873 326.736H693.112L674.387 388.499ZM681.083 338.638C681.083 339.432 680.766 339.812 680.1 339.812C679.433 339.812 679.116 339.432 679.116 338.638V332.608C679.116 331.814 679.433 331.434 680.1 331.434C680.766 331.434 681.083 331.814 681.083 332.608V338.638ZM694.35 370.948C690.7 370.948 688.352 373.265 688.352 376.915V382.913C688.352 386.626 690.7 388.943 694.35 388.943C698 388.943 700.317 386.626 700.317 382.913V376.915C700.317 373.201 698.063 370.948 694.35 370.948ZM695.302 382.977C695.302 383.77 694.985 384.151 694.35 384.151C693.684 384.151 693.366 383.77 693.366 382.977V376.915C693.366 376.153 693.684 375.772 694.35 375.74C694.985 375.74 695.302 376.121 695.302 376.915V382.977Z" fill="#FFEBCC"/>
<path d="M714.834 327.037H704.592V370.499H709.69V350.307H714.52V345.882H709.69V331.484H714.834V327.037Z" fill="#FFEBCC"/>
<path d="M721.774 350.217H726.738V345.837H721.774V331.484H727.12V327.037H716.676V370.499H727.21V366.029H721.774V350.217Z" fill="#FFEBCC"/>
<path d="M734.712 350.217H739.676V345.837H734.712V331.484H740.058V327.037H729.613V370.499H740.147V366.029H734.712V350.217Z" fill="#FFEBCC"/>
<path d="M659.09 413.499H661.277V400.271H659.09V413.499Z" fill="#FFEBCC"/>
<path d="M666.138 407.449L664.709 400.271H662.467V413.499H664.524V409.227L664.388 405.754H664.511L666.049 413.499H668.168V400.271H666.11V403.895L666.247 407.449H666.138Z" fill="#FFEBCC"/>
<path d="M673.737 400.271H669.369V413.499H671.557V407.62H673.566V405.802H671.557V402.132H673.737V400.271Z" fill="#FFEBCC"/>
<path d="M676.629 400.271H674.441V413.499H678.728V411.641H676.629V400.271Z" fill="#FFEBCC"/>
<path d="M682.576 400.271V411.079C682.569 411.551 682.371 411.79 681.968 411.79C681.578 411.79 681.38 411.551 681.38 411.079V400.271H679.199V411.175C679.199 412.781 680.17 413.622 681.961 413.622C683.752 413.622 684.757 412.768 684.757 411.147V400.271H682.576Z" fill="#FFEBCC"/>
<path d="M688.141 407.606H690.267V405.802H688.141V402.132H690.431V400.271H685.953V413.499H690.465V411.641H688.141V407.606Z" fill="#FFEBCC"/>
<path d="M695.095 407.449L693.666 400.271H691.424V413.499H693.481V409.227L693.345 405.754H693.468L695.006 413.499H697.125V400.271H695.067V403.895L695.204 407.449H695.095Z" fill="#FFEBCC"/>
<path d="M701.705 407.34V411.024C701.705 411.489 701.466 411.79 701.09 411.79C700.7 411.79 700.44 411.489 700.44 411.024V402.746C700.44 402.281 700.7 401.974 701.09 401.974C701.452 401.974 701.705 402.281 701.705 402.746V406.034H703.858V402.814C703.858 401.044 702.929 400.155 701.069 400.155C699.23 400.155 698.219 401.208 698.219 403.184V410.587C698.219 412.583 699.217 413.622 701.069 413.622C702.881 413.622 703.858 412.72 703.858 410.963V407.34H701.705Z" fill="#FFEBCC"/>
<path d="M707.105 407.606H709.231V405.802H707.105V402.132H709.396V400.271H704.918V413.499H709.43V411.641H707.105V407.606Z" fill="#FFEBCC"/>
<path d="M715.329 407.784C715.787 407.312 716.013 406.684 716.013 405.897V402.862C716.013 401.174 715.069 400.271 713.354 400.271H710.387V413.499H712.574V408.741H713.422L713.996 413.499H716.225L715.329 407.784ZM712.588 402.132H712.991C713.524 402.132 713.791 402.445 713.791 403.067V405.993C713.791 406.656 713.524 406.991 712.991 406.991H712.588V402.132Z" fill="#FFEBCC"/>
<path d="M661.303 433.195V441.203C661.303 441.875 660.961 442.277 660.436 442.277C659.899 442.277 659.533 441.875 659.533 441.203V424.174C659.533 423.54 659.899 423.1 660.436 423.1C660.961 423.1 661.303 423.503 661.303 424.174V431.254H664.062V424.199C664.062 421.879 662.853 420.72 660.436 420.72C658.031 420.72 656.701 422.062 656.701 424.602V440.776C656.701 443.303 658.043 444.67 660.436 444.67C662.792 444.67 664.062 443.437 664.062 441.179V433.195H661.303Z" fill="#FFEBCC"/>
<path d="M673.168 444.499L671.068 420.878H666.796L664.672 444.499H667.528L667.846 438.798L669.97 438.823L670.324 444.499H673.168ZM668.517 427.299L668.798 423.698H669.018L669.298 427.299L669.848 436.418H667.992L668.517 427.299Z" fill="#FFEBCC"/>
<path d="M681.066 423.82C681.066 421.904 679.796 420.72 677.465 420.72C676.269 420.72 675.353 421.025 674.718 421.635C674.083 422.246 673.766 423.039 673.766 424.003V429.545C673.766 431.389 674.45 432.377 676.049 432.976L677.367 433.525C678.051 433.854 678.393 434.379 678.393 435.1V441.374C678.393 441.911 678.075 442.277 677.501 442.277C676.903 442.277 676.598 441.948 676.598 441.301V435.002H673.815V441.472C673.815 443.474 675.231 444.67 677.526 444.67C678.661 444.67 679.552 444.353 680.224 443.73C680.895 443.107 681.225 442.265 681.225 441.179V434.501C681.225 433.549 681.029 432.829 680.639 432.341C680.236 431.865 679.625 431.438 678.795 431.071L677.465 430.498C676.867 430.18 676.574 429.692 676.574 429.045V423.894C676.574 423.442 676.879 423.1 677.416 423.1C678.014 423.1 678.319 423.405 678.319 424.003V429.252H681.066V423.82Z" fill="#FFEBCC"/>
<path d="M687.157 431.096H685.46V420.878H682.689V444.499H685.46V433.525H687.157V444.499H689.94V420.878H687.157V431.096Z" fill="#FFEBCC"/>
<path d="M695.593 421.708C694.959 422.368 694.641 423.332 694.641 424.602V440.776C694.641 443.303 695.947 444.67 698.34 444.67C700.781 444.67 702.1 443.315 702.1 440.776V424.602C702.1 423.332 701.782 422.368 701.147 421.708C700.513 421.049 699.585 420.72 698.376 420.72C697.156 420.72 696.228 421.049 695.593 421.708ZM699.268 441.203C699.268 441.875 698.914 442.277 698.376 442.277C697.778 442.277 697.473 441.923 697.473 441.203V424.199C697.473 423.527 697.815 423.1 698.376 423.1C698.938 423.1 699.268 423.527 699.268 424.199V441.203Z" fill="#FFEBCC"/>
<path d="M708.128 420.878V441.276C708.128 441.948 707.847 442.277 707.286 442.277C706.712 442.277 706.431 441.948 706.431 441.276V420.878H703.66V441.447C703.66 443.547 704.991 444.67 707.249 444.67C709.556 444.67 710.911 443.535 710.911 441.398V420.878H708.128Z" fill="#FFEBCC"/>
<path d="M711.791 420.903V423.295H713.988V444.499H716.771V423.295H718.969V420.878L711.791 420.903Z" fill="#FFEBCC"/>
<path d="M550.5 8.5H839.5V163.5H550.5V8.5Z" stroke="#F24139"/>
<path d="M540.5 0.5H829.5V153.5H540.5V0.5Z" fill="#FFDDA6" stroke="#F24139"/>
<path d="M588.262 105H595.466V43.5859H588.262V105Z" fill="#F24139"/>
<path d="M612.733 79.3232L607.274 43.5859H599.879V105H606.512V85.8296L605.846 66.977H606.354L612.225 105H619.112V43.5859H612.479V60.4707L613.177 79.3232H612.733Z" fill="#F24139"/>
<path d="M638.027 43.5859H623.555V105H630.759V76.4668H637.583V70.2143H630.759V49.8701H638.027V43.5859Z" fill="#F24139"/>
<path d="M647.835 43.5859H640.631V105H654.977V98.6836H647.835V43.5859Z" fill="#F24139"/>
<path d="M668.433 43.5859V96.6206C668.433 98.3662 667.703 99.2231 666.243 99.2231C664.751 99.2231 664.021 98.3662 664.021 96.6206V43.5859H656.816V97.0649C656.816 102.524 660.276 105.444 666.147 105.444C672.146 105.444 675.669 102.493 675.669 96.938V43.5859H668.433Z" fill="#F24139"/>
<path d="M687.253 76.3398H694.268V70.1509H687.253V49.8701H694.807V43.5859H680.049V105H694.934V98.6836H687.253V76.3398Z" fill="#F24139"/>
<path d="M711.184 79.3232L705.725 43.5859H698.33V105H704.963V85.8296L704.297 66.977H704.805L710.676 105H717.563V43.5859H710.93V60.4707L711.628 79.3232H711.184Z" fill="#F24139"/>
<path d="M733.623 75.6104V96.4307C733.623 98.1763 732.734 99.2236 731.37 99.2236C729.973 99.2236 729.021 98.1763 729.021 96.4307V52.1558C729.021 50.5054 729.973 49.3628 731.37 49.3628C732.734 49.3628 733.623 50.4102 733.623 52.1558V70.564H740.796V52.2192C740.796 46.189 737.654 43.1738 731.37 43.1738C725.117 43.1738 721.658 46.665 721.658 53.2666V95.3198C721.658 101.89 725.149 105.444 731.37 105.444C737.495 105.444 740.796 102.239 740.796 96.3672V75.6104H733.623Z" fill="#F24139"/>
<path d="M751.935 76.3398H758.949V70.1509H751.935V49.8701H759.489V43.5859H744.73V105H759.616V98.6836H751.935V76.3398Z" fill="#F24139"/>
<path d="M779.645 78.1489C781.295 76.4985 782.12 74.2768 782.12 71.5156V52.5996C782.12 46.6328 778.692 43.5859 772.821 43.5859H763.014V105H770.218V81.3545H773.392L775.55 105H782.818L779.645 78.1489ZM770.282 49.8701H771.773C773.773 49.8701 774.757 51.0127 774.757 53.3296V71.706C774.757 74.0547 773.773 75.229 771.773 75.229H770.282V49.8701Z" fill="#F24139"/>
<path d="M631 263C631 249.193 642.193 238 656 238H721C734.807 238 746 249.193 746 263C746 276.807 734.807 288 721 288H656C642.193 288 631 276.807 631 263Z" fill="#F24139"/>
<path d="M666.948 267.947C668.252 267.947 669.292 267.552 670.098 266.761C670.903 265.984 671.299 264.9 671.299 263.523V252.947C671.299 250.135 669.673 248.655 666.919 248.655H662.422V277H665.747V267.947H666.948ZM665.747 265.032V251.556H666.611C667.476 251.57 667.9 252.083 667.9 253.123V263.436C667.9 264.505 667.476 265.032 666.611 265.032H665.747Z" fill="#FFDDA6"/>
<path d="M681.611 277L679.092 248.655H673.965L671.416 277H674.844L675.225 270.159L677.773 270.188L678.198 277H681.611ZM676.03 256.36L676.367 252.039H676.631L676.968 256.36L677.627 267.303H675.4L676.03 256.36Z" fill="#FFDDA6"/>
<path d="M685.742 261.941L685.361 258.338L684.365 248.655H680.645L684.159 269.676V277H687.515V269.734L691.03 248.655H687.396L686.401 258.338L686.021 261.941H685.742Z" fill="#FFDDA6"/>
<path d="M692.495 249.651C691.733 250.442 691.354 251.6 691.354 253.123V272.532C691.354 275.564 692.921 277.205 695.792 277.205C698.722 277.205 700.303 275.579 700.303 272.532V253.123C700.303 251.6 699.922 250.442 699.16 249.651C698.398 248.86 697.286 248.465 695.836 248.465C694.371 248.465 693.257 248.86 692.495 249.651ZM696.904 273.045C696.904 273.851 696.48 274.334 695.836 274.334C695.118 274.334 694.751 273.909 694.751 273.045V252.64C694.751 251.834 695.162 251.321 695.836 251.321C696.51 251.321 696.904 251.834 696.904 252.64V273.045Z" fill="#FFDDA6"/>
<path d="M707.539 248.655V273.133C707.539 273.938 707.202 274.334 706.528 274.334C705.84 274.334 705.503 273.938 705.503 273.133V248.655H702.178V273.338C702.178 275.857 703.774 277.205 706.484 277.205C709.253 277.205 710.879 275.843 710.879 273.279V248.655H707.539Z" fill="#FFDDA6"/>
<path d="M711.934 248.685V251.556H714.57V277H717.91V251.556H720.547V248.655L711.934 248.685Z" fill="#FFDDA6"/>
<path d="M688.537 184C691.058 184 693.074 186.086 693.074 188.694C693.074 191.302 691.058 193.388 688.537 193.388C686.016 193.388 684 191.302 684 188.694C684 186.086 686.016 184 688.537 184Z" fill="white"/>
<path d="M688.537 233C691.058 233 693.074 235.086 693.074 237.694C693.074 240.302 691.058 242.388 688.537 242.388C686.016 242.388 684 240.302 684 237.694C684 235.086 686.016 233 688.537 233Z" fill="white"/>
<path d="M694.574 188.694C694.574 185.306 691.934 182.5 688.537 182.5V185.5C690.181 185.5 691.574 186.866 691.574 188.694H694.574ZM688.537 182.5C685.14 182.5 682.5 185.306 682.5 188.694H685.5C685.5 186.866 686.893 185.5 688.537 185.5V182.5ZM682.5 188.694C682.5 192.082 685.14 194.888 688.537 194.888V191.888C686.893 191.888 685.5 190.522 685.5 188.694H682.5ZM688.537 194.888C691.934 194.888 694.574 192.082 694.574 188.694H691.574C691.574 190.522 690.181 191.888 688.537 191.888V194.888ZM694.574 237.694C694.574 234.306 691.934 231.5 688.537 231.5V234.5C690.181 234.5 691.574 235.866 691.574 237.694H694.574ZM688.537 231.5C685.14 231.5 682.5 234.306 682.5 237.694H685.5C685.5 235.866 686.893 234.5 688.537 234.5V231.5ZM682.5 237.694C682.5 241.082 685.14 243.888 688.537 243.888V240.888C686.893 240.888 685.5 239.522 685.5 237.694H682.5ZM688.537 243.888C691.934 243.888 694.574 241.082 694.574 237.694H691.574C691.574 239.522 690.181 240.888 688.537 240.888V243.888Z" fill="#F24139"/>
<path d="M688.5 194V232" stroke="#F24139" stroke-width="3"/>
<path d="M518.386 81.5369C518.386 84.0575 516.299 86.0739 513.692 86.0739C511.084 86.0739 508.998 84.0575 508.998 81.5369C508.998 79.0164 511.084 77 513.692 77C516.299 77 518.386 79.0164 518.386 81.5369Z" fill="white"/>
<path d="M513.693 84.5739C515.521 84.5739 516.887 83.1813 516.887 81.5369H519.887C519.887 84.9336 517.08 87.5739 513.693 87.5739V84.5739ZM516.887 81.5369C516.887 79.8925 515.521 78.5 513.693 78.5V75.5C517.08 75.5 519.887 78.1403 519.887 81.5369H516.887ZM513.693 78.5C511.865 78.5 510.499 79.8925 510.499 81.5369H507.499C507.499 78.1403 510.305 75.5 513.693 75.5V78.5ZM510.499 81.5369C510.499 83.1813 511.865 84.5739 513.693 84.5739V87.5739C510.305 87.5739 507.499 84.9336 507.499 81.5369H510.499ZM508.999 83.0369H330V80.0369H508.999V83.0369Z" fill="#F24139"/>
<path d="M329.388 81.537C329.388 84.0575 327.302 86.074 324.694 86.074C322.086 86.074 320 84.0575 320 81.537C320 79.0164 322.086 77 324.694 77C327.302 77 329.388 79.0164 329.388 81.537Z" fill="white"/>
<path d="M324.694 87.574C328.082 87.574 330.888 84.9337 330.888 81.537H327.888C327.888 83.1814 326.522 84.574 324.694 84.574V87.574ZM330.888 81.537C330.888 78.1403 328.082 75.5 324.694 75.5V78.5C326.522 78.5 327.888 79.8926 327.888 81.537H330.888ZM324.694 75.5C321.306 75.5 318.5 78.1403 318.5 81.537H321.5C321.5 79.8926 322.866 78.5 324.694 78.5V75.5ZM318.5 81.537C318.5 84.9337 321.306 87.574 324.694 87.574V84.574C322.866 84.574 321.5 83.1814 321.5 81.537H318.5Z" fill="#F24139"/>
<path d="M75.4116 582.521C76.2046 582.521 76.8472 582.262 77.3462 581.749C77.8452 581.236 78.0913 580.553 78.0913 579.698V575.986C78.0913 575.118 77.8521 574.448 77.3735 573.977C76.895 573.505 76.2388 573.272 75.3979 573.272H72.4175V586.5H74.605V582.521H75.4116ZM74.605 580.662V575.132H75.0903C75.5962 575.132 75.8491 575.433 75.8491 576.041V579.726C75.8491 580.348 75.5962 580.662 75.0903 580.662H74.605Z" fill="#F24139"/>
<path d="M84.6128 586.5L83.0747 573.272H79.6567L78.0913 586.5H80.3472L80.5659 583.656L82.1108 583.67L82.3296 586.5H84.6128ZM81.0854 577.258L81.27 575.303H81.4204L81.6187 577.258L81.9673 581.865H80.7231L81.0854 577.258Z" fill="#F24139"/>
<path d="M85.187 586.5H87.3745V573.272H85.187V586.5Z" fill="#F24139"/>
<path d="M88.564 573.272V586.5H91.5034C92.3306 586.5 92.9868 586.261 93.4653 585.789C93.937 585.317 94.1763 584.634 94.1763 583.725V576.068C94.1763 574.216 93.1782 573.272 91.5034 573.272H88.564ZM91.9683 583.868C91.9683 584.354 91.7153 584.641 91.3052 584.641H90.7515V575.132H91.3257C91.7153 575.132 91.9683 575.419 91.9683 575.904V583.868Z" fill="#F24139"/>
<path d="M97.5054 586.5H99.6929V573.272H97.5054V586.5Z" fill="#F24139"/>
<path d="M104.553 580.45L103.125 573.272H100.882V586.5H102.94V582.228L102.803 578.755H102.926L104.464 586.5H106.583V573.272H104.526V576.896L104.663 580.45H104.553Z" fill="#F24139"/>
<path d="M47.5327 603.499C46.9346 603.181 46.6416 602.693 46.6416 602.046V596.895C46.6416 596.443 46.9468 596.101 47.4839 596.101C48.082 596.101 48.3872 596.406 48.3872 597.004V602.253H51.1338V596.821C51.1338 595.027 50.0474 593.879 48.0088 593.745V591.145H46.9346V593.745C44.896 593.989 43.834 595.234 43.834 597.004V602.546C43.834 604.39 44.5176 605.378 46.1167 605.977L47.4351 606.526C48.1187 606.855 48.4604 607.38 48.4604 608.101V614.375C48.4604 614.912 48.1431 615.278 47.5693 615.278C46.9712 615.278 46.666 614.949 46.666 614.302V608.003H43.8828V614.473C43.8828 616.279 45.0303 617.415 46.9346 617.646V620.002H48.0088V617.646C49.0098 617.561 49.8032 617.219 50.4014 616.597C50.9995 615.986 51.2925 615.181 51.2925 614.18V607.502C51.2925 606.55 51.0972 605.83 50.7065 605.342C50.3037 604.866 49.6934 604.438 48.8633 604.072L47.5327 603.499Z" fill="#F24139"/>
<path d="M57.2251 606.196V614.204C57.2251 614.875 56.8833 615.278 56.3584 615.278C55.8213 615.278 55.4551 614.875 55.4551 614.204V597.175C55.4551 596.541 55.8213 596.101 56.3584 596.101C56.8833 596.101 57.2251 596.504 57.2251 597.175V604.255H59.9839V597.2C59.9839 594.88 58.7754 593.721 56.3584 593.721C53.9536 593.721 52.623 595.063 52.623 597.603V613.777C52.623 616.304 53.9658 617.671 56.3584 617.671C58.7144 617.671 59.9839 616.438 59.9839 614.18V606.196H57.2251Z" fill="#F24139"/>
<path d="M65.9653 604.097H64.2686V593.879H61.4976V617.5H64.2686V606.526H65.9653V617.5H68.7485V593.879H65.9653V604.097Z" fill="#F24139"/>
<path d="M70.4575 617.5H73.2285V593.879H70.4575V617.5Z" fill="#F24139"/>
<path d="M81.3218 607.173C81.9565 606.538 82.2739 605.684 82.2739 604.622V597.346C82.2739 595.051 80.9556 593.879 78.6973 593.879H74.9253V617.5H77.6963V608.406H78.917L79.7471 617.5H82.5425L81.3218 607.173ZM77.7207 596.296H78.2944C79.0635 596.296 79.4419 596.736 79.4419 597.627V604.695C79.4419 605.598 79.0635 606.05 78.2944 606.05H77.7207V596.296Z" fill="#F24139"/>
<path d="M87.6084 609.956C88.6948 609.956 89.5615 609.626 90.2329 608.967C90.9043 608.32 91.2339 607.417 91.2339 606.27V597.456C91.2339 595.112 89.8789 593.879 87.584 593.879H83.8364V617.5H86.6074V609.956H87.6084ZM86.6074 607.527V596.296H87.3276C88.0479 596.309 88.4019 596.736 88.4019 597.603V606.196C88.4019 607.087 88.0479 607.527 87.3276 607.527H86.6074Z" fill="#F24139"/>
<path d="M94.8228 593.904V596.296H97.02V617.5H99.8032V596.296H102V593.879L94.8228 593.904Z" fill="#F24139"/>
<path d="M103.6 594.709C102.965 595.369 102.647 596.333 102.647 597.603V613.777C102.647 616.304 103.954 617.671 106.346 617.671C108.788 617.671 110.106 616.316 110.106 613.777V597.603C110.106 596.333 109.789 595.369 109.154 594.709C108.519 594.05 107.591 593.721 106.383 593.721C105.162 593.721 104.234 594.05 103.6 594.709ZM107.274 614.204C107.274 614.875 106.92 615.278 106.383 615.278C105.785 615.278 105.479 614.924 105.479 614.204V597.2C105.479 596.528 105.821 596.101 106.383 596.101C106.944 596.101 107.274 596.528 107.274 597.2V614.204Z" fill="#F24139"/>
<path d="M117.088 605.244L119.542 593.879H116.637L114.659 604.329H114.464V593.879H111.693V617.5H114.464V606.501H114.659L116.686 617.5H119.811L117.088 605.244Z" fill="#F24139"/>
<path d="M123.375 606.477H126.073V604.097H123.375V596.296H126.28V593.879H120.604V617.5H126.329V615.071H123.375V606.477Z" fill="#F24139"/>
<path d="M132.579 607.625L130.479 593.879H127.635V617.5H130.187V610.127L129.93 602.876H130.125L132.384 617.5H135.033V593.879H132.481V600.374L132.75 607.625H132.579Z" fill="#F24139"/>
</svg>
