<svg viewBox="0 0 480 480" fill="none" xmlns="http://www.w3.org/2000/svg">
<circle cx="240" cy="240" r="237.5" stroke="white" stroke-width="5"/>
<mask id="mask0_667_641" style="mask-type:alpha" maskUnits="userSpaceOnUse" x="24" y="24" width="432" height="432">
<circle cx="240.001" cy="239.999" r="186.103" stroke="white" stroke-width="59"/>
</mask>
<g mask="url(#mask0_667_641)">
<path d="M197.73 558.298L237.162 220.177L636.312 243.405L197.73 558.298Z" fill="#F24139"/>
<path d="M571.631 240.853L237.11 220.461L434.042 45.6751L571.631 240.853Z" fill="#F6EDE9"/>
<path d="M182.412 -58.1558L236.969 220.508L161.703 -36.5955L182.412 -58.1558Z" fill="#FFEBCC"/>
<path d="M172.199 -8.22668L236.969 220.508L134.469 2.55347L172.199 -8.22668Z" fill="#403E48"/>
<path d="M141.845 9.0783L236.969 220.508L115.178 21.2769L141.845 9.0783Z" fill="white"/>
<path d="M429.219 50.4987L236.872 220.646L184.963 -43.4028L429.219 50.4987Z" fill="#D52626"/>
<path opacity="0.2" d="M63.2597 -68.0853L236.898 220.236L-40.0018 212.766L63.2597 -68.0853Z" fill="#930B09"/>
<path d="M-208.51 77.1647L237.083 220.143L200.282 553.76L-208.51 77.1647Z" fill="#F9907A"/>
</g>
</svg>
