<svg width="234" height="49" viewBox="0 0 234 49" fill="none" xmlns="http://www.w3.org/2000/svg">
<path opacity="0.4" fill-rule="evenodd" clip-rule="evenodd" d="M6.39479 40.2714C8.51183 44.3217 10.9121 45.809 12.7557 45.809C14.5994 45.809 16.9996 44.3218 19.1167 40.2714C21.1586 36.3648 22.5115 30.7599 22.5115 24.4045C22.5115 18.0491 21.1586 12.4442 19.1167 8.53757C16.9996 4.48722 14.5994 3 12.7557 3C10.9121 3 8.51183 4.48722 6.3948 8.53757C4.35288 12.4442 3 18.0491 3 24.4045C3 30.7599 4.35288 36.3648 6.39479 40.2714ZM-1.06675e-06 24.4045C-1.65591e-06 37.8827 5.71094 48.809 12.7557 48.809C19.8005 48.809 25.5115 37.8827 25.5115 24.4045C25.5115 10.9263 19.8005 -2.49633e-07 12.7557 -5.57571e-07C5.71094 -8.65509e-07 -4.77602e-07 10.9263 -1.06675e-06 24.4045Z" fill="#2FF6D3"/>
<path opacity="0.7" fill-rule="evenodd" clip-rule="evenodd" d="M17.5142 40.2714C19.6312 44.3217 22.0315 45.809 23.8751 45.809C25.7187 45.809 28.119 44.3218 30.236 40.2714C32.278 36.3648 33.6308 30.7599 33.6308 24.4045C33.6308 18.0491 32.278 12.4442 30.236 8.53757C28.119 4.48722 25.7187 3 23.8751 3C22.0315 3 19.6312 4.48722 17.5142 8.53757C15.4722 12.4442 14.1194 18.0491 14.1194 24.4045C14.1194 30.7599 15.4722 36.3648 17.5142 40.2714ZM11.1194 24.4045C11.1194 37.8827 16.8303 48.809 23.8751 48.809C30.9199 48.809 36.6308 37.8827 36.6308 24.4045C36.6308 10.9263 30.9199 -2.49633e-07 23.8751 -5.57571e-07C16.8303 -8.65509e-07 11.1194 10.9263 11.1194 24.4045Z" fill="#2FF6D3"/>
<path d="M25.7214 35.9448C19.3701 35.9448 14.2214 30.7961 14.2214 24.4448C14.2214 18.0935 19.3701 12.9448 25.7214 12.9448C32.0726 12.9448 37.2214 18.0936 37.2214 24.4448C37.2214 30.7961 32.0726 35.9448 25.7214 35.9448Z" fill="url(#paint0_linear)"/>
<path fill-rule="evenodd" clip-rule="evenodd" d="M28.6335 40.2714C30.7505 44.3217 33.1508 45.809 34.9944 45.809C36.838 45.809 39.2383 44.3218 41.3553 40.2714C43.3973 36.3648 44.7501 30.7599 44.7501 24.4045C44.7501 18.0491 43.3973 12.4442 41.3553 8.53757C39.2383 4.48722 36.838 3 34.9944 3C33.1508 3 30.7505 4.48722 28.6335 8.53757C26.5916 12.4442 25.2387 18.0491 25.2387 24.4045C25.2387 30.7599 26.5915 36.3648 28.6335 40.2714ZM22.2387 24.4045C22.2387 37.8827 27.9496 48.809 34.9944 48.809C42.0392 48.809 47.7501 37.8827 47.7501 24.4045C47.7501 10.9263 42.0392 -2.49633e-07 34.9944 -5.57571e-07C27.9496 -8.65509e-07 22.2387 10.9263 22.2387 24.4045Z" fill="#2FF6D3"/>
<path d="M65.8027 34C64.7387 34 63.8241 33.6173 63.0587 32.852C62.2934 32.0867 61.9107 31.172 61.9107 30.108V17.732C61.9107 16.668 62.2934 15.7533 63.0587 14.988C63.8241 14.2227 64.7387 13.84 65.8027 13.84H82.0147V17.564H66.5867C66.0641 17.564 65.7654 17.6013 65.6907 17.676C65.6347 17.732 65.6067 18.0213 65.6067 18.544V29.296C65.6067 29.8187 65.6347 30.1173 65.6907 30.192C65.7654 30.248 66.0641 30.276 66.5867 30.276H82.0147V34H65.8027ZM87.1182 34V12.44H90.7862V17.76H99.7462C100.792 17.76 101.697 18.1427 102.462 18.908C103.228 19.6547 103.61 20.56 103.61 21.624V34H99.9422V22.408C99.9422 21.8853 99.9048 21.596 99.8302 21.54C99.7742 21.4653 99.4848 21.428 98.9622 21.428H91.7662C91.2435 21.428 90.9448 21.4653 90.8702 21.54C90.8142 21.596 90.7862 21.8853 90.7862 22.408V34H87.1182ZM111.924 34C110.86 34 109.945 33.6267 109.18 32.88C108.433 32.1147 108.06 31.2 108.06 30.136V24.032H120.884V22.408C120.884 21.8853 120.847 21.596 120.772 21.54C120.716 21.4653 120.427 21.428 119.904 21.428H108.06V17.76H120.688C121.752 17.76 122.657 18.1427 123.404 18.908C124.169 19.6547 124.552 20.56 124.552 21.624V34H111.924ZM112.708 30.332H120.884V27.336H111.728V29.352C111.728 29.8747 111.756 30.1733 111.812 30.248C111.887 30.304 112.185 30.332 112.708 30.332ZM129.741 34V17.76H133.409V34H129.741ZM129.741 16.136V12.44H133.409V16.136H129.741ZM138.901 34V17.76H151.529C152.593 17.76 153.498 18.1427 154.245 18.908C155.01 19.6547 155.393 20.56 155.393 21.624V34H151.725V22.408C151.725 21.8853 151.687 21.596 151.613 21.54C151.557 21.4653 151.267 21.428 150.745 21.428H143.549C143.026 21.428 142.727 21.4653 142.653 21.54C142.597 21.596 142.569 21.8853 142.569 22.408V34H138.901ZM160.693 34V13.868H176.933C178.015 13.868 178.939 14.2507 179.705 15.016C180.47 15.7813 180.853 16.696 180.853 17.76V23.192C180.853 24.256 180.47 25.1707 179.705 25.936C178.939 26.7013 178.015 27.084 176.933 27.084L164.389 27.112V34H160.693ZM165.369 23.36H176.149C176.653 23.36 176.942 23.332 177.017 23.276C177.091 23.2013 177.129 22.912 177.129 22.408V18.544C177.129 18.0213 177.091 17.732 177.017 17.676C176.942 17.6013 176.653 17.564 176.149 17.564H165.369C164.846 17.564 164.547 17.6013 164.473 17.676C164.417 17.732 164.389 18.0213 164.389 18.544V22.408C164.389 22.912 164.417 23.2013 164.473 23.276C164.547 23.332 164.846 23.36 165.369 23.36ZM188.805 34C187.741 34 186.827 33.6267 186.061 32.88C185.315 32.1147 184.941 31.2 184.941 30.136V21.624C184.941 20.56 185.315 19.6547 186.061 18.908C186.827 18.1427 187.741 17.76 188.805 17.76H197.569C198.633 17.76 199.539 18.1427 200.285 18.908C201.051 19.6547 201.433 20.56 201.433 21.624V30.136C201.433 31.2 201.051 32.1147 200.285 32.88C199.539 33.6267 198.633 34 197.569 34H188.805ZM189.589 30.332H196.785C197.308 30.332 197.597 30.304 197.653 30.248C197.728 30.1733 197.765 29.8747 197.765 29.352V22.408C197.765 21.8853 197.728 21.596 197.653 21.54C197.597 21.4653 197.308 21.428 196.785 21.428H189.589C189.067 21.428 188.768 21.4653 188.693 21.54C188.637 21.596 188.609 21.8853 188.609 22.408V29.352C188.609 29.8747 188.637 30.1733 188.693 30.248C188.768 30.304 189.067 30.332 189.589 30.332ZM205.967 34V21.624C205.967 20.56 206.34 19.6547 207.087 18.908C207.852 18.1427 208.767 17.76 209.831 17.76H218.847V21.428H210.615C210.092 21.428 209.794 21.4653 209.719 21.54C209.663 21.596 209.635 21.8853 209.635 22.408V34H205.967ZM226.728 34C225.664 34 224.749 33.6267 223.984 32.88C223.237 32.1147 222.864 31.2 222.864 30.136V12.776H226.532V17.76H232.86V21.428H226.532V29.352C226.532 29.8747 226.56 30.1733 226.616 30.248C226.691 30.304 226.989 30.332 227.512 30.332H232.86V34H226.728Z" fill="white"/>
<defs>
<linearGradient id="paint0_linear" x1="26.0415" y1="24.4448" x2="14.2214" y2="24.4448" gradientUnits="userSpaceOnUse">
<stop stop-color="white"/>
<stop offset="1" stop-color="white" stop-opacity="0"/>
</linearGradient>
</defs>
</svg>
