<svg width="807" height="267" viewBox="0 0 807 267" fill="none" xmlns="http://www.w3.org/2000/svg">
<path d="M59.135 123.263L59.135 212.746C59.135 218.485 57.0564 221.302 52.7954 221.302C48.3265 221.302 46.04 218.485 46.04 212.746L46.04 60.4537C46.04 54.7153 48.2225 51.8983 52.5875 51.8983C56.9525 51.8983 59.135 54.7153 59.135 60.4537L59.135 109.595L103.408 109.595L103.408 64.5227C103.408 30.6142 86.3641 16.0074 52.5875 16.0074C17.5638 16.0074 1.47001e-09 34.6832 3.05311e-09 72.0347L8.53059e-09 201.27C1.01181e-08 238.725 17.5638 257.401 52.5875 257.401C86.468 257.506 103.408 241.438 103.408 209.199L103.408 123.263L59.135 123.263Z" fill="#F24139"/>
<path d="M173.352 123.539L159.945 123.539L159.945 7.91109L115.256 7.91109L115.256 245.236L159.945 245.236L159.945 161.308L173.352 161.308L173.352 245.236L218.041 245.236L218.041 7.91109L173.352 7.91109L173.352 123.539Z" fill="#F24139"/>
<path d="M231.655 237.325L276.344 237.325L276.344 1.17017e-08L231.655 9.80939e-09L231.655 237.325Z" fill="#F24139"/>
<path d="M383.91 132.235C390.457 124.515 393.679 114.29 393.679 101.665L393.679 62.436C393.679 33.9529 378.09 17.9897 347.223 17.9897L290.063 17.9897L290.063 255.315L334.752 255.315L334.752 168.215L344.105 168.215L350.445 255.315L396.693 255.315L383.91 132.235ZM334.752 55.7586L338.493 55.7586C344.833 55.7586 347.951 59.8277 347.951 67.9657L347.951 120.117C347.847 129.507 344.729 134.202 338.493 134.202L334.752 134.202L334.752 55.7586Z" fill="#F24139"/>
<path d="M463.934 176.264C477.964 176.264 489.188 171.569 497.503 162.075C505.713 152.685 509.87 140.478 509.87 125.349L509.87 78.1905C509.87 62.8534 505.921 50.9593 497.918 42.4039C489.916 33.9529 478.588 29.6752 463.934 29.6752L405.838 29.6752L405.838 267L450.527 267L450.527 176.264L463.934 176.264ZM450.527 138.6L450.527 67.4441L454.788 67.4441C460.92 67.4441 463.934 71.4088 463.934 79.2338L463.934 126.601C463.934 134.635 460.92 138.6 454.788 138.6L450.527 138.6Z" fill="#F24139"/>
<path d="M563.393 26.9465L518.704 26.9465L518.704 264.271L596.338 264.271L596.338 226.503L563.393 226.503L563.393 26.9465Z" fill="#F24139"/>
<path d="M647.782 151.625L684.365 151.625L684.365 115.942L647.782 115.942L647.782 55.7586L686.444 55.7586L686.444 17.9897L603.093 17.9897L603.093 255.315L687.067 255.315L687.067 217.546L647.782 217.546L647.782 151.625Z" fill="#F24139"/>
<path d="M747.865 100.414L746.098 77.3557L738.927 17.9897L690.185 17.9897L726.352 205.756L726.352 255.315L771.041 255.315L771.041 205.547L807 17.9897L759.297 17.9897L752.542 77.3557L750.567 100.414L747.865 100.414Z" fill="#F24139"/>
</svg>
